<svg xmlns="http://www.w3.org/2000/svg" xmlns:xlink="http://www.w3.org/1999/xlink" width="67" zoomAndPan="magnify" viewBox="0 0 50.25 50.249998" height="67" preserveAspectRatio="xMidYMid meet" version="1.0"><defs><clipPath id="363fffa4b7"><path d="M 1 0.246094 L 49 0.246094 L 49 49 L 1 49 Z M 1 0.246094 " clip-rule="nonzero"/></clipPath></defs><g clip-path="url(#363fffa4b7)"><path fill="#ff2953" d="M 7.96875 26.667969 C 8.261719 26.375 8.738281 26.375 9.03125 26.667969 C 9.328125 26.964844 9.328125 27.4375 9.03125 27.734375 C 6.058594 30.707031 6.058594 35.53125 9.03125 38.507812 C 9.328125 38.800781 9.328125 39.277344 9.03125 39.570312 C 8.738281 39.863281 8.261719 39.863281 7.96875 39.570312 C 4.40625 36.007812 4.40625 30.230469 7.96875 26.667969 Z M 26.703125 45.953125 L 22.820312 45.953125 C 22.761719 45.953125 22.71875 45.996094 22.71875 46.054688 L 22.71875 46.53125 C 22.71875 48.324219 24.90625 49.273438 26.203125 47.976562 C 26.574219 47.605469 26.804688 47.09375 26.804688 46.53125 L 26.804688 46.054688 C 26.804688 45.996094 26.757812 45.953125 26.703125 45.953125 Z M 35.90625 41.824219 L 13.617188 41.824219 C 12.46875 41.824219 11.855469 43.226562 12.691406 44.0625 C 12.929688 44.300781 13.257812 44.449219 13.617188 44.449219 L 35.90625 44.449219 C 37.050781 44.449219 37.664062 43.046875 36.832031 42.210938 C 36.59375 41.972656 36.265625 41.824219 35.90625 41.824219 Z M 24.761719 24.234375 C 19.726562 24.234375 15.609375 28.351562 15.609375 33.386719 L 15.609375 40.21875 C 15.609375 40.277344 15.652344 40.320312 15.707031 40.320312 L 33.8125 40.320312 C 33.871094 40.320312 33.914062 40.277344 33.914062 40.21875 L 33.914062 33.386719 C 33.914062 28.351562 29.792969 24.234375 24.761719 24.234375 Z M 24.691406 0.328125 C 24.703125 0.289062 24.738281 0.261719 24.777344 0.257812 C 24.820312 0.253906 24.859375 0.273438 24.875 0.3125 C 25.652344 1.832031 26.066406 3.363281 26.070312 4.914062 C 26.074219 7.871094 24.105469 10.925781 24.105469 14.324219 C 24.105469 15.957031 25.429688 17.28125 27.0625 17.28125 C 28.695312 17.28125 30.019531 15.957031 30.019531 14.324219 C 30.019531 13.328125 29.148438 11.511719 28.738281 10.574219 C 28.71875 10.53125 28.730469 10.488281 28.761719 10.457031 C 28.792969 10.429688 28.839844 10.421875 28.878906 10.445312 C 33.160156 12.816406 38.085938 21.3125 38.085938 26.347656 C 38.085938 29.34375 37.167969 32.117188 35.601562 34.382812 C 35.578125 34.417969 35.53125 34.433594 35.488281 34.417969 C 35.449219 34.40625 35.417969 34.367188 35.417969 34.324219 L 35.417969 33.386719 C 35.417969 27.523438 30.625 22.726562 24.761719 22.726562 C 18.898438 22.726562 14.101562 27.523438 14.101562 33.386719 L 14.101562 34.324219 C 14.101562 34.367188 14.074219 34.40625 14.03125 34.417969 C 13.988281 34.433594 13.945312 34.417969 13.921875 34.382812 C 12.355469 32.117188 11.4375 29.34375 11.4375 26.347656 C 11.4375 17.773438 21.683594 10.296875 24.691406 0.328125 Z M 43.28125 24.941406 C 42.988281 24.648438 42.988281 24.171875 43.28125 23.878906 C 43.574219 23.582031 44.050781 23.582031 44.347656 23.878906 C 49.449219 28.980469 49.449219 37.257812 44.347656 42.363281 C 44.050781 42.65625 43.574219 42.65625 43.28125 42.363281 C 42.988281 42.066406 42.988281 41.59375 43.28125 41.296875 C 47.796875 36.78125 47.796875 29.457031 43.28125 24.941406 Z M 40.488281 27.734375 C 43.464844 30.707031 43.464844 35.53125 40.488281 38.507812 C 40.195312 38.800781 40.195312 39.277344 40.488281 39.570312 C 40.785156 39.863281 41.261719 39.863281 41.554688 39.570312 C 45.117188 36.007812 45.117188 30.230469 41.554688 26.667969 C 41.261719 26.375 40.785156 26.375 40.488281 26.667969 C 40.195312 26.964844 40.195312 27.4375 40.488281 27.734375 Z M 5.175781 23.878906 C 0.0703125 28.980469 0.0742188 37.257812 5.175781 42.363281 C 5.46875 42.65625 5.945312 42.65625 6.242188 42.363281 C 6.535156 42.066406 6.535156 41.59375 6.242188 41.296875 C 1.722656 36.78125 1.722656 29.457031 6.242188 24.941406 C 6.535156 24.648438 6.535156 24.171875 6.242188 23.878906 C 5.945312 23.582031 5.46875 23.582031 5.175781 23.878906 Z M 5.175781 23.878906 " fill-opacity="1" fill-rule="evenodd"/></g></svg>