<svg xmlns="http://www.w3.org/2000/svg" xmlns:xlink="http://www.w3.org/1999/xlink" width="67" zoomAndPan="magnify" viewBox="0 0 50.25 50.249998" height="67" preserveAspectRatio="xMidYMid meet" version="1.0"><defs><clipPath id="7515c1da33"><path d="M 11 1.476562 L 27 1.476562 L 27 17 L 11 17 Z M 11 1.476562 " clip-rule="nonzero"/></clipPath></defs><path fill="#ff2953" d="M 36.0625 11.128906 C 36.378906 10.816406 36.894531 10.816406 37.207031 11.128906 L 38.34375 12.265625 C 38.949219 12.902344 38.277344 13.5 37.8125 13.941406 C 37.8125 13.941406 38.734375 14.980469 38.824219 15.203125 L 39.488281 14.542969 C 40.429688 13.601562 40.429688 12.070312 39.488281 11.128906 L 38.34375 9.984375 C 37.398438 9.042969 35.871094 9.042969 34.925781 9.984375 L 34.265625 10.652344 C 34.265625 10.652344 35.144531 11.273438 35.53125 11.660156 Z M 36.0625 11.128906 " fill-opacity="1" fill-rule="nonzero"/><path fill="#ff2953" d="M 37.519531 15.074219 L 34.394531 11.949219 C 33.613281 11.175781 32.285156 11.183594 31.535156 11.941406 C 30.925781 12.566406 27.171875 16.265625 26.847656 16.679688 L 26.824219 16.65625 L 23.160156 20.328125 C 26.085938 20.925781 28.554688 23.386719 29.144531 26.320312 L 37.527344 17.9375 C 38.308594 17.191406 38.308594 15.820312 37.519531 15.074219 Z M 31.292969 21.304688 L 29.410156 23.1875 C 29.257812 23.347656 29.046875 23.429688 28.835938 23.429688 C 28.152344 23.453125 27.757812 22.527344 28.273438 22.050781 L 30.160156 20.167969 C 30.90625 19.417969 32.035156 20.554688 31.292969 21.304688 Z M 34.144531 18.453125 C 33.800781 18.71875 32.9375 19.910156 32.4375 19.828125 C 31.746094 19.851562 31.351562 18.933594 31.867188 18.453125 L 33.011719 17.316406 C 33.75 16.574219 34.886719 17.710938 34.144531 18.453125 Z M 35.734375 16.847656 C 35.5625 16.957031 35.328125 17.015625 35.128906 16.96875 C 34.980469 16.9375 34.816406 16.855469 34.71875 16.742188 C 34.082031 16.15625 34.8125 15.09375 35.597656 15.429688 C 36.183594 15.660156 36.265625 16.511719 35.734375 16.847656 Z M 35.734375 16.847656 " fill-opacity="1" fill-rule="nonzero"/><path fill="#ff2953" d="M 15.433594 28.453125 C 13.433594 28.492188 15.054688 32.734375 16.054688 33.417969 C 16.75 34.433594 21.015625 36.035156 21.046875 34.03125 C 20.996094 33.589844 20.601562 33.269531 20.15625 33.316406 C 19.058594 33.4375 17.976562 33.058594 17.195312 32.277344 C 16.417969 31.503906 16.039062 30.429688 16.152344 29.335938 C 16.195312 28.894531 15.875 28.496094 15.433594 28.453125 Z M 15.433594 28.453125 " fill-opacity="1" fill-rule="nonzero"/><path fill="#ff2953" d="M 19.746094 40.863281 C 20.472656 40.84375 21.761719 40.972656 21.6875 39.910156 C 21.640625 39.46875 21.230469 39.148438 20.800781 39.195312 C 14.9375 39.988281 9.515625 34.589844 10.269531 28.726562 C 10.371094 27.6875 8.78125 27.511719 8.664062 28.5625 C 7.851562 34.941406 13.34375 41.015625 19.746094 40.863281 Z M 19.746094 40.863281 " fill-opacity="1" fill-rule="nonzero"/><path fill="#ff2953" d="M 21.441406 45.078125 C 11.902344 46.320312 3.199219 37.664062 4.382812 28.121094 C 4.488281 27.078125 2.886719 26.902344 2.777344 27.957031 C 1.492188 38.539062 11.074219 48.035156 21.617188 46.679688 C 22.65625 46.558594 22.5 44.972656 21.441406 45.078125 Z M 21.441406 45.078125 " fill-opacity="1" fill-rule="nonzero"/><path fill="#ff2953" d="M 28.5 28.1875 C 28.476562 27.640625 28.371094 27.089844 28.226562 26.566406 L 28.21875 26.578125 C 27.527344 24.121094 25.535156 22.128906 23.078125 21.4375 L 23.085938 21.429688 C 22.445312 21.253906 21.761719 21.132812 21.082031 21.15625 L 21.066406 21.171875 C 18.757812 20.988281 14.863281 22.746094 16.828125 25.472656 C 16.828125 25.539062 18.34375 27.023438 18.429688 27.117188 C 16.828125 29.636719 20.023438 32.828125 22.539062 31.222656 C 22.644531 31.324219 24.105469 32.8125 24.183594 32.835938 C 24.289062 32.90625 24.390625 32.988281 24.496094 33.042969 C 24.503906 33.050781 24.511719 33.050781 24.519531 33.0625 C 25.855469 33.8125 27.296875 32.996094 27.855469 31.636719 C 28.289062 30.695312 28.527344 29.613281 28.484375 28.589844 L 28.5 28.574219 C 28.5 28.445312 28.507812 28.316406 28.5 28.1875 Z M 21.296875 30.007812 C 20.367188 30.203125 19.449219 29.300781 19.648438 28.363281 L 19.65625 28.339844 L 21.316406 30 Z M 26.558594 30.570312 C 26.347656 31.203125 25.910156 32.183594 25.117188 31.546875 L 18.109375 24.539062 C 17.820312 24.273438 17.875 23.78125 18.171875 23.539062 C 21.480469 21.441406 26.226562 23.722656 26.800781 27.550781 C 26.816406 27.597656 26.824219 27.648438 26.832031 27.703125 C 26.832031 27.726562 26.839844 27.761719 26.847656 27.792969 C 26.984375 28.6875 26.914062 29.628906 26.558594 30.570312 Z M 26.558594 30.570312 " fill-opacity="1" fill-rule="nonzero"/><path fill="#ff2953" d="M 47.132812 30.582031 L 39.808594 23.261719 C 38.945312 22.398438 37.441406 22.398438 36.578125 23.261719 L 35.578125 24.257812 L 34.105469 22.785156 L 32.960938 23.921875 C 33.25 24.210938 34.140625 25.09375 34.445312 25.394531 L 33.4375 26.394531 C 32.550781 27.289062 32.550781 28.738281 33.4375 29.625 C 34.800781 30.992188 39.320312 35.503906 40.757812 36.945312 C 41.609375 37.832031 43.144531 37.835938 43.988281 36.945312 L 47.132812 33.8125 C 48.015625 32.960938 48.015625 31.429688 47.132812 30.582031 Z M 43.328125 29.058594 L 41.855469 30.535156 L 39.855469 28.535156 L 41.332031 27.0625 Z M 37.714844 24.394531 C 37.972656 24.136719 38.421875 24.136719 38.671875 24.394531 L 40.195312 25.917969 L 38.714844 27.394531 L 36.714844 25.394531 Z M 34.582031 28.488281 C 33.894531 27.761719 35.144531 27.085938 35.578125 26.539062 L 37.578125 28.535156 L 36.101562 30.011719 Z M 37.238281 31.148438 L 38.714844 29.671875 L 40.71875 31.671875 L 39.238281 33.152344 Z M 42.855469 35.8125 C 42.597656 36.058594 42.160156 36.070312 41.902344 35.8125 L 40.378906 34.289062 L 41.855469 32.8125 L 43.851562 34.8125 Z M 45.988281 32.667969 L 44.988281 33.667969 L 42.992188 31.671875 L 44.472656 30.195312 L 45.988281 31.71875 C 46.253906 31.96875 46.253906 32.417969 45.988281 32.667969 Z M 45.988281 32.667969 " fill-opacity="1" fill-rule="nonzero"/><g clip-path="url(#7515c1da33)"><path fill="#ff2953" d="M 25.210938 13.890625 L 26.210938 12.894531 C 27.105469 12.007812 27.105469 10.558594 26.210938 9.664062 L 24.125 7.566406 L 18.890625 2.339844 C 18.027344 1.476562 16.519531 1.476562 15.660156 2.339844 L 12.523438 5.480469 C 11.640625 6.328125 11.640625 7.859375 12.523438 8.710938 L 19.847656 16.035156 C 20.691406 16.921875 22.222656 16.921875 23.078125 16.035156 L 24.078125 15.035156 L 25.550781 16.511719 L 26.6875 15.367188 C 26.339844 15.019531 25.5625 14.242188 25.210938 13.890625 Z M 22.410156 8.140625 L 20.933594 9.613281 L 18.9375 7.617188 L 20.410156 6.140625 Z M 17.277344 3.28125 C 17.664062 3.175781 18.828125 4.632812 19.277344 5.007812 L 17.800781 6.480469 L 15.804688 4.484375 C 16.101562 4.25 16.84375 3.226562 17.277344 3.28125 Z M 13.660156 7.566406 C 13.53125 7.449219 13.46875 7.277344 13.46875 7.09375 C 13.402344 6.667969 14.433594 5.910156 14.660156 5.617188 L 16.65625 7.617188 L 15.183594 9.089844 Z M 16.328125 10.234375 L 17.800781 8.761719 L 19.800781 10.757812 L 18.324219 12.234375 Z M 21.933594 14.890625 C 21.683594 15.148438 21.242188 15.148438 20.984375 14.890625 L 19.460938 13.367188 L 20.933594 11.894531 L 22.933594 13.890625 Z M 24.078125 12.757812 L 22.078125 10.757812 L 23.554688 9.277344 L 25.074219 10.796875 C 25.332031 11.0625 25.332031 11.492188 25.074219 11.757812 Z M 24.078125 12.757812 " fill-opacity="1" fill-rule="nonzero"/></g></svg>