<svg xmlns="http://www.w3.org/2000/svg" xmlns:xlink="http://www.w3.org/1999/xlink" width="67" zoomAndPan="magnify" viewBox="0 0 50.25 50.249998" height="67" preserveAspectRatio="xMidYMid meet" version="1.0"><defs><clipPath id="7e4a906950"><path d="M 10 10.796875 L 23 10.796875 L 23 38.878906 L 10 38.878906 Z M 10 10.796875 " clip-rule="nonzero"/></clipPath><clipPath id="3a79f860e0"><path d="M 0.847656 15 L 7 15 L 7 35 L 0.847656 35 Z M 0.847656 15 " clip-rule="nonzero"/></clipPath><clipPath id="b9f332d0e4"><path d="M 42 15 L 48.878906 15 L 48.878906 35 L 42 35 Z M 42 15 " clip-rule="nonzero"/></clipPath><clipPath id="ffe31ac5aa"><path d="M 26 10.796875 L 40 10.796875 L 40 38.878906 L 26 38.878906 Z M 26 10.796875 " clip-rule="nonzero"/></clipPath></defs><g clip-path="url(#7e4a906950)"><path fill="#ff2953" d="M 22.695312 28.742188 L 22.695312 13.765625 C 22.695312 12.140625 21.351562 10.796875 19.726562 10.796875 L 13.234375 10.796875 C 11.609375 10.796875 10.265625 12.140625 10.265625 13.765625 L 10.265625 28.742188 C 10.265625 30.363281 11.609375 31.707031 13.234375 31.707031 L 15.921875 31.707031 L 15.921875 35.375 L 13.289062 35.375 C 12.367188 35.375 11.636719 36.128906 11.636719 37.054688 L 11.636719 38.144531 C 11.636719 38.480469 11.890625 38.707031 12.199219 38.707031 L 20.765625 38.707031 C 21.070312 38.707031 21.324219 38.480469 21.324219 38.144531 L 21.324219 37.054688 C 21.324219 36.605469 21.128906 36.1875 20.847656 35.878906 C 20.539062 35.570312 20.121094 35.375 19.671875 35.375 L 17.042969 35.375 L 17.042969 31.707031 L 19.726562 31.707031 C 21.351562 31.707031 22.695312 30.363281 22.695312 28.742188 Z M 20.175781 24.933594 C 19.195312 25.914062 17.851562 26.472656 16.480469 26.472656 C 15.082031 26.472656 13.765625 25.914062 12.785156 24.933594 C 11.804688 23.953125 11.273438 22.640625 11.273438 21.238281 C 11.273438 19.867188 11.804688 18.550781 12.785156 17.570312 C 13.765625 16.59375 15.082031 16.03125 16.480469 16.03125 C 17.851562 16.03125 19.195312 16.59375 20.175781 17.570312 C 21.15625 18.550781 21.6875 19.867188 21.6875 21.238281 C 21.6875 22.640625 21.15625 23.953125 20.175781 24.933594 Z M 20.175781 24.933594 " fill-opacity="1" fill-rule="evenodd"/></g><path fill="#1e3d84" d="M 19.363281 24.148438 C 20.121094 23.394531 20.566406 22.386719 20.566406 21.238281 C 20.566406 20.121094 20.121094 19.082031 19.363281 18.355469 C 18.636719 17.601562 17.601562 17.152344 16.480469 17.152344 C 15.363281 17.152344 14.324219 17.601562 13.570312 18.355469 C 12.84375 19.082031 12.394531 20.121094 12.394531 21.238281 C 12.394531 22.386719 12.84375 23.394531 13.570312 24.148438 C 14.324219 24.878906 15.363281 25.355469 16.480469 25.355469 C 17.601562 25.355469 18.636719 24.878906 19.363281 24.148438 Z M 16.480469 23.28125 C 15.921875 23.28125 15.417969 23.058594 15.027344 22.695312 C 14.660156 22.332031 14.4375 21.800781 14.4375 21.238281 C 14.4375 20.679688 14.660156 20.175781 15.027344 19.8125 C 15.417969 19.417969 15.921875 19.195312 16.480469 19.195312 C 17.042969 19.195312 17.542969 19.417969 17.910156 19.8125 C 18.300781 20.175781 18.523438 20.679688 18.523438 21.238281 C 18.523438 21.800781 18.300781 22.332031 17.910156 22.695312 C 17.542969 23.058594 17.042969 23.28125 16.480469 23.28125 Z M 16.480469 23.28125 " fill-opacity="1" fill-rule="evenodd"/><g clip-path="url(#3a79f860e0)"><path fill="#ff2953" d="M 5.648438 34.085938 C 5.898438 34.253906 6.234375 34.199219 6.433594 33.949219 C 6.601562 33.695312 6.542969 33.359375 6.292969 33.164062 C 4.949219 32.183594 3.855469 30.925781 3.128906 29.496094 C 2.402344 28.042969 1.980469 26.417969 1.980469 24.765625 C 1.980469 23.058594 2.402344 21.464844 3.128906 20.035156 C 3.886719 18.578125 4.976562 17.292969 6.292969 16.339844 C 6.542969 16.171875 6.601562 15.808594 6.433594 15.558594 C 6.234375 15.304688 5.898438 15.25 5.648438 15.445312 C 4.164062 16.507812 2.960938 17.90625 2.121094 19.53125 C 1.335938 21.097656 0.863281 22.890625 0.863281 24.765625 C 0.863281 26.613281 1.308594 28.378906 2.121094 30 C 2.960938 31.597656 4.136719 32.996094 5.648438 34.085938 Z M 5.648438 34.085938 " fill-opacity="1" fill-rule="nonzero"/></g><path fill="#ff2953" d="M 7.886719 31.203125 C 8.140625 31.371094 8.476562 31.316406 8.671875 31.0625 C 8.839844 30.839844 8.785156 30.476562 8.53125 30.308594 C 7.636719 29.664062 6.9375 28.824219 6.460938 27.875 C 5.957031 26.921875 5.703125 25.859375 5.703125 24.765625 C 5.703125 23.644531 5.984375 22.582031 6.433594 21.660156 C 6.9375 20.679688 7.664062 19.839844 8.53125 19.222656 C 8.785156 19.027344 8.839844 18.691406 8.671875 18.441406 C 8.476562 18.1875 8.140625 18.132812 7.886719 18.300781 C 6.851562 19.054688 6.039062 20.007812 5.453125 21.15625 C 4.894531 22.21875 4.585938 23.449219 4.585938 24.765625 C 4.585938 26.027344 4.894531 27.257812 5.453125 28.378906 C 6.011719 29.496094 6.851562 30.449219 7.886719 31.203125 Z M 7.886719 31.203125 " fill-opacity="1" fill-rule="nonzero"/><g clip-path="url(#b9f332d0e4)"><path fill="#ff2953" d="M 43.214844 33.164062 C 42.960938 33.359375 42.90625 33.695312 43.101562 33.949219 C 43.269531 34.199219 43.632812 34.253906 43.886719 34.085938 C 45.367188 32.996094 46.570312 31.597656 47.382812 30 C 48.195312 28.378906 48.644531 26.613281 48.644531 24.765625 C 48.644531 22.890625 48.195312 21.097656 47.382812 19.53125 C 46.542969 17.90625 45.339844 16.507812 43.886719 15.445312 C 43.632812 15.25 43.269531 15.304688 43.101562 15.558594 C 42.90625 15.808594 42.960938 16.171875 43.214844 16.339844 C 44.558594 17.292969 45.648438 18.578125 46.402344 20.035156 C 47.105469 21.464844 47.523438 23.058594 47.523438 24.765625 C 47.523438 26.417969 47.132812 28.042969 46.375 29.496094 C 45.648438 30.925781 44.585938 32.183594 43.214844 33.164062 Z M 43.214844 33.164062 " fill-opacity="1" fill-rule="nonzero"/></g><path fill="#ff2953" d="M 40.972656 30.308594 C 40.722656 30.476562 40.664062 30.839844 40.863281 31.0625 C 41.03125 31.316406 41.394531 31.371094 41.644531 31.203125 C 42.652344 30.449219 43.492188 29.496094 44.054688 28.378906 C 44.613281 27.257812 44.921875 26.027344 44.921875 24.765625 C 44.921875 23.449219 44.613281 22.21875 44.054688 21.15625 C 43.492188 20.007812 42.652344 19.054688 41.644531 18.300781 C 41.394531 18.132812 41.03125 18.1875 40.863281 18.441406 C 40.664062 18.691406 40.722656 19.027344 40.972656 19.222656 C 41.839844 19.839844 42.570312 20.679688 43.074219 21.660156 C 43.550781 22.582031 43.800781 23.644531 43.800781 24.765625 C 43.800781 25.859375 43.550781 26.921875 43.074219 27.875 C 42.570312 28.824219 41.871094 29.664062 40.972656 30.308594 Z M 40.972656 30.308594 " fill-opacity="1" fill-rule="nonzero"/><g clip-path="url(#ffe31ac5aa)"><path fill="#ff2953" d="M 39.238281 28.742188 L 39.238281 13.765625 C 39.238281 12.140625 37.921875 10.796875 36.300781 10.796875 L 29.777344 10.796875 C 28.152344 10.796875 26.808594 12.140625 26.808594 13.765625 L 26.808594 28.742188 C 26.808594 30.363281 28.152344 31.707031 29.777344 31.707031 L 32.464844 31.707031 L 32.464844 35.375 L 29.859375 35.375 C 28.9375 35.375 28.183594 36.128906 28.183594 37.054688 L 28.183594 38.144531 C 28.183594 38.480469 28.433594 38.707031 28.742188 38.707031 L 37.335938 38.707031 C 37.644531 38.707031 37.894531 38.480469 37.894531 38.144531 L 37.894531 37.054688 C 37.894531 36.605469 37.699219 36.1875 37.390625 35.878906 C 37.082031 35.570312 36.691406 35.375 36.214844 35.375 L 33.585938 35.375 L 33.585938 31.707031 L 36.300781 31.707031 C 37.921875 31.707031 39.238281 30.363281 39.238281 28.742188 Z M 36.71875 24.933594 C 35.738281 25.914062 34.425781 26.472656 33.023438 26.472656 C 31.652344 26.472656 30.335938 25.914062 29.355469 24.933594 C 28.378906 23.953125 27.816406 22.640625 27.816406 21.238281 C 27.816406 19.867188 28.378906 18.550781 29.355469 17.570312 C 30.335938 16.59375 31.652344 16.03125 33.023438 16.03125 C 34.425781 16.03125 35.738281 16.59375 36.71875 17.570312 C 37.699219 18.550781 38.257812 19.867188 38.257812 21.238281 C 38.257812 22.640625 37.699219 23.953125 36.71875 24.933594 Z M 36.71875 24.933594 " fill-opacity="1" fill-rule="evenodd"/></g><path fill="#1e3d84" d="M 35.933594 24.148438 C 36.664062 23.394531 37.140625 22.386719 37.140625 21.238281 C 37.140625 20.121094 36.664062 19.082031 35.933594 18.355469 C 35.179688 17.601562 34.171875 17.152344 33.023438 17.152344 C 31.90625 17.152344 30.867188 17.601562 30.140625 18.355469 C 29.414062 19.082031 28.9375 20.121094 28.9375 21.238281 C 28.9375 22.386719 29.414062 23.394531 30.140625 24.148438 C 30.867188 24.878906 31.90625 25.355469 33.023438 25.355469 C 34.171875 25.355469 35.179688 24.878906 35.933594 24.148438 Z M 33.023438 23.28125 C 32.464844 23.28125 31.960938 23.058594 31.597656 22.695312 C 31.234375 22.332031 30.980469 21.800781 30.980469 21.238281 C 30.980469 20.679688 31.234375 20.175781 31.597656 19.8125 C 31.960938 19.417969 32.464844 19.195312 33.023438 19.195312 C 33.613281 19.195312 34.117188 19.417969 34.480469 19.8125 C 34.84375 20.175781 35.066406 20.679688 35.066406 21.238281 C 35.066406 21.800781 34.84375 22.332031 34.480469 22.695312 C 34.117188 23.058594 33.613281 23.28125 33.023438 23.28125 Z M 33.023438 23.28125 " fill-opacity="1" fill-rule="evenodd"/></svg>