<svg xmlns="http://www.w3.org/2000/svg" xmlns:xlink="http://www.w3.org/1999/xlink" width="67" zoomAndPan="magnify" viewBox="0 0 50.25 50.249998" height="67" preserveAspectRatio="xMidYMid meet" version="1.0"><defs><clipPath id="f198e3f0b1"><path d="M 1.089844 2.539062 L 7 2.539062 L 7 33 L 1.089844 33 Z M 1.089844 2.539062 " clip-rule="nonzero"/></clipPath><clipPath id="2d7afca9dd"><path d="M 32 2.539062 L 47 2.539062 L 47 29 L 32 29 Z M 32 2.539062 " clip-rule="nonzero"/></clipPath><clipPath id="58ec1997c9"><path d="M 4 2.539062 L 35 2.539062 L 35 33 L 4 33 Z M 4 2.539062 " clip-rule="nonzero"/></clipPath><clipPath id="5a601e93a6"><path d="M 43 27 L 48.382812 27 L 48.382812 34 L 43 34 Z M 43 27 " clip-rule="nonzero"/></clipPath><clipPath id="1b10e26e9c"><path d="M 30 18 L 46 18 L 46 46.878906 L 30 46.878906 Z M 30 18 " clip-rule="nonzero"/></clipPath></defs><g clip-path="url(#f198e3f0b1)"><path fill="#2437eb" d="M 6.101562 2.921875 C 5.136719 3.019531 4.269531 3.597656 3.886719 4.464844 C 1.089844 10.535156 1.089844 24.609375 3.886719 30.585938 C 4.269531 31.453125 5.136719 32.03125 6.101562 32.128906 C 2.34375 26.152344 2.34375 8.898438 6.101562 2.921875 Z M 6.101562 2.921875 " fill-opacity="1" fill-rule="nonzero"/></g><g clip-path="url(#2d7afca9dd)"><path fill="#2437eb" d="M 33.960938 28.5625 C 35.210938 27.597656 36.660156 27.5 37.140625 27.40625 C 37.429688 27.308594 37.429688 27.117188 37.332031 26.152344 C 37.140625 23.933594 37.332031 23.066406 37.332031 22.683594 C 37.042969 22.199219 36.851562 21.523438 36.851562 20.851562 L 36.851562 15.257812 L 43.695312 15.257812 L 43.695312 20.851562 C 43.695312 21.523438 43.503906 22.105469 43.308594 22.585938 C 43.695312 24.898438 43.503906 26.34375 43.597656 27.210938 C 44.273438 27.210938 44.949219 27.308594 45.621094 27.40625 C 47.070312 20.5625 46.78125 10.152344 44.753906 4.753906 C 44.273438 3.597656 43.308594 2.921875 42.25 2.921875 L 32.609375 2.921875 C 35.597656 8.414062 35.789062 21.234375 33.960938 28.5625 Z M 33.960938 28.5625 " fill-opacity="1" fill-rule="nonzero"/></g><g clip-path="url(#58ec1997c9)"><path fill="#2437eb" d="M 31.644531 32.128906 C 31.644531 32.03125 31.644531 31.9375 31.742188 31.839844 C 31.933594 31.164062 32.222656 30.585938 32.511719 30.007812 C 35.019531 22.972656 34.730469 8.03125 31.550781 2.824219 L 7.257812 2.824219 C 3.304688 8.03125 3.304688 26.921875 7.257812 32.03125 L 31.644531 32.03125 Z M 14.296875 28.660156 L 11.5 28.660156 C 11.113281 28.660156 10.824219 28.367188 10.824219 27.984375 C 10.824219 27.597656 11.113281 27.308594 11.5 27.308594 L 14.296875 27.308594 C 14.679688 27.308594 14.96875 27.597656 14.96875 27.984375 C 14.96875 28.367188 14.585938 28.660156 14.296875 28.660156 Z M 14.296875 25.382812 L 11.5 25.382812 C 11.113281 25.382812 10.824219 25.089844 10.824219 24.707031 C 10.824219 24.320312 11.113281 24.03125 11.5 24.03125 L 14.296875 24.03125 C 14.679688 24.03125 14.96875 24.320312 14.96875 24.707031 C 14.96875 25.089844 14.585938 25.382812 14.296875 25.382812 Z M 14.296875 22.105469 L 11.5 22.105469 C 11.113281 22.105469 10.824219 21.8125 10.824219 21.429688 C 10.824219 21.042969 11.113281 20.753906 11.5 20.753906 L 14.296875 20.753906 C 14.679688 20.753906 14.96875 21.042969 14.96875 21.429688 C 14.96875 21.8125 14.585938 22.105469 14.296875 22.105469 Z M 20.753906 28.660156 L 17.957031 28.660156 C 17.574219 28.660156 17.285156 28.367188 17.285156 27.984375 C 17.285156 27.597656 17.574219 27.308594 17.957031 27.308594 L 20.753906 27.308594 C 21.140625 27.308594 21.429688 27.597656 21.429688 27.984375 C 21.429688 28.367188 21.140625 28.660156 20.753906 28.660156 Z M 20.753906 25.382812 L 17.957031 25.382812 C 17.574219 25.382812 17.285156 25.089844 17.285156 24.707031 C 17.285156 24.320312 17.574219 24.03125 17.957031 24.03125 L 20.753906 24.03125 C 21.140625 24.03125 21.429688 24.320312 21.429688 24.707031 C 21.429688 25.089844 21.140625 25.382812 20.753906 25.382812 Z M 20.753906 22.105469 L 17.957031 22.105469 C 17.574219 22.105469 17.285156 21.8125 17.285156 21.429688 C 17.285156 21.042969 17.574219 20.753906 17.957031 20.753906 L 20.753906 20.753906 C 21.140625 20.753906 21.429688 21.042969 21.429688 21.429688 C 21.429688 21.8125 21.140625 22.105469 20.753906 22.105469 Z M 27.308594 28.660156 L 24.511719 28.660156 C 24.128906 28.660156 23.839844 28.367188 23.839844 27.984375 C 23.839844 27.597656 24.128906 27.308594 24.511719 27.308594 L 27.308594 27.308594 C 27.695312 27.308594 27.984375 27.597656 27.984375 27.984375 C 27.984375 28.367188 27.695312 28.660156 27.308594 28.660156 Z M 27.308594 25.382812 L 24.511719 25.382812 C 24.128906 25.382812 23.839844 25.089844 23.839844 24.707031 C 23.839844 24.320312 24.128906 24.03125 24.511719 24.03125 L 27.308594 24.03125 C 27.695312 24.03125 27.984375 24.320312 27.984375 24.707031 C 27.984375 25.089844 27.695312 25.382812 27.308594 25.382812 Z M 27.308594 22.105469 L 24.511719 22.105469 C 24.128906 22.105469 23.839844 21.8125 23.839844 21.429688 C 23.839844 21.042969 24.128906 20.753906 24.511719 20.753906 L 27.308594 20.753906 C 27.695312 20.753906 27.984375 21.042969 27.984375 21.429688 C 27.984375 21.8125 27.695312 22.105469 27.308594 22.105469 Z M 28.5625 16.128906 C 28.5625 16.707031 28.175781 17.089844 27.597656 17.089844 L 11.210938 17.089844 C 10.632812 17.089844 10.246094 16.707031 10.246094 16.128906 L 10.246094 7.355469 C 10.246094 6.777344 10.632812 6.390625 11.210938 6.390625 L 27.597656 6.390625 C 28.175781 6.390625 28.5625 6.777344 28.5625 7.355469 Z M 28.5625 16.128906 " fill-opacity="1" fill-rule="nonzero"/></g><path fill="#2437eb" d="M 45.71875 34.054688 C 45.914062 35.019531 46.105469 35.984375 46.203125 36.949219 C 46.972656 36.660156 46.972656 35.886719 46.972656 35.792969 C 47.070312 34.828125 46.203125 34.34375 45.71875 34.054688 Z M 45.71875 34.054688 " fill-opacity="1" fill-rule="nonzero"/><g clip-path="url(#5a601e93a6)"><path fill="#2437eb" d="M 46.105469 31.066406 C 48.320312 30.777344 47.742188 29.527344 47.742188 29.527344 C 47.453125 28.367188 45.238281 28.078125 43.792969 27.984375 C 43.984375 28.5625 44.175781 29.332031 44.464844 30.007812 C 44.851562 31.261719 45.332031 32.515625 45.621094 33.863281 C 47.839844 34.054688 47.9375 32.804688 47.9375 32.804688 C 48.417969 31.644531 46.105469 31.066406 46.105469 31.066406 Z M 46.105469 31.066406 " fill-opacity="1" fill-rule="nonzero"/></g><g clip-path="url(#1b10e26e9c)"><path fill="#2437eb" d="M 40.707031 18.921875 C 41.476562 19.789062 41.382812 20.65625 41.1875 21.042969 C 40.996094 21.621094 40.226562 21.332031 39.453125 21.429688 C 38.777344 21.429688 38.488281 20.078125 38.875 19.210938 C 38.199219 20.078125 38.296875 21.71875 38.199219 23.164062 C 38.007812 26.828125 38.972656 27.789062 37.332031 28.367188 C 37.332031 28.367188 34.054688 28.273438 32.707031 31.550781 C 32.128906 32.996094 32.320312 33.863281 32.707031 39.550781 C 32.898438 41.960938 31.933594 43.117188 30.875 46.683594 L 43.019531 46.683594 C 43.019531 46.683594 43.597656 42.539062 44.371094 40.898438 C 46.585938 36.175781 42.636719 29.71875 42.441406 26.632812 C 42.539062 26.632812 42.730469 20.175781 40.707031 18.921875 Z M 40.707031 18.921875 " fill-opacity="1" fill-rule="nonzero"/></g></svg>