<svg xmlns="http://www.w3.org/2000/svg" xmlns:xlink="http://www.w3.org/1999/xlink" width="67" zoomAndPan="magnify" viewBox="0 0 50.25 50.249998" height="67" preserveAspectRatio="xMidYMid meet" version="1.0"><defs><clipPath id="fd9d88d975"><path d="M 40 25 L 48.382812 25 L 48.382812 40 L 40 40 Z M 40 25 " clip-rule="nonzero"/></clipPath><clipPath id="35ef14e034"><path d="M 28.453125 39.175781 L 32.046875 39.175781 L 32.046875 41.28125 L 28.453125 41.28125 Z M 28.453125 39.175781 " clip-rule="nonzero"/></clipPath><clipPath id="dad801aa4c"><path d="M 1.125 15.71875 L 14.800781 15.71875 L 14.800781 28.449219 L 1.125 28.449219 Z M 1.125 15.71875 " clip-rule="nonzero"/></clipPath><clipPath id="5db4bdac6c"><path d="M 6 8.21875 L 42 8.21875 L 42 27 L 6 27 Z M 6 8.21875 " clip-rule="nonzero"/></clipPath></defs><path fill="#2437eb" d="M 26.644531 33 L 26.644531 33.644531 C 26.121094 33.378906 25.734375 32.777344 25.609375 32.039062 C 26.125 32.050781 26.5625 32.457031 26.644531 33 " fill-opacity="1" fill-rule="nonzero"/><g clip-path="url(#fd9d88d975)"><path fill="#2437eb" d="M 45.671875 35.128906 L 45.726562 35.105469 C 46.230469 34.875 46.554688 34.371094 46.554688 33.816406 L 46.554688 31.007812 C 46.554688 30.226562 45.921875 29.59375 45.140625 29.59375 L 41.808594 29.59375 C 41.507812 29.59375 41.214844 29.65625 40.941406 29.78125 C 40.910156 29.796875 40.867188 29.816406 40.820312 29.835938 L 40.820312 27.609375 C 40.820312 26.671875 41.578125 25.914062 42.515625 25.914062 L 46.722656 25.914062 C 47.660156 25.914062 48.417969 26.671875 48.417969 27.609375 L 48.417969 37.394531 C 48.417969 38.328125 47.660156 39.089844 46.722656 39.089844 L 42.515625 39.089844 C 41.578125 39.089844 40.820312 38.328125 40.820312 37.394531 L 40.820312 36.421875 L 45.613281 35.144531 L 45.671875 35.128906 " fill-opacity="1" fill-rule="nonzero"/></g><path fill="#2437eb" d="M 33.824219 34.0625 C 34.226562 33.726562 34.542969 33.226562 34.710938 32.632812 C 36.878906 31.949219 39.628906 31.0625 40.820312 30.609375 C 40.996094 30.542969 41.140625 30.484375 41.242188 30.4375 C 41.421875 30.355469 41.613281 30.316406 41.808594 30.316406 L 45.140625 30.316406 C 45.285156 30.316406 45.417969 30.359375 45.527344 30.433594 C 45.566406 30.457031 45.601562 30.484375 45.632812 30.515625 C 45.664062 30.546875 45.691406 30.582031 45.714844 30.621094 C 45.765625 30.695312 45.800781 30.777344 45.820312 30.867188 C 45.828125 30.914062 45.835938 30.960938 45.835938 31.007812 L 45.835938 33.816406 C 45.835938 33.886719 45.824219 33.949219 45.804688 34.015625 C 45.785156 34.078125 45.757812 34.136719 45.722656 34.191406 C 45.652344 34.300781 45.550781 34.390625 45.425781 34.449219 L 40.820312 35.675781 L 33.796875 37.546875 L 33.824219 34.0625 " fill-opacity="1" fill-rule="nonzero"/><path fill="#2437eb" d="M 32.316406 32.769531 C 32.355469 32.84375 32.402344 32.910156 32.453125 32.972656 C 32.460938 32.984375 32.472656 32.992188 32.480469 33.003906 C 32.523438 33.050781 32.566406 33.09375 32.613281 33.128906 C 32.640625 33.148438 32.671875 33.167969 32.703125 33.1875 C 32.734375 33.203125 32.765625 33.21875 32.800781 33.234375 C 32.828125 33.246094 32.859375 33.253906 32.890625 33.261719 C 32.925781 33.269531 32.960938 33.277344 32.992188 33.277344 C 33.019531 33.28125 33.042969 33.28125 33.070312 33.277344 C 33.085938 33.277344 33.101562 33.277344 33.117188 33.273438 C 33.132812 33.273438 33.152344 33.269531 33.167969 33.265625 C 33.183594 33.261719 33.199219 33.257812 33.214844 33.253906 C 33.234375 33.25 33.25 33.246094 33.265625 33.238281 C 33.28125 33.234375 33.296875 33.226562 33.3125 33.222656 C 33.328125 33.214844 33.347656 33.207031 33.363281 33.199219 C 33.378906 33.191406 33.394531 33.183594 33.40625 33.175781 C 33.421875 33.164062 33.441406 33.15625 33.457031 33.144531 C 33.460938 33.140625 33.464844 33.136719 33.472656 33.132812 C 33.480469 33.128906 33.488281 33.121094 33.5 33.113281 C 33.515625 33.101562 33.53125 33.089844 33.546875 33.078125 C 33.558594 33.066406 33.570312 33.054688 33.585938 33.042969 C 33.601562 33.027344 33.617188 33.011719 33.628906 32.996094 C 33.640625 32.984375 33.652344 32.976562 33.664062 32.960938 C 33.683594 32.941406 33.695312 32.925781 33.710938 32.90625 C 33.722656 32.894531 33.734375 32.878906 33.746094 32.863281 C 33.757812 32.847656 33.773438 32.828125 33.785156 32.808594 C 33.796875 32.792969 33.808594 32.777344 33.816406 32.757812 C 33.824219 32.75 33.828125 32.742188 33.832031 32.734375 C 33.839844 32.722656 33.847656 32.710938 33.855469 32.699219 C 33.863281 32.679688 33.875 32.664062 33.882812 32.644531 C 33.894531 32.625 33.90625 32.601562 33.917969 32.578125 C 33.925781 32.5625 33.933594 32.542969 33.945312 32.523438 C 33.953125 32.5 33.964844 32.476562 33.972656 32.453125 C 33.980469 32.433594 33.988281 32.414062 33.996094 32.394531 C 34.003906 32.371094 34.011719 32.34375 34.019531 32.316406 C 34.027344 32.296875 34.035156 32.277344 34.039062 32.257812 C 34.046875 32.230469 34.054688 32.203125 34.058594 32.175781 C 34.066406 32.15625 34.070312 32.136719 34.074219 32.117188 C 34.078125 32.105469 34.078125 32.089844 34.082031 32.074219 C 34.085938 32.058594 34.089844 32.039062 34.089844 32.019531 C 34.09375 32.003906 34.097656 31.988281 34.101562 31.96875 C 34.109375 31.917969 34.113281 31.871094 34.117188 31.816406 C 34.121094 31.765625 34.121094 31.714844 34.121094 31.664062 C 34.121094 31.605469 34.121094 31.550781 34.117188 31.496094 C 34.109375 31.402344 34.097656 31.308594 34.078125 31.222656 C 34.066406 31.164062 34.050781 31.105469 34.035156 31.050781 C 34.011719 30.976562 33.984375 30.902344 33.953125 30.832031 C 33.898438 30.710938 33.828125 30.601562 33.753906 30.507812 C 33.605469 30.335938 33.421875 30.222656 33.21875 30.210938 C 33.191406 30.207031 33.167969 30.207031 33.140625 30.210938 C 33.125 30.210938 33.109375 30.210938 33.09375 30.214844 C 33.078125 30.214844 33.058594 30.21875 33.042969 30.222656 C 33.027344 30.226562 33.011719 30.226562 32.996094 30.234375 C 32.976562 30.238281 32.960938 30.242188 32.945312 30.25 C 32.929688 30.253906 32.914062 30.261719 32.898438 30.265625 C 32.882812 30.273438 32.863281 30.28125 32.847656 30.289062 C 32.832031 30.296875 32.820312 30.304688 32.804688 30.3125 C 32.789062 30.324219 32.769531 30.335938 32.753906 30.34375 C 32.742188 30.355469 32.726562 30.363281 32.714844 30.375 C 32.695312 30.386719 32.679688 30.398438 32.664062 30.410156 C 32.652344 30.421875 32.640625 30.433594 32.625 30.445312 C 32.609375 30.460938 32.59375 30.476562 32.582031 30.492188 C 32.566406 30.503906 32.554688 30.515625 32.542969 30.53125 C 32.527344 30.546875 32.515625 30.5625 32.5 30.582031 C 32.488281 30.59375 32.476562 30.609375 32.464844 30.625 C 32.453125 30.640625 32.4375 30.660156 32.425781 30.679688 C 32.414062 30.695312 32.402344 30.710938 32.394531 30.730469 C 32.378906 30.75 32.367188 30.769531 32.355469 30.789062 C 32.347656 30.808594 32.335938 30.824219 32.328125 30.84375 C 32.316406 30.863281 32.304688 30.886719 32.292969 30.910156 C 32.285156 30.925781 32.277344 30.945312 32.269531 30.964844 C 32.257812 30.988281 32.246094 31.011719 32.238281 31.035156 C 32.230469 31.054688 32.222656 31.074219 32.214844 31.09375 C 32.207031 31.117188 32.199219 31.144531 32.191406 31.171875 C 32.183594 31.191406 32.175781 31.210938 32.171875 31.230469 C 32.164062 31.257812 32.15625 31.285156 32.152344 31.3125 C 32.144531 31.332031 32.140625 31.351562 32.136719 31.371094 C 32.128906 31.402344 32.125 31.433594 32.121094 31.46875 C 32.117188 31.484375 32.113281 31.5 32.109375 31.519531 C 32.105469 31.566406 32.097656 31.613281 32.09375 31.660156 C 32.09375 31.664062 32.09375 31.667969 32.09375 31.671875 C 32.066406 32.03125 32.128906 32.371094 32.253906 32.648438 C 32.273438 32.691406 32.292969 32.730469 32.316406 32.769531 Z M 27.863281 29.148438 L 36.035156 24.148438 C 35.226562 25.097656 33.640625 27.066406 33.363281 28.253906 C 33.316406 28.457031 33.214844 28.871094 33.160156 29.101562 C 33.132812 29.203125 33.117188 29.269531 33.117188 29.269531 C 33.117188 29.269531 32.894531 29.199219 32.632812 29.140625 C 32.59375 29.121094 32.550781 29.105469 32.511719 29.09375 C 32.402344 29.058594 32.289062 29.03125 32.171875 29.023438 C 31.117188 28.945312 30.179688 30.039062 30.078125 31.460938 C 30.003906 32.457031 30.398438 33.300781 31 33.742188 C 31.121094 33.828125 31.25 33.898438 31.382812 33.953125 C 31.492188 33.996094 31.605469 34.03125 31.722656 34.050781 C 31.769531 34.058594 31.816406 34.066406 31.863281 34.070312 C 31.972656 34.074219 32.074219 34.070312 32.175781 34.058594 C 32.132812 34.039062 32.085938 34.023438 32.046875 34 C 31.9375 33.945312 31.839844 33.878906 31.746094 33.800781 C 31.738281 33.792969 31.730469 33.785156 31.722656 33.777344 C 31.589844 33.660156 31.472656 33.523438 31.371094 33.363281 C 31.308594 33.261719 31.25 33.148438 31.199219 33.027344 C 31.191406 33.015625 31.1875 33.003906 31.179688 32.988281 C 31.15625 32.929688 31.132812 32.863281 31.113281 32.796875 C 31 32.453125 30.953125 32.066406 30.984375 31.660156 C 30.984375 31.625 30.992188 31.589844 30.992188 31.554688 C 31 31.511719 31.003906 31.464844 31.007812 31.421875 C 31.011719 31.394531 31.019531 31.371094 31.023438 31.34375 C 31.03125 31.292969 31.039062 31.242188 31.050781 31.195312 C 31.058594 31.164062 31.066406 31.132812 31.074219 31.105469 C 31.085938 31.0625 31.097656 31.015625 31.109375 30.972656 C 31.117188 30.941406 31.128906 30.914062 31.140625 30.882812 C 31.152344 30.84375 31.167969 30.804688 31.183594 30.765625 C 31.195312 30.734375 31.207031 30.703125 31.21875 30.675781 C 31.234375 30.636719 31.25 30.601562 31.269531 30.566406 C 31.28125 30.535156 31.296875 30.507812 31.3125 30.480469 C 31.332031 30.445312 31.347656 30.414062 31.367188 30.378906 C 31.382812 30.351562 31.402344 30.324219 31.417969 30.300781 C 31.4375 30.269531 31.457031 30.238281 31.476562 30.207031 C 31.496094 30.183594 31.515625 30.15625 31.535156 30.132812 C 31.554688 30.105469 31.578125 30.074219 31.597656 30.050781 C 31.621094 30.027344 31.640625 30.003906 31.660156 29.980469 C 31.683594 29.957031 31.707031 29.929688 31.730469 29.90625 C 31.753906 29.886719 31.773438 29.863281 31.796875 29.84375 C 31.820312 29.824219 31.847656 29.800781 31.871094 29.78125 C 31.878906 29.773438 31.886719 29.765625 31.894531 29.761719 C 31.910156 29.75 31.925781 29.738281 31.941406 29.726562 C 31.96875 29.707031 31.992188 29.6875 32.019531 29.671875 C 32.042969 29.65625 32.070312 29.640625 32.09375 29.625 C 32.121094 29.609375 32.148438 29.59375 32.175781 29.582031 C 32.203125 29.566406 32.226562 29.554688 32.253906 29.546875 C 32.28125 29.53125 32.308594 29.519531 32.339844 29.511719 C 32.363281 29.5 32.390625 29.492188 32.417969 29.484375 C 32.445312 29.476562 32.476562 29.46875 32.507812 29.460938 C 32.535156 29.453125 32.558594 29.449219 32.585938 29.445312 C 32.617188 29.441406 32.648438 29.4375 32.679688 29.433594 C 32.707031 29.429688 32.734375 29.429688 32.761719 29.425781 C 32.808594 29.425781 32.855469 29.425781 32.902344 29.429688 C 32.976562 29.433594 33.050781 29.449219 33.125 29.464844 C 33.332031 29.519531 33.523438 29.617188 33.695312 29.757812 C 34.21875 30.195312 34.539062 31.007812 34.476562 31.914062 C 34.472656 31.925781 34.472656 31.941406 34.46875 31.953125 C 34.464844 32.019531 34.457031 32.085938 34.449219 32.148438 C 34.445312 32.175781 34.4375 32.203125 34.433594 32.230469 C 34.425781 32.28125 34.417969 32.328125 34.40625 32.378906 C 34.398438 32.410156 34.390625 32.4375 34.382812 32.46875 C 34.371094 32.511719 34.359375 32.554688 34.347656 32.597656 C 34.339844 32.628906 34.328125 32.660156 34.316406 32.691406 C 34.308594 32.714844 34.300781 32.742188 34.289062 32.765625 C 34.285156 32.78125 34.28125 32.792969 34.277344 32.808594 C 34.261719 32.839844 34.25 32.867188 34.238281 32.898438 C 34.222656 32.933594 34.207031 32.972656 34.1875 33.003906 C 34.175781 33.035156 34.160156 33.0625 34.144531 33.09375 C 34.125 33.125 34.109375 33.160156 34.089844 33.191406 C 34.074219 33.21875 34.054688 33.246094 34.039062 33.273438 C 34.019531 33.304688 34 33.335938 33.980469 33.363281 C 33.960938 33.390625 33.941406 33.414062 33.921875 33.441406 C 33.902344 33.46875 33.878906 33.496094 33.859375 33.523438 C 33.847656 33.535156 33.835938 33.546875 33.824219 33.558594 C 33.816406 33.570312 33.804688 33.582031 33.796875 33.59375 C 33.773438 33.617188 33.75 33.640625 33.726562 33.664062 C 33.703125 33.6875 33.683594 33.707031 33.660156 33.726562 C 33.636719 33.75 33.613281 33.773438 33.585938 33.792969 C 33.5625 33.8125 33.539062 33.828125 33.515625 33.84375 C 33.488281 33.863281 33.464844 33.882812 33.4375 33.902344 C 33.414062 33.917969 33.386719 33.929688 33.363281 33.945312 C 33.335938 33.960938 33.308594 33.976562 33.28125 33.992188 C 33.257812 34.003906 33.230469 34.015625 33.203125 34.027344 C 33.183594 34.035156 33.167969 34.042969 33.148438 34.050781 C 33.148438 34.050781 33.144531 34.429688 33.144531 34.429688 L 33.117188 37.726562 L 33.117188 37.785156 C 32.871094 38.179688 32.078125 38.492188 31 38.59375 C 30.753906 38.617188 30.492188 38.632812 30.21875 38.632812 C 28.753906 38.632812 27.625 38.269531 27.320312 37.785156 L 27.320312 32.949219 C 27.316406 32.902344 27.308594 32.867188 27.300781 32.828125 C 27.296875 32.804688 27.292969 32.78125 27.285156 32.761719 C 27.28125 32.742188 27.277344 32.722656 27.273438 32.703125 C 27.261719 32.664062 27.25 32.625 27.238281 32.585938 C 27.230469 32.5625 27.222656 32.542969 27.214844 32.519531 C 27.203125 32.484375 27.1875 32.449219 27.171875 32.417969 C 27.164062 32.394531 27.152344 32.375 27.144531 32.355469 C 27.125 32.320312 27.109375 32.289062 27.089844 32.257812 C 27.082031 32.238281 27.070312 32.21875 27.058594 32.199219 C 27.039062 32.167969 27.015625 32.132812 26.992188 32.101562 C 26.980469 32.085938 26.972656 32.070312 26.960938 32.054688 C 26.929688 32.015625 26.894531 31.976562 26.863281 31.9375 C 26.859375 31.933594 26.855469 31.925781 26.851562 31.921875 C 26.8125 31.882812 26.769531 31.839844 26.726562 31.804688 C 26.722656 31.796875 26.710938 31.789062 26.707031 31.785156 C 26.699219 31.78125 26.695312 31.773438 26.6875 31.769531 C 26.65625 31.746094 26.628906 31.71875 26.597656 31.695312 C 26.578125 31.683594 26.5625 31.671875 26.542969 31.660156 C 26.515625 31.640625 26.484375 31.621094 26.453125 31.601562 C 26.433594 31.589844 26.414062 31.582031 26.394531 31.570312 C 26.363281 31.554688 26.332031 31.539062 26.300781 31.523438 C 26.28125 31.515625 26.261719 31.503906 26.242188 31.496094 C 26.207031 31.480469 26.171875 31.46875 26.136719 31.457031 C 26.117188 31.449219 26.101562 31.441406 26.082031 31.4375 C 26.035156 31.421875 25.992188 31.414062 25.945312 31.402344 C 25.933594 31.402344 25.925781 31.398438 25.914062 31.394531 C 25.859375 31.382812 25.800781 31.375 25.742188 31.371094 C 25.726562 31.371094 25.710938 31.371094 25.695312 31.367188 C 25.660156 31.367188 25.628906 31.363281 25.59375 31.363281 C 25.585938 31.363281 25.582031 31.367188 25.574219 31.367188 C 25.527344 31.367188 25.480469 31.371094 25.4375 31.375 C 25.414062 31.375 25.390625 31.375 25.371094 31.378906 C 25.300781 31.390625 25.234375 31.402344 25.164062 31.417969 C 25.023438 31.457031 24.878906 31.492188 24.738281 31.527344 C 24.390625 31.617188 24.050781 31.707031 23.757812 31.78125 C 23.644531 31.8125 23.535156 31.839844 23.4375 31.863281 C 23.433594 31.867188 23.425781 31.867188 23.421875 31.867188 L 25.765625 30.433594 L 27.863281 29.148438 " fill-opacity="1" fill-rule="nonzero"/><g clip-path="url(#35ef14e034)"><path fill="#2437eb" d="M 28.480469 40.765625 L 28.480469 39.207031 C 28.976562 39.328125 29.582031 39.398438 30.25 39.398438 C 30.921875 39.398438 31.523438 39.328125 32.023438 39.207031 L 32.023438 40.765625 C 31.835938 41.0625 31.148438 41.28125 30.25 41.28125 C 29.355469 41.28125 28.664062 41.0625 28.480469 40.765625 " fill-opacity="1" fill-rule="nonzero"/></g><path fill="#2437eb" d="M 33.246094 30.90625 C 33.453125 30.921875 33.664062 31.261719 33.664062 31.691406 C 33.664062 31.722656 33.664062 31.75 33.664062 31.78125 C 33.648438 31.960938 33.601562 32.117188 33.535156 32.246094 C 33.425781 32.464844 33.261719 32.597656 33.121094 32.585938 C 33.117188 32.585938 33.109375 32.582031 33.101562 32.582031 C 33.03125 32.570312 32.960938 32.523438 32.902344 32.445312 C 32.773438 32.289062 32.679688 32.019531 32.703125 31.710938 C 32.738281 31.238281 33.023438 30.890625 33.246094 30.90625 " fill-opacity="1" fill-rule="nonzero"/><g clip-path="url(#dad801aa4c)"><path fill="#2437eb" d="M 2.03125 16.457031 C 2.476562 16.054688 3.042969 15.804688 3.65625 15.761719 C 3.730469 15.753906 3.804688 15.75 3.878906 15.75 L 5.109375 15.75 C 5.113281 15.75 12.320312 15.75 12.320312 15.75 C 12.480469 15.75 12.628906 15.769531 12.773438 15.796875 C 13.652344 15.984375 14.261719 16.710938 14.769531 17.570312 L 7.03125 17.570312 C 6.835938 17.570312 6.648438 17.597656 6.46875 17.648438 C 6.234375 17.710938 6.019531 17.808594 5.828125 17.9375 C 5.136719 18.402344 4.734375 19.246094 4.898438 20.140625 L 6.449219 28.417969 L 6.195312 28.417969 L 5.988281 28.050781 L 1.460938 20.003906 C 0.976562 19.140625 0.964844 18.097656 1.4375 17.21875 C 1.59375 16.929688 1.796875 16.671875 2.03125 16.457031 " fill-opacity="1" fill-rule="nonzero"/></g><path fill="#2437eb" d="M 18.175781 32.828125 C 18.328125 32.828125 18.476562 32.808594 18.621094 32.78125 C 18.859375 32.730469 19.085938 32.640625 19.289062 32.519531 C 20.035156 32.070312 20.480469 31.191406 20.308594 30.261719 L 19.957031 28.394531 L 19.667969 26.832031 L 19.695312 26.886719 C 19.84375 27.152344 20.054688 27.367188 20.300781 27.523438 C 20.515625 27.65625 20.761719 27.742188 21.011719 27.777344 C 21.382812 27.828125 21.769531 27.765625 22.121094 27.570312 L 22.578125 27.320312 L 23.289062 26.929688 L 24.617188 26.199219 L 26.691406 25.054688 L 39.921875 17.773438 L 40.242188 19.496094 C 40.320312 19.914062 40.242188 20.320312 40.054688 20.660156 C 40.007812 20.742188 39.953125 20.824219 39.894531 20.898438 C 39.832031 20.976562 39.765625 21.046875 39.695312 21.109375 C 39.621094 21.175781 39.542969 21.234375 39.460938 21.285156 C 39.378906 21.339844 39.292969 21.382812 39.199219 21.421875 L 36.890625 22.835938 L 35.136719 23.910156 L 22.921875 31.382812 L 22.207031 31.820312 L 19.902344 33.230469 L 19.882812 33.210938 C 19.679688 33.332031 19.453125 33.417969 19.207031 33.460938 C 19.078125 33.488281 18.945312 33.503906 18.804688 33.503906 L 10.492188 33.503906 C 9.4375 33.503906 8.492188 32.972656 7.921875 32.148438 C 8.460938 32.574219 9.132812 32.828125 9.859375 32.828125 L 18.175781 32.828125 " fill-opacity="1" fill-rule="nonzero"/><path fill="#2437eb" d="M 8.335938 26.691406 C 8.5625 27.324219 8.875 27.902344 9.246094 28.414062 C 10.265625 29.816406 11.746094 30.703125 13.242188 30.703125 C 13.671875 30.703125 14.09375 30.628906 14.492188 30.484375 C 15.019531 30.296875 15.484375 29.996094 15.878906 29.601562 C 16.039062 29.441406 16.183594 29.265625 16.320312 29.078125 C 16.46875 28.867188 16.597656 28.640625 16.714844 28.402344 C 16.808594 28.203125 16.890625 27.996094 16.960938 27.78125 C 17.375 26.503906 17.328125 25.035156 16.824219 23.640625 C 15.976562 21.277344 13.957031 19.628906 11.921875 19.628906 C 11.921875 19.628906 11.921875 20.210938 11.921875 20.210938 L 11.921875 19.628906 C 11.488281 19.628906 11.066406 19.703125 10.667969 19.84375 C 10.097656 20.050781 9.605469 20.386719 9.203125 20.820312 C 9.046875 20.988281 8.90625 21.167969 8.777344 21.359375 C 7.863281 22.738281 7.636719 24.746094 8.335938 26.691406 Z M 7.414062 19.777344 C 7.570312 19.617188 7.742188 19.472656 7.929688 19.34375 C 8.507812 18.941406 9.210938 18.703125 9.980469 18.703125 L 12.964844 18.703125 C 14.039062 18.703125 15.042969 19.042969 15.871094 19.625 L 18.113281 23.882812 L 18.773438 27.425781 C 18.835938 27.753906 18.847656 28.082031 18.824219 28.398438 C 18.746094 29.289062 18.339844 30.101562 17.71875 30.699219 C 17.554688 30.851562 17.375 30.992188 17.1875 31.117188 C 16.625 31.480469 15.957031 31.695312 15.226562 31.695312 L 12.242188 31.695312 C 10.109375 31.695312 8.246094 30.359375 7.527344 28.417969 C 7.425781 28.152344 7.351562 27.875 7.296875 27.589844 L 6.433594 22.972656 C 6.203125 21.753906 6.617188 20.582031 7.414062 19.777344 " fill-opacity="1" fill-rule="nonzero"/><path fill="#2437eb" d="M 9.582031 21.261719 C 9.933594 20.871094 10.363281 20.574219 10.863281 20.394531 C 11.207031 20.269531 11.5625 20.210938 11.921875 20.210938 C 13.300781 20.210938 14.707031 21.09375 15.628906 22.53125 C 15.109375 22.035156 14.460938 21.746094 13.792969 21.746094 C 13.539062 21.746094 13.292969 21.789062 13.058594 21.871094 C 12.378906 22.117188 11.871094 22.667969 11.625 23.433594 C 11.609375 23.480469 11.597656 23.53125 11.582031 23.582031 C 11.503906 23.871094 11.46875 24.175781 11.472656 24.484375 C 11.476562 24.898438 11.550781 25.320312 11.695312 25.730469 C 12.175781 27.066406 13.289062 27.964844 14.464844 27.964844 C 14.71875 27.964844 14.96875 27.921875 15.203125 27.835938 C 15.214844 27.832031 15.226562 27.824219 15.238281 27.820312 C 15.933594 27.554688 16.429688 26.949219 16.652344 26.195312 C 16.617188 27.011719 16.414062 27.773438 16.058594 28.402344 C 16.015625 28.476562 15.972656 28.546875 15.925781 28.617188 C 15.796875 28.8125 15.65625 28.992188 15.496094 29.15625 C 15.160156 29.503906 14.757812 29.773438 14.296875 29.9375 C 13.953125 30.0625 13.597656 30.121094 13.242188 30.121094 C 12.070312 30.121094 10.878906 29.484375 9.980469 28.414062 C 9.527344 27.875 9.148438 27.226562 8.882812 26.496094 C 8.269531 24.785156 8.425781 23.035156 9.171875 21.816406 C 9.292969 21.617188 9.429688 21.429688 9.582031 21.261719 " fill-opacity="1" fill-rule="nonzero"/><path fill="#2437eb" d="M 15.003906 27.289062 C 14.945312 27.308594 14.886719 27.324219 14.828125 27.339844 C 14.808594 27.34375 14.796875 27.347656 14.785156 27.347656 C 14.726562 27.359375 14.671875 27.367188 14.617188 27.375 C 14.613281 27.375 14.609375 27.375 14.605469 27.375 C 14.558594 27.378906 14.511719 27.382812 14.464844 27.382812 C 14.453125 27.382812 14.441406 27.378906 14.429688 27.378906 C 14.410156 27.378906 14.386719 27.378906 14.363281 27.375 C 14.320312 27.375 14.28125 27.371094 14.242188 27.363281 C 14.21875 27.363281 14.195312 27.359375 14.171875 27.355469 C 14.128906 27.347656 14.085938 27.335938 14.046875 27.328125 C 14.023438 27.320312 14.003906 27.316406 13.984375 27.3125 C 13.949219 27.300781 13.914062 27.289062 13.878906 27.277344 C 13.859375 27.269531 13.839844 27.265625 13.820312 27.257812 C 13.8125 27.253906 13.804688 27.253906 13.800781 27.25 C 13.738281 27.226562 13.679688 27.199219 13.617188 27.167969 C 13.601562 27.160156 13.582031 27.148438 13.5625 27.140625 C 13.523438 27.117188 13.480469 27.09375 13.441406 27.070312 C 13.421875 27.054688 13.398438 27.042969 13.378906 27.027344 C 13.339844 27.003906 13.304688 26.976562 13.269531 26.953125 C 13.246094 26.9375 13.226562 26.917969 13.203125 26.902344 C 13.167969 26.875 13.132812 26.84375 13.097656 26.8125 C 13.078125 26.796875 13.058594 26.78125 13.042969 26.761719 C 12.992188 26.71875 12.945312 26.671875 12.898438 26.621094 C 12.894531 26.617188 12.890625 26.613281 12.886719 26.609375 C 12.839844 26.554688 12.789062 26.5 12.746094 26.4375 C 12.730469 26.421875 12.714844 26.402344 12.703125 26.382812 C 12.671875 26.339844 12.640625 26.296875 12.609375 26.253906 C 12.59375 26.230469 12.578125 26.207031 12.5625 26.183594 C 12.535156 26.140625 12.511719 26.097656 12.484375 26.050781 C 12.46875 26.027344 12.457031 26 12.441406 25.976562 C 12.417969 25.929688 12.394531 25.878906 12.367188 25.828125 C 12.359375 25.804688 12.347656 25.78125 12.335938 25.757812 C 12.304688 25.683594 12.273438 25.609375 12.246094 25.53125 C 12.214844 25.453125 12.191406 25.375 12.167969 25.296875 C 12.082031 24.988281 12.046875 24.679688 12.054688 24.382812 C 12.234375 24.75 12.542969 25 12.859375 25.0625 C 13 25.089844 13.140625 25.085938 13.273438 25.039062 C 13.761719 24.863281 13.972656 24.210938 13.746094 23.578125 C 13.566406 23.074219 13.160156 22.738281 12.753906 22.714844 C 12.898438 22.589844 13.066406 22.488281 13.253906 22.417969 C 13.3125 22.398438 13.371094 22.382812 13.429688 22.367188 C 13.445312 22.367188 13.460938 22.363281 13.476562 22.359375 C 13.53125 22.347656 13.585938 22.339844 13.644531 22.332031 C 13.648438 22.332031 13.648438 22.332031 13.652344 22.332031 C 13.699219 22.328125 13.746094 22.324219 13.792969 22.324219 C 13.804688 22.324219 13.816406 22.328125 13.828125 22.328125 C 13.851562 22.328125 13.875 22.328125 13.898438 22.332031 C 13.9375 22.332031 13.976562 22.335938 14.019531 22.34375 C 14.042969 22.347656 14.066406 22.347656 14.089844 22.355469 C 14.128906 22.359375 14.171875 22.371094 14.210938 22.378906 C 14.234375 22.386719 14.253906 22.390625 14.277344 22.394531 C 14.328125 22.410156 14.382812 22.429688 14.433594 22.449219 C 14.445312 22.453125 14.453125 22.453125 14.460938 22.457031 C 14.519531 22.480469 14.582031 22.507812 14.640625 22.539062 C 14.660156 22.546875 14.679688 22.558594 14.699219 22.570312 C 14.738281 22.589844 14.777344 22.613281 14.816406 22.636719 C 14.839844 22.652344 14.859375 22.664062 14.882812 22.679688 C 14.917969 22.703125 14.953125 22.730469 14.988281 22.757812 C 15.011719 22.773438 15.035156 22.789062 15.054688 22.804688 C 15.089844 22.835938 15.125 22.863281 15.164062 22.894531 C 15.179688 22.910156 15.199219 22.925781 15.21875 22.945312 C 15.265625 22.988281 15.3125 23.035156 15.355469 23.085938 C 15.363281 23.089844 15.367188 23.09375 15.371094 23.097656 C 15.421875 23.152344 15.46875 23.210938 15.515625 23.269531 C 15.53125 23.289062 15.542969 23.308594 15.558594 23.328125 C 15.589844 23.367188 15.621094 23.410156 15.648438 23.453125 C 15.664062 23.476562 15.679688 23.5 15.695312 23.527344 C 15.722656 23.566406 15.75 23.609375 15.773438 23.65625 C 15.789062 23.679688 15.804688 23.707031 15.816406 23.730469 C 15.84375 23.78125 15.867188 23.828125 15.890625 23.878906 C 15.902344 23.902344 15.914062 23.925781 15.921875 23.949219 C 15.957031 24.023438 15.988281 24.097656 16.015625 24.175781 C 16.5 25.519531 16.046875 26.914062 15.003906 27.289062 " fill-opacity="1" fill-rule="nonzero"/><path fill="#2437eb" d="M 6.160156 19.5 C 6.023438 19.519531 5.890625 19.429688 5.8125 19.285156 C 5.78125 19.230469 5.761719 19.164062 5.75 19.09375 C 5.71875 18.84375 5.847656 18.621094 6.042969 18.597656 C 6.144531 18.582031 6.242188 18.628906 6.320312 18.710938 C 6.386719 18.785156 6.4375 18.886719 6.453125 19.003906 C 6.484375 19.253906 6.355469 19.476562 6.160156 19.5 " fill-opacity="1" fill-rule="nonzero"/><path fill="#2437eb" d="M 8.050781 31.304688 C 8.015625 31.054688 8.144531 30.828125 8.339844 30.804688 C 8.535156 30.777344 8.714844 30.960938 8.75 31.210938 C 8.78125 31.460938 8.652344 31.683594 8.457031 31.710938 C 8.265625 31.734375 8.082031 31.554688 8.050781 31.304688 " fill-opacity="1" fill-rule="nonzero"/><path fill="#2437eb" d="M 19.382812 31.210938 C 19.414062 31.460938 19.285156 31.683594 19.089844 31.710938 C 18.898438 31.734375 18.714844 31.554688 18.679688 31.304688 C 18.648438 31.054688 18.777344 30.828125 18.972656 30.804688 C 19.164062 30.777344 19.347656 30.960938 19.382812 31.210938 " fill-opacity="1" fill-rule="nonzero"/><g clip-path="url(#5db4bdac6c)"><path fill="#2437eb" d="M 16.382812 19.070312 L 15.949219 18.246094 L 15.601562 17.582031 L 15.445312 17.285156 C 14.867188 16.183594 14.0625 15.054688 12.460938 15.054688 L 6.011719 15.054688 L 25.449219 9.6875 L 30.449219 8.304688 C 30.671875 8.253906 30.910156 8.226562 31.144531 8.226562 L 37.625 8.226562 C 38.777344 8.226562 39.765625 9.046875 39.976562 10.175781 L 41.054688 15.941406 C 41.105469 16.21875 40.976562 16.5 40.726562 16.640625 L 40.425781 16.804688 L 39.804688 17.148438 L 24.539062 25.523438 L 22.640625 26.5625 L 22.351562 26.722656 C 21.558594 27.164062 20.550781 26.878906 20.105469 26.085938 L 19.996094 25.890625 L 19.335938 24.722656 L 19.234375 24.527344 L 16.574219 19.4375 L 16.382812 19.070312 " fill-opacity="1" fill-rule="nonzero"/></g></svg>