<svg xmlns="http://www.w3.org/2000/svg" xmlns:xlink="http://www.w3.org/1999/xlink" width="67" zoomAndPan="magnify" viewBox="0 0 50.25 50.249998" height="67" preserveAspectRatio="xMidYMid meet" version="1.0"><defs><clipPath id="88fc565819"><path d="M 1.703125 1.28125 L 48.257812 1.28125 L 48.257812 47.835938 L 1.703125 47.835938 Z M 1.703125 1.28125 " clip-rule="nonzero"/></clipPath></defs><g clip-path="url(#88fc565819)"><path fill="#2437eb" d="M 23.53125 12.699219 C 23.523438 12.699219 23.507812 12.699219 23.5 12.699219 L 17.574219 12.699219 C 17.183594 12.699219 16.871094 12.382812 16.871094 11.996094 C 16.871094 11.605469 17.183594 11.289062 17.574219 11.289062 L 22.214844 11.289062 C 20.089844 8.679688 16.40625 9.757812 13.269531 11.335938 C 11.753906 12.097656 10.351562 12.980469 9.285156 13.65625 C 8.410156 14.207031 7.457031 14.839844 7.027344 14.839844 L 3.125 14.839844 L 3.125 26.183594 L 7.027344 26.183594 L 7.027344 26.1875 C 7.082031 26.1875 7.136719 26.195312 7.191406 26.207031 L 14.085938 27.867188 C 17 27.839844 17.53125 27.871094 18.152344 27.902344 C 18.714844 27.933594 19.355469 27.96875 22.183594 27.96875 C 23.175781 27.96875 23.949219 27.410156 24.101562 26.453125 C 24.140625 26.207031 24.128906 25.972656 24.074219 25.773438 C 24 25.53125 23.871094 25.347656 23.652344 25.292969 L 23.652344 25.289062 L 23.609375 25.277344 L 19.113281 25.378906 C 18.726562 25.386719 18.40625 25.078125 18.398438 24.691406 C 18.394531 24.300781 18.699219 23.980469 19.089844 23.972656 L 24.101562 23.863281 C 24.144531 23.859375 24.1875 23.863281 24.230469 23.871094 L 25.28125 23.804688 L 25.28125 23.808594 C 26.617188 23.722656 26.773438 20.996094 25.585938 21.003906 L 19.910156 21.113281 C 19.519531 21.121094 19.199219 20.8125 19.191406 20.425781 C 19.183594 20.039062 19.492188 19.71875 19.878906 19.710938 L 25.5625 19.597656 C 26.492188 19.578125 26.660156 18.351562 26.472656 17.648438 C 26.375 17.292969 26.1875 16.996094 25.910156 16.875 L 20.433594 16.921875 C 20.046875 16.921875 19.730469 16.613281 19.726562 16.222656 C 19.722656 15.835938 20.035156 15.523438 20.421875 15.515625 L 25.96875 15.46875 C 25.988281 15.46875 26.011719 15.46875 26.035156 15.46875 L 31.828125 15.46875 C 33.019531 15.46875 33.652344 14.015625 32.789062 13.148438 C 32.542969 12.902344 32.203125 12.75 31.828125 12.75 L 28.488281 12.773438 C 27.210938 12.792969 26.503906 12.804688 23.933594 12.714844 Z M 27.183594 20.316406 C 27.988281 21.277344 27.949219 22.871094 27.335938 23.941406 L 46.59375 23.941406 L 46.59375 4.925781 C 46.59375 3.699219 45.589844 2.695312 44.359375 2.695312 L 26.839844 2.695312 C 25.613281 2.695312 24.601562 3.699219 24.601562 4.925781 L 24.601562 11.328125 C 26.300781 11.382812 27.050781 11.382812 27.90625 11.375 C 28.800781 7.894531 31.953125 5.414062 35.597656 5.414062 C 39.988281 5.414062 43.542969 8.96875 43.542969 13.355469 C 43.542969 17.746094 39.988281 21.304688 35.597656 21.304688 C 32.546875 21.304688 29.804688 19.5625 28.472656 16.875 L 27.6875 16.875 C 28.148438 17.96875 28.007812 19.4375 27.183594 20.316406 Z M 25.410156 25.351562 L 25.417969 25.378906 C 25.664062 26.222656 25.488281 27.195312 24.992188 27.949219 C 24.878906 28.117188 24.75 28.277344 24.601562 28.425781 L 24.601562 44.367188 C 24.601562 45.597656 25.609375 46.605469 26.839844 46.605469 L 44.359375 46.605469 C 45.585938 46.605469 46.59375 45.597656 46.59375 44.367188 L 46.59375 25.351562 Z M 23.191406 29.246094 C 22.886719 29.328125 22.550781 29.375 22.183594 29.375 C 16.476562 29.375 19.734375 29.222656 14.011719 29.269531 C 13.945312 29.269531 13.878906 29.257812 13.820312 29.242188 L 6.957031 27.59375 L 2.417969 27.59375 C 2.03125 27.59375 1.714844 27.277344 1.714844 26.886719 L 1.714844 14.132812 C 1.714844 13.746094 2.03125 13.429688 2.417969 13.429688 L 6.914062 13.429688 C 7.179688 13.324219 7.765625 12.953125 8.535156 12.46875 C 9.632812 11.777344 11.066406 10.867188 12.640625 10.078125 C 16.265625 8.253906 20.546875 7.0625 23.191406 10.238281 L 23.191406 4.925781 C 23.191406 2.921875 24.832031 1.285156 26.839844 1.285156 L 44.359375 1.285156 C 46.363281 1.285156 48.003906 2.921875 48.003906 4.925781 L 48.003906 44.367188 C 48.003906 46.375 46.363281 48.011719 44.359375 48.011719 L 26.839844 48.011719 C 24.832031 48.011719 23.191406 46.375 23.191406 44.367188 Z M 29.375 11.351562 C 30.039062 11.34375 30.839844 11.335938 31.828125 11.335938 C 34.269531 11.335938 35.535156 14.3125 33.789062 16.058594 C 33.285156 16.5625 32.589844 16.875 31.828125 16.875 L 30.085938 16.875 C 32.332031 20.386719 37.257812 20.941406 40.222656 17.980469 C 42.773438 15.425781 42.773438 11.289062 40.222656 8.734375 C 37.832031 6.34375 34.003906 6.171875 31.410156 8.335938 C 30.472656 9.121094 29.757812 10.164062 29.375 11.351562 Z M 17.433594 45.097656 C 17.707031 45.371094 17.707031 45.816406 17.433594 46.09375 C 17.15625 46.367188 16.710938 46.367188 16.4375 46.09375 C 12.433594 42.089844 12.433594 35.601562 16.4375 31.59375 C 16.710938 31.320312 17.15625 31.320312 17.433594 31.59375 C 17.707031 31.871094 17.707031 32.316406 17.433594 32.589844 C 13.980469 36.046875 13.980469 41.644531 17.433594 45.097656 Z M 21.253906 41.277344 C 21.53125 41.554688 21.53125 42 21.253906 42.273438 C 20.980469 42.550781 20.53125 42.550781 20.257812 42.273438 C 18.367188 40.378906 18.367188 37.3125 20.257812 35.414062 C 20.53125 35.140625 20.980469 35.140625 21.253906 35.414062 C 21.53125 35.691406 21.53125 36.136719 21.253906 36.414062 C 19.914062 37.753906 19.914062 39.933594 21.253906 41.277344 Z M 19.34375 43.1875 C 19.621094 43.460938 19.621094 43.90625 19.34375 44.183594 C 19.070312 44.457031 18.625 44.457031 18.347656 44.183594 C 15.402344 41.234375 15.402344 36.453125 18.347656 33.507812 C 18.625 33.230469 19.070312 33.230469 19.34375 33.507812 C 19.621094 33.78125 19.621094 34.226562 19.34375 34.5 C 16.949219 36.898438 16.949219 40.789062 19.34375 43.1875 Z M 29.855469 43.429688 C 28.125 43.472656 27.0625 41.3125 28.550781 39.492188 C 30.863281 36.65625 28.441406 30.851562 32.800781 29.289062 C 32.835938 26.6875 35.847656 25.394531 37.59375 27.265625 C 38.082031 27.789062 38.390625 28.503906 38.398438 29.292969 C 42.738281 30.867188 40.355469 36.683594 42.652344 39.492188 C 44.144531 41.320312 43.058594 43.492188 41.316406 43.429688 L 35.769531 43.429688 C 35.359375 46.15625 32.367188 47.226562 30.65625 45.21875 C 30.246094 44.738281 29.960938 44.121094 29.859375 43.429688 Z M 29.492188 41.910156 C 29.628906 42.023438 29.734375 42.023438 29.882812 42.023438 L 41.316406 42.023438 C 41.574219 42.023438 41.742188 41.953125 41.867188 41.703125 C 42.058594 41.308594 41.902344 40.800781 41.558594 40.382812 C 38.539062 36.679688 42.003906 30.414062 35.839844 30.292969 C 28.984375 30.160156 32.757812 36.558594 29.636719 40.382812 C 29.292969 40.800781 29.136719 41.308594 29.332031 41.703125 C 29.375 41.789062 29.429688 41.859375 29.492188 41.910156 Z M 36.5625 28.222656 C 35.8125 27.414062 34.546875 27.796875 34.261719 28.90625 C 35.089844 28.816406 36.132812 28.816406 36.933594 28.910156 C 36.871094 28.644531 36.738281 28.410156 36.5625 28.222656 Z M 33.902344 44.304688 C 34.105469 44.066406 34.253906 43.769531 34.335938 43.429688 L 31.292969 43.429688 C 31.621094 44.804688 33.019531 45.339844 33.902344 44.304688 Z M 33.902344 44.304688 " fill-opacity="1" fill-rule="nonzero"/></g></svg>