<svg xmlns="http://www.w3.org/2000/svg" xmlns:xlink="http://www.w3.org/1999/xlink" width="67" zoomAndPan="magnify" viewBox="0 0 50.25 50.249998" height="67" preserveAspectRatio="xMidYMid meet" version="1.0"><defs><clipPath id="496bc5f1a5"><path d="M 20 1.292969 L 46.949219 1.292969 L 46.949219 46 L 20 46 Z M 20 1.292969 " clip-rule="nonzero"/></clipPath><clipPath id="79278e3c15"><path d="M 5 42 L 12 42 L 12 47.847656 L 5 47.847656 Z M 5 42 " clip-rule="nonzero"/></clipPath><clipPath id="5d938fa24a"><path d="M 6 43 L 8 43 L 8 47.847656 L 6 47.847656 Z M 6 43 " clip-rule="nonzero"/></clipPath><clipPath id="be015bf9aa"><path d="M 6 42 L 8 42 L 8 47.847656 L 6 47.847656 Z M 6 42 " clip-rule="nonzero"/></clipPath><clipPath id="502b508b8b"><path d="M 7 42 L 8 42 L 8 47.847656 L 7 47.847656 Z M 7 42 " clip-rule="nonzero"/></clipPath><clipPath id="63b1bd3509"><path d="M 7 42 L 9 42 L 9 47.847656 L 7 47.847656 Z M 7 42 " clip-rule="nonzero"/></clipPath><clipPath id="54b13effef"><path d="M 8 42 L 9 42 L 9 47.847656 L 8 47.847656 Z M 8 42 " clip-rule="nonzero"/></clipPath><clipPath id="797ff15f28"><path d="M 9 43 L 10 43 L 10 47.847656 L 9 47.847656 Z M 9 43 " clip-rule="nonzero"/></clipPath><clipPath id="62807b5227"><path d="M 9 42 L 10 42 L 10 47.847656 L 9 47.847656 Z M 9 42 " clip-rule="nonzero"/></clipPath><clipPath id="d83ccc4e03"><path d="M 10 43 L 11 43 L 11 47.847656 L 10 47.847656 Z M 10 43 " clip-rule="nonzero"/></clipPath><clipPath id="eb20f51226"><path d="M 5 43 L 7 43 L 7 47.847656 L 5 47.847656 Z M 5 43 " clip-rule="nonzero"/></clipPath><clipPath id="bd3495d65a"><path d="M 28 42 L 35 42 L 35 47.847656 L 28 47.847656 Z M 28 42 " clip-rule="nonzero"/></clipPath><clipPath id="1141fed107"><path d="M 30 43 L 31 43 L 31 47.847656 L 30 47.847656 Z M 30 43 " clip-rule="nonzero"/></clipPath><clipPath id="92fefdf039"><path d="M 30 42 L 31 42 L 31 47.847656 L 30 47.847656 Z M 30 42 " clip-rule="nonzero"/></clipPath><clipPath id="a1f8e60f06"><path d="M 30 42 L 32 42 L 32 47.847656 L 30 47.847656 Z M 30 42 " clip-rule="nonzero"/></clipPath><clipPath id="af7d65ff31"><path d="M 31 42 L 33 42 L 33 47.847656 L 31 47.847656 Z M 31 42 " clip-rule="nonzero"/></clipPath><clipPath id="d411ac3ef9"><path d="M 32 43 L 34 43 L 34 47.847656 L 32 47.847656 Z M 32 43 " clip-rule="nonzero"/></clipPath><clipPath id="838c7653eb"><path d="M 32 42 L 34 42 L 34 47.847656 L 32 47.847656 Z M 32 42 " clip-rule="nonzero"/></clipPath><clipPath id="7ee6429e2e"><path d="M 33 43 L 34 43 L 34 47.847656 L 33 47.847656 Z M 33 43 " clip-rule="nonzero"/></clipPath><clipPath id="a78c755018"><path d="M 33 43 L 35 43 L 35 47.847656 L 33 47.847656 Z M 33 43 " clip-rule="nonzero"/></clipPath><clipPath id="2dabe31b7d"><path d="M 29 43 L 30 43 L 30 47.847656 L 29 47.847656 Z M 29 43 " clip-rule="nonzero"/></clipPath></defs><g clip-path="url(#496bc5f1a5)"><path fill="#ffffff" d="M 22.550781 45.785156 C 21.578125 45.785156 20.785156 44.992188 20.785156 44.019531 L 20.785156 3.199219 C 20.785156 2.226562 21.578125 1.433594 22.550781 1.433594 L 44.777344 1.433594 C 45.75 1.433594 46.542969 2.226562 46.542969 3.199219 L 46.542969 44.019531 C 46.542969 44.992188 45.75 45.785156 44.777344 45.785156 L 22.550781 45.785156 " fill-opacity="1" fill-rule="nonzero"/><path fill="#2437eb" d="M 44.777344 1.296875 L 22.550781 1.296875 C 21.503906 1.296875 20.648438 2.148438 20.648438 3.199219 L 20.648438 44.019531 C 20.648438 45.066406 21.503906 45.921875 22.550781 45.921875 L 44.777344 45.921875 C 45.828125 45.921875 46.679688 45.066406 46.679688 44.019531 L 46.679688 3.199219 C 46.679688 2.148438 45.828125 1.296875 44.777344 1.296875 Z M 44.777344 1.574219 C 45.675781 1.574219 46.40625 2.300781 46.40625 3.199219 L 46.40625 44.019531 C 46.40625 44.917969 45.675781 45.644531 44.777344 45.644531 L 22.550781 45.644531 C 21.652344 45.644531 20.925781 44.917969 20.925781 44.019531 L 20.925781 3.199219 C 20.925781 2.300781 21.652344 1.574219 22.550781 1.574219 L 44.777344 1.574219 " fill-opacity="1" fill-rule="nonzero"/></g><path fill="#ffffff" d="M 23.421875 44.0625 C 22.515625 44.0625 21.78125 43.328125 21.78125 42.425781 L 21.78125 4.792969 C 21.78125 3.890625 22.515625 3.15625 23.421875 3.15625 L 43.910156 3.15625 C 44.8125 3.15625 45.546875 3.890625 45.546875 4.792969 L 45.546875 42.425781 C 45.546875 43.328125 44.8125 44.0625 43.910156 44.0625 L 23.421875 44.0625 " fill-opacity="1" fill-rule="nonzero"/><path fill="#2437eb" d="M 43.910156 3.015625 L 23.421875 3.015625 C 22.441406 3.015625 21.644531 3.8125 21.644531 4.792969 L 21.644531 42.425781 C 21.644531 43.402344 22.441406 44.199219 23.421875 44.199219 L 43.910156 44.199219 C 44.890625 44.199219 45.6875 43.402344 45.6875 42.425781 L 45.6875 4.792969 C 45.6875 3.8125 44.890625 3.015625 43.910156 3.015625 Z M 43.910156 3.292969 C 44.738281 3.292969 45.410156 3.964844 45.410156 4.792969 L 45.410156 42.425781 C 45.410156 43.25 44.738281 43.921875 43.910156 43.921875 L 23.421875 43.921875 C 22.59375 43.921875 21.921875 43.25 21.921875 42.425781 L 21.921875 4.792969 C 21.921875 3.964844 22.59375 3.292969 23.421875 3.292969 L 43.910156 3.292969 " fill-opacity="1" fill-rule="nonzero"/><path fill="#ffffff" d="M 23.421875 44.0625 C 22.515625 44.0625 21.78125 43.328125 21.78125 42.425781 L 21.78125 4.792969 C 21.78125 3.890625 22.515625 3.15625 23.421875 3.15625 L 43.910156 3.15625 C 44.8125 3.15625 45.546875 3.890625 45.546875 4.792969 L 45.546875 42.425781 C 45.546875 43.328125 44.8125 44.0625 43.910156 44.0625 L 23.421875 44.0625 " fill-opacity="1" fill-rule="nonzero"/><path fill="#2437eb" d="M 43.910156 3.015625 L 23.421875 3.015625 C 22.441406 3.015625 21.644531 3.8125 21.644531 4.792969 L 21.644531 42.425781 C 21.644531 43.402344 22.441406 44.199219 23.421875 44.199219 L 43.910156 44.199219 C 44.890625 44.199219 45.6875 43.402344 45.6875 42.425781 L 45.6875 4.792969 C 45.6875 3.8125 44.890625 3.015625 43.910156 3.015625 Z M 43.910156 3.292969 C 44.738281 3.292969 45.410156 3.964844 45.410156 4.792969 L 45.410156 42.425781 C 45.410156 43.25 44.738281 43.921875 43.910156 43.921875 L 23.421875 43.921875 C 22.59375 43.921875 21.921875 43.25 21.921875 42.425781 L 21.921875 4.792969 C 21.921875 3.964844 22.59375 3.292969 23.421875 3.292969 L 43.910156 3.292969 " fill-opacity="1" fill-rule="nonzero"/><path fill="#2437eb" d="M 22.496094 40.390625 C 22.417969 40.390625 22.355469 40.328125 22.355469 40.25 L 22.355469 6.96875 C 22.355469 6.890625 22.417969 6.828125 22.496094 6.828125 L 44.835938 6.828125 C 44.914062 6.828125 44.976562 6.890625 44.976562 6.96875 L 44.976562 40.25 C 44.976562 40.328125 44.914062 40.390625 44.835938 40.390625 L 22.496094 40.390625 " fill-opacity="1" fill-rule="nonzero"/><path fill="#2437eb" d="M 44.835938 6.691406 L 22.496094 6.691406 C 22.339844 6.691406 22.21875 6.8125 22.21875 6.96875 L 22.21875 40.25 C 22.21875 40.402344 22.339844 40.527344 22.496094 40.527344 L 44.835938 40.527344 C 44.988281 40.527344 45.113281 40.402344 45.113281 40.25 L 45.113281 6.96875 C 45.113281 6.8125 44.988281 6.691406 44.835938 6.691406 Z M 44.835938 6.96875 L 44.835938 40.25 L 22.496094 40.25 L 22.496094 6.96875 L 44.835938 6.96875 " fill-opacity="1" fill-rule="nonzero"/><path fill="#ffffff" d="M 22.496094 35.738281 C 22.417969 35.738281 22.355469 35.679688 22.355469 35.601562 L 22.355469 12.519531 C 22.355469 12.445312 22.417969 12.382812 22.496094 12.382812 L 44.835938 12.382812 C 44.914062 12.382812 44.976562 12.445312 44.976562 12.519531 L 44.976562 35.601562 C 44.976562 35.679688 44.914062 35.738281 44.835938 35.738281 L 22.496094 35.738281 " fill-opacity="1" fill-rule="nonzero"/><path fill="#2437eb" d="M 44.835938 12.242188 L 22.496094 12.242188 C 22.339844 12.242188 22.21875 12.367188 22.21875 12.519531 L 22.21875 35.601562 C 22.21875 35.753906 22.339844 35.878906 22.496094 35.878906 L 44.835938 35.878906 C 44.988281 35.878906 45.113281 35.753906 45.113281 35.601562 L 45.113281 12.519531 C 45.113281 12.367188 44.988281 12.242188 44.835938 12.242188 Z M 44.835938 12.519531 L 44.835938 35.601562 L 22.496094 35.601562 L 22.496094 12.519531 L 44.835938 12.519531 " fill-opacity="1" fill-rule="nonzero"/><path fill="#2437eb" d="M 30.996094 5.773438 C 30.683594 5.773438 30.425781 5.515625 30.425781 5.203125 C 30.425781 4.890625 30.683594 4.632812 30.996094 4.632812 L 36.332031 4.632812 C 36.648438 4.632812 36.902344 4.890625 36.902344 5.203125 C 36.902344 5.515625 36.648438 5.773438 36.332031 5.773438 L 30.996094 5.773438 " fill-opacity="1" fill-rule="nonzero"/><path fill="#2437eb" d="M 36.332031 4.496094 L 30.996094 4.496094 C 30.605469 4.496094 30.289062 4.8125 30.289062 5.203125 C 30.289062 5.59375 30.605469 5.910156 30.996094 5.910156 L 36.332031 5.910156 C 36.722656 5.910156 37.039062 5.59375 37.039062 5.203125 C 37.039062 4.8125 36.722656 4.496094 36.332031 4.496094 Z M 36.332031 4.773438 C 36.570312 4.773438 36.765625 4.964844 36.765625 5.203125 C 36.765625 5.441406 36.570312 5.632812 36.332031 5.632812 L 30.996094 5.632812 C 30.757812 5.632812 30.566406 5.441406 30.566406 5.203125 C 30.566406 4.964844 30.757812 4.773438 30.996094 4.773438 L 36.332031 4.773438 " fill-opacity="1" fill-rule="nonzero"/><path fill="#ffffff" d="M 27.996094 5.773438 C 27.683594 5.773438 27.429688 5.515625 27.429688 5.203125 C 27.429688 4.890625 27.683594 4.632812 27.996094 4.632812 L 28.800781 4.632812 C 29.113281 4.632812 29.371094 4.890625 29.371094 5.203125 C 29.371094 5.515625 29.113281 5.773438 28.800781 5.773438 L 27.996094 5.773438 " fill-opacity="1" fill-rule="nonzero"/><path fill="#2437eb" d="M 28.800781 4.496094 L 27.996094 4.496094 C 27.605469 4.496094 27.289062 4.8125 27.289062 5.203125 C 27.289062 5.59375 27.605469 5.910156 27.996094 5.910156 L 28.800781 5.910156 C 29.191406 5.910156 29.507812 5.59375 29.507812 5.203125 C 29.507812 4.8125 29.191406 4.496094 28.800781 4.496094 Z M 28.800781 4.773438 C 29.039062 4.773438 29.230469 4.964844 29.230469 5.203125 C 29.230469 5.441406 29.039062 5.632812 28.800781 5.632812 L 27.996094 5.632812 C 27.757812 5.632812 27.566406 5.441406 27.566406 5.203125 C 27.566406 4.964844 27.757812 4.773438 27.996094 4.773438 L 28.800781 4.773438 " fill-opacity="1" fill-rule="nonzero"/><path fill="#ffffff" d="M 26.21875 5.773438 C 25.902344 5.773438 25.648438 5.515625 25.648438 5.203125 C 25.648438 4.890625 25.902344 4.632812 26.21875 4.632812 C 26.53125 4.632812 26.785156 4.890625 26.785156 5.203125 C 26.785156 5.515625 26.53125 5.773438 26.21875 5.773438 " fill-opacity="1" fill-rule="nonzero"/><path fill="#2437eb" d="M 26.21875 4.496094 C 25.828125 4.496094 25.511719 4.8125 25.511719 5.203125 C 25.511719 5.59375 25.828125 5.910156 26.21875 5.910156 C 26.609375 5.910156 26.925781 5.59375 26.925781 5.203125 C 26.925781 4.8125 26.609375 4.496094 26.21875 4.496094 Z M 26.21875 4.773438 C 26.457031 4.773438 26.648438 4.964844 26.648438 5.203125 C 26.648438 5.441406 26.457031 5.632812 26.21875 5.632812 C 25.980469 5.632812 25.789062 5.441406 25.789062 5.203125 C 25.789062 4.964844 25.980469 4.773438 26.21875 4.773438 " fill-opacity="1" fill-rule="nonzero"/><path fill="#ffffff" d="M 39.589844 4.335938 C 39.402344 4.335938 39.25 4.183594 39.25 3.996094 C 39.25 3.808594 39.402344 3.660156 39.589844 3.660156 C 39.777344 3.660156 39.929688 3.808594 39.929688 3.996094 C 39.929688 4.183594 39.777344 4.335938 39.589844 4.335938 " fill-opacity="1" fill-rule="nonzero"/><path fill="#2437eb" d="M 39.589844 3.519531 C 39.324219 3.519531 39.109375 3.734375 39.109375 3.996094 C 39.109375 4.261719 39.324219 4.476562 39.589844 4.476562 C 39.851562 4.476562 40.066406 4.261719 40.066406 3.996094 C 40.066406 3.734375 39.851562 3.519531 39.589844 3.519531 Z M 39.589844 3.796875 C 39.699219 3.796875 39.789062 3.886719 39.789062 3.996094 C 39.789062 4.109375 39.699219 4.199219 39.589844 4.199219 C 39.476562 4.199219 39.386719 4.109375 39.386719 3.996094 C 39.386719 3.886719 39.476562 3.796875 39.589844 3.796875 " fill-opacity="1" fill-rule="nonzero"/><path fill="#ffffff" d="M 30.242188 42.976562 C 30.164062 42.976562 30.101562 42.914062 30.101562 42.835938 L 30.101562 41.269531 C 30.101562 41.191406 30.164062 41.128906 30.242188 41.128906 L 37.089844 41.128906 C 37.164062 41.128906 37.226562 41.191406 37.226562 41.269531 L 37.226562 42.835938 C 37.226562 42.914062 37.164062 42.976562 37.089844 42.976562 L 30.242188 42.976562 " fill-opacity="1" fill-rule="nonzero"/><path fill="#2437eb" d="M 37.089844 40.992188 L 30.242188 40.992188 C 30.089844 40.992188 29.964844 41.117188 29.964844 41.269531 L 29.964844 42.835938 C 29.964844 42.992188 30.089844 43.113281 30.242188 43.113281 L 37.089844 43.113281 C 37.242188 43.113281 37.367188 42.992188 37.367188 42.835938 L 37.367188 41.269531 C 37.367188 41.117188 37.242188 40.992188 37.089844 40.992188 Z M 37.089844 41.269531 L 37.089844 42.835938 L 30.242188 42.835938 L 30.242188 41.269531 L 37.089844 41.269531 " fill-opacity="1" fill-rule="nonzero"/><path fill="#ffffff" d="M 28.167969 32.25 L 24.5625 26.019531 L 22.472656 29.636719 L 22.472656 34.511719 L 26.859375 34.511719 C 27.296875 33.757812 27.734375 33.003906 28.167969 32.25 " fill-opacity="1" fill-rule="nonzero"/><path fill="#2437eb" d="M 28.167969 32.25 L 28.289062 32.179688 L 24.683594 25.949219 C 24.660156 25.90625 24.613281 25.878906 24.5625 25.878906 C 24.515625 25.878906 24.46875 25.90625 24.445312 25.949219 L 22.351562 29.566406 C 22.339844 29.589844 22.332031 29.613281 22.332031 29.636719 L 22.332031 34.511719 C 22.332031 34.546875 22.347656 34.582031 22.375 34.609375 C 22.398438 34.636719 22.433594 34.648438 22.472656 34.648438 L 26.859375 34.648438 C 26.910156 34.648438 26.957031 34.625 26.980469 34.582031 C 27.417969 33.828125 27.851562 33.074219 28.289062 32.320312 C 28.3125 32.277344 28.3125 32.222656 28.289062 32.179688 L 28.167969 32.25 L 28.046875 32.179688 C 27.613281 32.933594 27.175781 33.6875 26.742188 34.441406 L 26.859375 34.511719 L 26.859375 34.371094 L 22.609375 34.371094 L 22.609375 29.671875 L 24.5625 26.296875 L 28.046875 32.320312 L 28.167969 32.25 L 28.046875 32.179688 L 28.167969 32.25 " fill-opacity="1" fill-rule="nonzero"/><path fill="#ffffff" d="M 27.933594 34.511719 L 29.476562 34.511719 C 29.21875 34.066406 28.960938 33.621094 28.707031 33.179688 C 28.449219 33.621094 28.191406 34.066406 27.933594 34.511719 " fill-opacity="1" fill-rule="nonzero"/><path fill="#2437eb" d="M 27.933594 34.511719 L 27.933594 34.648438 L 29.476562 34.648438 C 29.527344 34.648438 29.570312 34.625 29.597656 34.582031 C 29.621094 34.539062 29.621094 34.484375 29.597656 34.441406 C 29.339844 33.996094 29.082031 33.554688 28.828125 33.109375 C 28.800781 33.066406 28.753906 33.039062 28.707031 33.039062 C 28.65625 33.039062 28.609375 33.066406 28.585938 33.109375 C 28.328125 33.554688 28.070312 33.996094 27.816406 34.441406 C 27.789062 34.484375 27.789062 34.539062 27.816406 34.582031 C 27.839844 34.625 27.886719 34.648438 27.933594 34.648438 L 27.933594 34.511719 L 28.054688 34.582031 C 28.3125 34.136719 28.570312 33.691406 28.828125 33.25 L 28.707031 33.179688 L 28.585938 33.25 C 28.84375 33.691406 29.101562 34.136719 29.355469 34.582031 L 29.476562 34.511719 L 29.476562 34.371094 L 27.933594 34.371094 L 27.933594 34.511719 L 28.054688 34.582031 L 27.933594 34.511719 " fill-opacity="1" fill-rule="nonzero"/><path fill="#ffffff" d="M 29.019531 20.558594 C 30.003906 22.261719 30.988281 23.964844 31.976562 25.667969 C 34.3125 21.632812 36.644531 17.597656 38.980469 13.558594 L 31.773438 13.558594 L 28.394531 19.402344 L 28.929688 20.332031 C 28.972656 20.402344 29 20.480469 29.019531 20.558594 " fill-opacity="1" fill-rule="nonzero"/><path fill="#2437eb" d="M 29.019531 20.558594 L 28.898438 20.628906 C 29.882812 22.332031 30.871094 24.035156 31.855469 25.738281 C 31.878906 25.78125 31.925781 25.808594 31.976562 25.808594 C 32.023438 25.808594 32.070312 25.78125 32.09375 25.738281 C 34.429688 21.703125 36.765625 17.667969 39.101562 13.628906 C 39.125 13.585938 39.125 13.535156 39.101562 13.492188 C 39.074219 13.449219 39.03125 13.421875 38.980469 13.421875 L 31.773438 13.421875 C 31.722656 13.421875 31.675781 13.449219 31.652344 13.492188 L 28.273438 19.332031 C 28.25 19.375 28.25 19.425781 28.273438 19.46875 L 28.8125 20.398438 C 28.84375 20.457031 28.867188 20.523438 28.882812 20.589844 C 28.886719 20.605469 28.890625 20.617188 28.898438 20.628906 L 29.019531 20.558594 L 29.152344 20.527344 C 29.132812 20.4375 29.101562 20.347656 29.050781 20.261719 L 28.554688 19.398438 L 31.851562 13.699219 L 38.980469 13.699219 L 38.980469 13.558594 L 38.859375 13.492188 C 36.523438 17.527344 34.191406 21.5625 31.855469 25.601562 L 31.976562 25.667969 L 32.09375 25.601562 C 31.109375 23.894531 30.125 22.191406 29.140625 20.488281 L 29.019531 20.558594 L 29.152344 20.527344 L 29.019531 20.558594 " fill-opacity="1" fill-rule="nonzero"/><path fill="#ffffff" d="M 28.175781 20.957031 C 28.132812 20.886719 28.105469 20.808594 28.085938 20.730469 L 27.855469 20.328125 L 25.101562 25.089844 C 26.304688 27.167969 27.503906 29.246094 28.707031 31.324219 C 29.617188 29.746094 30.527344 28.171875 31.4375 26.597656 C 30.351562 24.71875 29.261719 22.839844 28.175781 20.957031 " fill-opacity="1" fill-rule="nonzero"/><path fill="#2437eb" d="M 28.175781 20.957031 L 28.296875 20.886719 C 28.261719 20.828125 28.238281 20.765625 28.222656 20.699219 C 28.21875 20.683594 28.214844 20.671875 28.207031 20.660156 L 27.976562 20.257812 C 27.949219 20.21875 27.90625 20.191406 27.855469 20.191406 C 27.804688 20.191406 27.761719 20.21875 27.734375 20.257812 L 24.980469 25.019531 C 24.957031 25.0625 24.957031 25.117188 24.980469 25.160156 C 26.183594 27.238281 27.382812 29.316406 28.585938 31.390625 C 28.609375 31.433594 28.65625 31.460938 28.707031 31.460938 C 28.753906 31.460938 28.800781 31.433594 28.828125 31.390625 C 29.738281 29.816406 30.648438 28.242188 31.558594 26.667969 C 31.582031 26.625 31.582031 26.570312 31.558594 26.527344 C 30.472656 24.648438 29.382812 22.769531 28.296875 20.886719 L 28.054688 21.027344 C 29.144531 22.90625 30.230469 24.789062 31.320312 26.667969 L 31.4375 26.597656 L 31.320312 26.527344 C 30.40625 28.101562 29.496094 29.679688 28.585938 31.253906 L 28.707031 31.324219 L 28.828125 31.253906 C 27.625 29.175781 26.421875 27.097656 25.222656 25.019531 L 25.101562 25.089844 L 25.222656 25.160156 L 27.855469 20.605469 L 27.96875 20.800781 L 28.085938 20.730469 L 27.953125 20.761719 C 27.972656 20.851562 28.007812 20.941406 28.054688 21.027344 L 28.175781 20.957031 " fill-opacity="1" fill-rule="nonzero"/><path fill="#ffffff" d="M 44.835938 18.78125 L 44.835938 13.558594 L 40.054688 13.558594 L 37.035156 18.78125 L 44.835938 18.78125 " fill-opacity="1" fill-rule="nonzero"/><path fill="#2437eb" d="M 44.835938 18.78125 L 44.976562 18.78125 L 44.976562 13.558594 C 44.976562 13.523438 44.960938 13.488281 44.933594 13.460938 C 44.910156 13.4375 44.871094 13.421875 44.835938 13.421875 L 40.054688 13.421875 C 40.003906 13.421875 39.960938 13.449219 39.933594 13.492188 L 36.914062 18.710938 C 36.886719 18.753906 36.886719 18.808594 36.914062 18.851562 C 36.9375 18.894531 36.984375 18.921875 37.035156 18.921875 L 44.835938 18.921875 C 44.871094 18.921875 44.910156 18.90625 44.933594 18.878906 C 44.960938 18.855469 44.976562 18.820312 44.976562 18.78125 L 44.835938 18.78125 L 44.835938 18.644531 L 37.273438 18.644531 L 40.132812 13.699219 L 44.695312 13.699219 L 44.699219 18.78125 L 44.835938 18.78125 L 44.835938 18.644531 L 44.835938 18.78125 " fill-opacity="1" fill-rule="nonzero"/><path fill="#ffffff" d="M 40.226562 20.117188 L 40.230469 20.09375 L 36.273438 20.09375 L 29.242188 32.25 L 30.550781 34.511719 L 40.226562 34.511719 L 40.226562 20.117188 " fill-opacity="1" fill-rule="nonzero"/><path fill="#2437eb" d="M 40.226562 20.117188 L 40.367188 20.128906 L 40.367188 20.105469 C 40.371094 20.066406 40.355469 20.027344 40.332031 20 C 40.304688 19.972656 40.269531 19.957031 40.230469 19.957031 L 36.273438 19.957031 C 36.222656 19.957031 36.179688 19.984375 36.15625 20.027344 L 29.121094 32.179688 C 29.097656 32.222656 29.097656 32.277344 29.121094 32.320312 L 30.429688 34.582031 C 30.457031 34.625 30.5 34.648438 30.550781 34.648438 L 40.226562 34.648438 C 40.261719 34.648438 40.300781 34.636719 40.324219 34.609375 C 40.351562 34.582031 40.367188 34.546875 40.367188 34.511719 L 40.367188 20.117188 L 40.226562 20.117188 L 40.367188 20.128906 L 40.226562 20.117188 L 40.089844 20.117188 L 40.089844 34.371094 L 30.628906 34.371094 L 29.402344 32.25 L 36.355469 20.234375 L 40.230469 20.234375 L 40.230469 20.09375 L 40.089844 20.085938 L 40.089844 20.117188 L 40.226562 20.117188 " fill-opacity="1" fill-rule="nonzero"/><path fill="#ffffff" d="M 40.984375 20.09375 L 40.988281 20.117188 L 40.988281 34.511719 L 44.835938 34.511719 L 44.835938 20.09375 L 40.984375 20.09375 " fill-opacity="1" fill-rule="nonzero"/><path fill="#2437eb" d="M 40.984375 20.09375 L 40.847656 20.105469 L 40.847656 34.511719 C 40.847656 34.546875 40.863281 34.582031 40.890625 34.609375 C 40.914062 34.636719 40.949219 34.648438 40.988281 34.648438 L 44.835938 34.648438 C 44.871094 34.648438 44.910156 34.636719 44.933594 34.609375 C 44.960938 34.582031 44.976562 34.546875 44.976562 34.511719 L 44.976562 20.09375 C 44.976562 20.058594 44.960938 20.023438 44.933594 19.996094 C 44.910156 19.972656 44.871094 19.957031 44.835938 19.957031 L 40.984375 19.957031 C 40.949219 19.957031 40.910156 19.972656 40.882812 20 C 40.859375 20.027344 40.84375 20.066406 40.847656 20.105469 L 40.984375 20.09375 L 40.984375 20.234375 L 44.699219 20.234375 L 44.699219 34.371094 L 41.125 34.371094 L 41.125 20.085938 L 40.984375 20.09375 L 40.984375 20.234375 L 40.984375 20.09375 " fill-opacity="1" fill-rule="nonzero"/><path fill="#ffffff" d="M 30.699219 13.558594 L 25.015625 13.558594 L 27.855469 18.472656 Z M 30.699219 13.558594 " fill-opacity="1" fill-rule="nonzero"/><path fill="#2437eb" d="M 30.699219 13.558594 L 30.699219 13.421875 L 25.015625 13.421875 C 24.964844 13.421875 24.917969 13.449219 24.894531 13.492188 C 24.871094 13.535156 24.871094 13.585938 24.894531 13.628906 L 27.734375 18.542969 C 27.761719 18.585938 27.804688 18.609375 27.855469 18.609375 C 27.90625 18.609375 27.949219 18.585938 27.976562 18.542969 L 30.816406 13.628906 C 30.84375 13.585938 30.84375 13.535156 30.816406 13.492188 C 30.792969 13.449219 30.746094 13.421875 30.699219 13.421875 L 30.699219 13.558594 L 30.578125 13.492188 L 27.855469 18.195312 L 25.253906 13.699219 L 30.699219 13.699219 L 30.699219 13.558594 L 30.578125 13.492188 L 30.699219 13.558594 " fill-opacity="1" fill-rule="nonzero"/><path fill="#ffffff" d="M 27.320312 19.402344 C 26.191406 17.453125 25.066406 15.507812 23.941406 13.558594 L 22.472656 13.558594 L 22.472656 27.777344 L 27.320312 19.402344 " fill-opacity="1" fill-rule="nonzero"/><path fill="#2437eb" d="M 27.320312 19.402344 L 27.4375 19.332031 C 26.3125 17.382812 25.1875 15.4375 24.058594 13.492188 C 24.035156 13.449219 23.988281 13.421875 23.941406 13.421875 L 22.472656 13.421875 C 22.433594 13.421875 22.398438 13.4375 22.375 13.460938 C 22.347656 13.488281 22.332031 13.523438 22.332031 13.558594 L 22.332031 27.777344 C 22.332031 27.84375 22.375 27.898438 22.4375 27.914062 C 22.496094 27.929688 22.558594 27.902344 22.59375 27.847656 L 27.4375 19.46875 C 27.464844 19.425781 27.464844 19.375 27.4375 19.332031 L 27.320312 19.402344 L 27.199219 19.332031 L 22.609375 27.261719 L 22.609375 13.699219 L 23.941406 13.699219 L 23.941406 13.558594 L 23.820312 13.628906 C 24.945312 15.578125 26.074219 17.523438 27.199219 19.46875 L 27.320312 19.402344 L 27.199219 19.332031 L 27.320312 19.402344 " fill-opacity="1" fill-rule="nonzero"/><path fill="#2437eb" d="M 31.109375 31.960938 C 31.070312 31.960938 31.03125 31.945312 31.007812 31.917969 L 30.695312 31.574219 C 30.664062 31.539062 30.652344 31.492188 30.664062 31.445312 L 31.117188 29.75 C 31.132812 29.699219 31.269531 29.304688 32.085938 29.304688 C 32.265625 29.304688 32.46875 29.320312 32.6875 29.359375 C 32.738281 29.367188 32.796875 29.378906 32.855469 29.386719 C 33.277344 29.453125 33.855469 29.542969 34.144531 29.835938 C 34.164062 29.859375 34.496094 30.246094 34.328125 30.621094 C 34.15625 30.992188 33.597656 31.171875 32.613281 31.171875 C 32.335938 31.171875 32.023438 31.15625 31.683594 31.128906 C 31.664062 31.125 31.648438 31.121094 31.632812 31.113281 C 31.5625 31.117188 31.386719 31.269531 31.242188 31.855469 C 31.230469 31.90625 31.191406 31.945312 31.144531 31.957031 L 31.109375 31.960938 " fill-opacity="1" fill-rule="nonzero"/><path fill="#2437eb" d="M 32.085938 29.164062 C 31.164062 29.164062 31.003906 29.652344 30.984375 29.710938 L 30.53125 31.410156 C 30.507812 31.5 30.53125 31.597656 30.59375 31.667969 L 30.902344 32.011719 C 30.957031 32.070312 31.03125 32.101562 31.109375 32.101562 C 31.132812 32.101562 31.15625 32.097656 31.175781 32.09375 C 31.277344 32.066406 31.355469 31.988281 31.378906 31.890625 C 31.492188 31.4375 31.605469 31.300781 31.644531 31.261719 L 31.671875 31.265625 C 32.015625 31.296875 32.332031 31.308594 32.613281 31.308594 C 33.65625 31.308594 34.257812 31.105469 34.453125 30.679688 C 34.65625 30.230469 34.296875 29.796875 34.253906 29.75 L 34.242188 29.738281 C 33.921875 29.414062 33.316406 29.320312 32.878906 29.25 C 32.816406 29.242188 32.761719 29.230469 32.710938 29.222656 C 32.484375 29.183594 32.273438 29.164062 32.085938 29.164062 Z M 32.085938 29.441406 C 32.246094 29.441406 32.4375 29.457031 32.664062 29.496094 C 33.042969 29.5625 33.746094 29.632812 34.046875 29.933594 C 34.046875 29.933594 35.007812 31.03125 32.613281 31.03125 C 32.351562 31.03125 32.046875 31.019531 31.695312 30.988281 C 31.695312 30.988281 31.671875 30.976562 31.636719 30.976562 C 31.527344 30.976562 31.292969 31.074219 31.109375 31.824219 L 30.800781 31.480469 L 31.253906 29.785156 C 31.253906 29.785156 31.347656 29.441406 32.085938 29.441406 " fill-opacity="1" fill-rule="nonzero"/><path fill="#2437eb" d="M 8.433594 31.960938 L 8.398438 31.957031 C 8.351562 31.945312 8.3125 31.90625 8.300781 31.855469 C 8.15625 31.269531 7.980469 31.117188 7.90625 31.117188 C 7.890625 31.125 7.875 31.125 7.859375 31.128906 C 7.519531 31.15625 7.207031 31.171875 6.929688 31.171875 C 5.945312 31.171875 5.382812 30.992188 5.214844 30.621094 C 5.046875 30.246094 5.378906 29.859375 5.390625 29.839844 C 5.6875 29.542969 6.265625 29.453125 6.6875 29.386719 C 6.746094 29.378906 6.804688 29.367188 6.855469 29.359375 C 7.074219 29.320312 7.277344 29.304688 7.457031 29.304688 C 8.273438 29.304688 8.410156 29.699219 8.421875 29.746094 L 8.878906 31.445312 C 8.890625 31.492188 8.878906 31.539062 8.847656 31.574219 L 8.535156 31.917969 C 8.507812 31.945312 8.472656 31.960938 8.433594 31.960938 " fill-opacity="1" fill-rule="nonzero"/><path fill="#2437eb" d="M 7.457031 29.164062 C 7.269531 29.164062 7.058594 29.183594 6.832031 29.222656 C 6.78125 29.230469 6.726562 29.242188 6.664062 29.25 C 6.222656 29.320312 5.621094 29.414062 5.300781 29.738281 L 5.289062 29.75 C 5.246094 29.796875 4.886719 30.230469 5.089844 30.679688 C 5.285156 31.105469 5.886719 31.308594 6.929688 31.308594 C 7.210938 31.308594 7.527344 31.296875 7.871094 31.265625 L 7.898438 31.261719 C 7.9375 31.300781 8.050781 31.4375 8.164062 31.890625 C 8.1875 31.988281 8.265625 32.066406 8.367188 32.09375 C 8.386719 32.097656 8.410156 32.101562 8.433594 32.101562 C 8.511719 32.101562 8.585938 32.070312 8.640625 32.011719 L 8.949219 31.667969 C 9.011719 31.597656 9.035156 31.5 9.011719 31.410156 L 8.558594 29.710938 C 8.542969 29.652344 8.378906 29.164062 7.457031 29.164062 Z M 7.457031 29.441406 C 8.195312 29.441406 8.289062 29.785156 8.289062 29.785156 L 8.742188 31.480469 L 8.433594 31.824219 C 8.25 31.074219 8.015625 30.976562 7.90625 30.976562 C 7.871094 30.976562 7.847656 30.988281 7.847656 30.988281 C 7.496094 31.019531 7.191406 31.03125 6.929688 31.03125 C 4.535156 31.03125 5.496094 29.933594 5.496094 29.933594 C 5.792969 29.632812 6.5 29.5625 6.878906 29.496094 C 7.105469 29.457031 7.296875 29.441406 7.457031 29.441406 " fill-opacity="1" fill-rule="nonzero"/><g clip-path="url(#79278e3c15)"><path fill="#2437eb" d="M 7.703125 47.878906 C 6.46875 47.878906 5.5 47.285156 5.5 46.527344 L 5.5 44.292969 C 5.5 43.535156 6.46875 42.941406 7.703125 42.941406 L 8.847656 42.941406 C 10.082031 42.941406 11.050781 43.535156 11.050781 44.292969 L 11.050781 46.527344 C 11.050781 47.285156 10.082031 47.878906 8.847656 47.878906 L 7.703125 47.878906 " fill-opacity="1" fill-rule="nonzero"/><path fill="#2437eb" d="M 8.847656 42.804688 L 7.703125 42.804688 C 6.390625 42.804688 5.363281 43.457031 5.363281 44.292969 L 5.363281 46.527344 C 5.363281 47.363281 6.390625 48.015625 7.703125 48.015625 L 8.847656 48.015625 C 10.160156 48.015625 11.1875 47.363281 11.1875 46.527344 L 11.1875 44.292969 C 11.1875 43.457031 10.160156 42.804688 8.847656 42.804688 Z M 8.847656 43.082031 C 9.988281 43.082031 10.910156 43.625 10.910156 44.292969 L 10.910156 46.527344 C 10.910156 47.199219 9.988281 47.738281 8.847656 47.738281 L 7.703125 47.738281 C 6.5625 47.738281 5.640625 47.199219 5.640625 46.527344 L 5.640625 44.292969 C 5.640625 43.625 6.5625 43.082031 7.703125 43.082031 L 8.847656 43.082031 " fill-opacity="1" fill-rule="nonzero"/></g><g clip-path="url(#5d938fa24a)"><path fill="#ffffff" d="M 7.054688 47.816406 L 7.03125 47.8125 C 6.984375 47.804688 6.941406 47.796875 6.894531 47.785156 C 6.832031 47.769531 6.789062 47.714844 6.789062 47.652344 L 6.789062 43.167969 C 6.789062 43.105469 6.832031 43.046875 6.894531 43.035156 C 6.941406 43.023438 6.984375 43.015625 7.03125 43.003906 L 7.054688 43.003906 C 7.089844 43.003906 7.121094 43.015625 7.144531 43.035156 C 7.175781 43.0625 7.195312 43.101562 7.195312 43.140625 L 7.195312 47.679688 C 7.195312 47.71875 7.175781 47.757812 7.144531 47.785156 C 7.121094 47.804688 7.089844 47.816406 7.054688 47.816406 " fill-opacity="1" fill-rule="nonzero"/></g><g clip-path="url(#be015bf9aa)"><path fill="#2437eb" d="M 7.054688 42.863281 C 7.039062 42.863281 7.023438 42.867188 7.003906 42.871094 C 6.957031 42.878906 6.910156 42.886719 6.863281 42.898438 C 6.738281 42.929688 6.648438 43.039062 6.648438 43.167969 L 6.648438 47.652344 C 6.648438 47.777344 6.738281 47.890625 6.863281 47.921875 C 6.910156 47.929688 6.957031 47.941406 7.003906 47.949219 C 7.023438 47.953125 7.039062 47.957031 7.054688 47.957031 C 7.121094 47.957031 7.183594 47.933594 7.234375 47.890625 C 7.296875 47.839844 7.332031 47.761719 7.332031 47.679688 L 7.332031 43.140625 C 7.332031 43.058594 7.296875 42.980469 7.234375 42.929688 C 7.183594 42.886719 7.121094 42.863281 7.054688 42.863281 Z M 7.054688 43.140625 L 7.054688 47.679688 C 7.011719 47.671875 6.96875 47.660156 6.929688 47.652344 L 6.929688 43.167969 C 6.96875 43.160156 7.011719 43.148438 7.054688 43.140625 " fill-opacity="1" fill-rule="nonzero"/></g><g clip-path="url(#502b508b8b)"><path fill="#ffffff" d="M 7.667969 47.878906 C 7.589844 47.878906 7.53125 47.816406 7.53125 47.738281 L 7.53125 43.082031 C 7.53125 43.007812 7.589844 42.945312 7.664062 42.941406 L 7.796875 42.941406 C 7.875 42.941406 7.9375 43.003906 7.9375 43.082031 L 7.9375 47.738281 C 7.9375 47.816406 7.875 47.878906 7.796875 47.878906 L 7.667969 47.878906 " fill-opacity="1" fill-rule="nonzero"/></g><g clip-path="url(#63b1bd3509)"><path fill="#2437eb" d="M 7.796875 42.804688 L 7.703125 42.804688 C 7.6875 42.804688 7.675781 42.804688 7.660156 42.804688 C 7.507812 42.808594 7.390625 42.929688 7.390625 43.082031 L 7.390625 47.738281 C 7.390625 47.890625 7.515625 48.015625 7.667969 48.015625 L 7.796875 48.015625 C 7.949219 48.015625 8.074219 47.894531 8.074219 47.738281 L 8.074219 43.082031 C 8.074219 42.925781 7.949219 42.804688 7.796875 42.804688 Z M 7.796875 43.082031 L 7.796875 47.738281 L 7.703125 47.738281 C 7.691406 47.738281 7.679688 47.738281 7.667969 47.738281 L 7.667969 43.082031 C 7.679688 43.082031 7.691406 43.082031 7.703125 43.082031 L 7.796875 43.082031 " fill-opacity="1" fill-rule="nonzero"/></g><g clip-path="url(#54b13effef)"><path fill="#ffffff" d="M 8.570312 47.878906 C 8.492188 47.878906 8.429688 47.816406 8.429688 47.738281 L 8.429688 43.082031 C 8.429688 43.003906 8.492188 42.941406 8.570312 42.941406 L 8.699219 42.941406 C 8.773438 42.941406 8.835938 43.003906 8.835938 43.082031 L 8.835938 47.738281 C 8.835938 47.816406 8.773438 47.878906 8.699219 47.878906 L 8.570312 47.878906 " fill-opacity="1" fill-rule="nonzero"/><path fill="#2437eb" d="M 8.699219 42.804688 L 8.570312 42.804688 C 8.417969 42.804688 8.292969 42.925781 8.292969 43.082031 L 8.292969 47.738281 C 8.292969 47.894531 8.417969 48.015625 8.570312 48.015625 L 8.699219 48.015625 C 8.851562 48.015625 8.976562 47.894531 8.976562 47.738281 L 8.976562 43.082031 C 8.976562 42.925781 8.851562 42.804688 8.699219 42.804688 Z M 8.699219 43.082031 L 8.699219 47.738281 L 8.570312 47.738281 L 8.570312 43.082031 L 8.699219 43.082031 " fill-opacity="1" fill-rule="nonzero"/></g><g clip-path="url(#797ff15f28)"><path fill="#ffffff" d="M 9.503906 47.816406 C 9.472656 47.816406 9.441406 47.804688 9.417969 47.785156 C 9.382812 47.757812 9.363281 47.71875 9.363281 47.675781 L 9.363281 43.144531 C 9.363281 43.101562 9.382812 43.0625 9.414062 43.035156 C 9.441406 43.015625 9.472656 43.003906 9.503906 43.003906 L 9.53125 43.007812 C 9.585938 43.019531 9.644531 43.03125 9.699219 43.046875 C 9.761719 43.058594 9.804688 43.117188 9.804688 43.179688 L 9.804688 47.640625 C 9.804688 47.703125 9.761719 47.757812 9.699219 47.773438 C 9.644531 47.789062 9.589844 47.800781 9.53125 47.8125 L 9.503906 47.816406 " fill-opacity="1" fill-rule="nonzero"/></g><g clip-path="url(#62807b5227)"><path fill="#2437eb" d="M 9.503906 42.867188 C 9.441406 42.867188 9.378906 42.886719 9.328125 42.929688 C 9.261719 42.980469 9.226562 43.0625 9.226562 43.144531 L 9.226562 47.675781 C 9.226562 47.761719 9.265625 47.839844 9.328125 47.890625 C 9.378906 47.933594 9.441406 47.953125 9.503906 47.953125 C 9.523438 47.953125 9.539062 47.953125 9.558594 47.949219 C 9.617188 47.9375 9.675781 47.925781 9.734375 47.910156 C 9.855469 47.878906 9.941406 47.769531 9.941406 47.640625 L 9.941406 43.179688 C 9.941406 43.050781 9.855469 42.941406 9.734375 42.910156 C 9.671875 42.894531 9.613281 42.882812 9.554688 42.871094 C 9.539062 42.867188 9.519531 42.867188 9.503906 42.867188 Z M 9.503906 43.144531 C 9.558594 43.152344 9.613281 43.167969 9.664062 43.179688 L 9.664062 47.640625 C 9.613281 47.652344 9.558594 47.664062 9.503906 47.675781 L 9.503906 43.144531 " fill-opacity="1" fill-rule="nonzero"/></g><g clip-path="url(#d83ccc4e03)"><path fill="#ffffff" d="M 10.308594 47.523438 C 10.285156 47.523438 10.261719 47.515625 10.242188 47.503906 C 10.195312 47.480469 10.171875 47.433594 10.171875 47.382812 L 10.171875 43.4375 C 10.171875 43.386719 10.195312 43.339844 10.238281 43.316406 C 10.261719 43.304688 10.285156 43.296875 10.308594 43.296875 C 10.332031 43.296875 10.355469 43.304688 10.378906 43.316406 C 10.4375 43.351562 10.496094 43.390625 10.554688 43.433594 C 10.585938 43.457031 10.609375 43.5 10.609375 43.542969 L 10.609375 47.277344 C 10.609375 47.320312 10.589844 47.359375 10.554688 47.386719 C 10.5 47.425781 10.441406 47.464844 10.378906 47.503906 C 10.359375 47.515625 10.332031 47.523438 10.308594 47.523438 " fill-opacity="1" fill-rule="nonzero"/><path fill="#2437eb" d="M 10.308594 43.160156 C 10.261719 43.160156 10.214844 43.171875 10.171875 43.195312 C 10.085938 43.246094 10.03125 43.335938 10.03125 43.4375 L 10.03125 47.382812 C 10.03125 47.484375 10.085938 47.574219 10.171875 47.625 C 10.214844 47.648438 10.261719 47.660156 10.308594 47.660156 C 10.359375 47.660156 10.40625 47.648438 10.449219 47.621094 C 10.515625 47.582031 10.578125 47.542969 10.636719 47.496094 C 10.707031 47.445312 10.746094 47.363281 10.746094 47.277344 L 10.746094 43.542969 C 10.746094 43.457031 10.707031 43.375 10.636719 43.320312 C 10.574219 43.277344 10.511719 43.234375 10.449219 43.199219 C 10.40625 43.171875 10.355469 43.160156 10.308594 43.160156 Z M 10.308594 43.4375 C 10.367188 43.46875 10.421875 43.507812 10.46875 43.542969 L 10.46875 47.277344 C 10.421875 47.3125 10.367188 47.351562 10.308594 47.382812 L 10.308594 43.4375 " fill-opacity="1" fill-rule="nonzero"/></g><g clip-path="url(#eb20f51226)"><path fill="#ffffff" d="M 6.238281 47.507812 C 6.214844 47.507812 6.191406 47.503906 6.167969 47.492188 C 6.109375 47.457031 6.050781 47.417969 5.996094 47.375 C 5.960938 47.347656 5.941406 47.308594 5.941406 47.265625 L 5.941406 43.53125 C 5.941406 43.488281 5.960938 43.445312 5.996094 43.421875 C 6.050781 43.378906 6.109375 43.339844 6.167969 43.304688 C 6.191406 43.292969 6.214844 43.285156 6.238281 43.285156 C 6.265625 43.285156 6.289062 43.292969 6.308594 43.304688 C 6.351562 43.328125 6.378906 43.375 6.378906 43.425781 L 6.378906 47.371094 C 6.378906 47.421875 6.351562 47.46875 6.308594 47.492188 C 6.289062 47.503906 6.265625 47.507812 6.238281 47.507812 " fill-opacity="1" fill-rule="nonzero"/><path fill="#2437eb" d="M 6.238281 43.148438 C 6.191406 43.148438 6.140625 43.160156 6.097656 43.1875 C 6.035156 43.222656 5.972656 43.265625 5.914062 43.308594 C 5.84375 43.363281 5.800781 43.445312 5.800781 43.53125 L 5.800781 47.265625 C 5.800781 47.351562 5.84375 47.433594 5.914062 47.488281 C 5.972656 47.53125 6.035156 47.574219 6.097656 47.609375 C 6.144531 47.636719 6.191406 47.648438 6.238281 47.648438 C 6.289062 47.648438 6.335938 47.636719 6.378906 47.613281 C 6.464844 47.5625 6.515625 47.472656 6.515625 47.371094 L 6.515625 43.425781 C 6.515625 43.324219 6.464844 43.234375 6.378906 43.183594 C 6.335938 43.160156 6.289062 43.148438 6.238281 43.148438 Z M 6.238281 43.425781 L 6.238281 47.371094 C 6.183594 47.335938 6.128906 47.300781 6.078125 47.265625 L 6.078125 43.53125 C 6.128906 43.496094 6.183594 43.457031 6.238281 43.425781 " fill-opacity="1" fill-rule="nonzero"/></g><g clip-path="url(#bd3495d65a)"><path fill="#2437eb" d="M 31.058594 47.878906 C 29.824219 47.878906 28.855469 47.285156 28.855469 46.527344 L 28.855469 44.292969 C 28.855469 43.535156 29.824219 42.941406 31.058594 42.941406 L 32.203125 42.941406 C 33.4375 42.941406 34.40625 43.535156 34.40625 44.292969 L 34.40625 46.527344 C 34.40625 47.285156 33.4375 47.878906 32.203125 47.878906 L 31.058594 47.878906 " fill-opacity="1" fill-rule="nonzero"/><path fill="#2437eb" d="M 32.203125 42.804688 L 31.058594 42.804688 C 29.746094 42.804688 28.71875 43.457031 28.71875 44.292969 L 28.71875 46.527344 C 28.71875 47.363281 29.746094 48.015625 31.058594 48.015625 L 32.203125 48.015625 C 33.515625 48.015625 34.542969 47.363281 34.542969 46.527344 L 34.542969 44.292969 C 34.542969 43.457031 33.515625 42.804688 32.203125 42.804688 Z M 32.203125 43.082031 C 33.34375 43.082031 34.265625 43.625 34.265625 44.292969 L 34.265625 46.527344 C 34.265625 47.199219 33.34375 47.738281 32.203125 47.738281 L 31.058594 47.738281 C 29.917969 47.738281 28.996094 47.199219 28.996094 46.527344 L 28.996094 44.292969 C 28.996094 43.625 29.917969 43.082031 31.058594 43.082031 L 32.203125 43.082031 " fill-opacity="1" fill-rule="nonzero"/></g><g clip-path="url(#1141fed107)"><path fill="#ffffff" d="M 30.414062 47.816406 L 30.386719 47.8125 C 30.339844 47.804688 30.296875 47.796875 30.25 47.785156 C 30.1875 47.769531 30.144531 47.714844 30.144531 47.652344 L 30.144531 43.167969 C 30.144531 43.105469 30.191406 43.046875 30.253906 43.035156 C 30.296875 43.023438 30.339844 43.015625 30.386719 43.003906 L 30.414062 43.003906 C 30.445312 43.003906 30.476562 43.015625 30.5 43.035156 C 30.53125 43.0625 30.550781 43.101562 30.550781 43.140625 L 30.550781 47.679688 C 30.550781 47.71875 30.53125 47.757812 30.5 47.785156 C 30.476562 47.804688 30.445312 47.816406 30.414062 47.816406 " fill-opacity="1" fill-rule="nonzero"/></g><g clip-path="url(#92fefdf039)"><path fill="#2437eb" d="M 30.414062 42.863281 C 30.394531 42.863281 30.378906 42.867188 30.359375 42.871094 C 30.3125 42.878906 30.265625 42.886719 30.222656 42.898438 C 30.09375 42.929688 30.007812 43.039062 30.007812 43.167969 L 30.007812 47.652344 C 30.007812 47.777344 30.09375 47.890625 30.21875 47.921875 C 30.265625 47.929688 30.3125 47.941406 30.359375 47.949219 C 30.378906 47.953125 30.394531 47.957031 30.414062 47.957031 C 30.476562 47.957031 30.539062 47.933594 30.589844 47.890625 C 30.652344 47.839844 30.691406 47.761719 30.691406 47.679688 L 30.691406 43.140625 C 30.691406 43.058594 30.652344 42.980469 30.589844 42.929688 C 30.539062 42.886719 30.476562 42.863281 30.414062 42.863281 Z M 30.414062 43.140625 L 30.414062 47.679688 C 30.371094 47.671875 30.324219 47.660156 30.285156 47.652344 L 30.285156 43.167969 C 30.324219 43.160156 30.371094 43.148438 30.414062 43.140625 " fill-opacity="1" fill-rule="nonzero"/></g><g clip-path="url(#a1f8e60f06)"><path fill="#ffffff" d="M 31.023438 47.878906 C 30.949219 47.878906 30.886719 47.816406 30.886719 47.738281 L 30.886719 43.082031 C 30.886719 43.007812 30.945312 42.945312 31.019531 42.941406 L 31.152344 42.941406 C 31.230469 42.941406 31.292969 43.003906 31.292969 43.082031 L 31.292969 47.738281 C 31.292969 47.816406 31.230469 47.878906 31.152344 47.878906 L 31.023438 47.878906 " fill-opacity="1" fill-rule="nonzero"/><path fill="#2437eb" d="M 31.152344 42.804688 L 31.058594 42.804688 C 31.042969 42.804688 31.03125 42.804688 31.015625 42.804688 C 30.867188 42.808594 30.746094 42.929688 30.746094 43.082031 L 30.746094 47.738281 C 30.746094 47.890625 30.871094 48.015625 31.023438 48.015625 L 31.152344 48.015625 C 31.304688 48.015625 31.429688 47.894531 31.429688 47.738281 L 31.429688 43.082031 C 31.429688 42.925781 31.304688 42.804688 31.152344 42.804688 Z M 31.152344 43.082031 L 31.152344 47.738281 L 31.058594 47.738281 C 31.046875 47.738281 31.035156 47.738281 31.023438 47.738281 L 31.023438 43.082031 C 31.035156 43.082031 31.046875 43.082031 31.058594 43.082031 L 31.152344 43.082031 " fill-opacity="1" fill-rule="nonzero"/></g><g clip-path="url(#af7d65ff31)"><path fill="#ffffff" d="M 31.925781 47.878906 C 31.847656 47.878906 31.789062 47.816406 31.789062 47.738281 L 31.789062 43.082031 C 31.789062 43.003906 31.847656 42.941406 31.925781 42.941406 L 32.054688 42.941406 C 32.132812 42.941406 32.195312 43.003906 32.195312 43.082031 L 32.195312 47.738281 C 32.195312 47.816406 32.132812 47.878906 32.054688 47.878906 L 31.925781 47.878906 " fill-opacity="1" fill-rule="nonzero"/><path fill="#2437eb" d="M 32.054688 42.804688 L 31.925781 42.804688 C 31.773438 42.804688 31.648438 42.925781 31.648438 43.082031 L 31.648438 47.738281 C 31.648438 47.894531 31.773438 48.015625 31.925781 48.015625 L 32.054688 48.015625 C 32.207031 48.015625 32.332031 47.894531 32.332031 47.738281 L 32.332031 43.082031 C 32.332031 42.925781 32.207031 42.804688 32.054688 42.804688 Z M 32.054688 43.082031 L 32.054688 47.738281 L 31.925781 47.738281 L 31.925781 43.082031 L 32.054688 43.082031 " fill-opacity="1" fill-rule="nonzero"/></g><g clip-path="url(#d411ac3ef9)"><path fill="#ffffff" d="M 32.859375 47.816406 C 32.828125 47.816406 32.796875 47.804688 32.773438 47.785156 C 32.738281 47.757812 32.722656 47.71875 32.722656 47.675781 L 32.722656 43.144531 C 32.722656 43.101562 32.738281 43.0625 32.773438 43.035156 C 32.796875 43.015625 32.828125 43.003906 32.859375 43.003906 L 32.886719 43.007812 C 32.945312 43.019531 33 43.03125 33.054688 43.046875 C 33.117188 43.058594 33.160156 43.117188 33.160156 43.179688 L 33.160156 47.640625 C 33.160156 47.703125 33.117188 47.761719 33.054688 47.773438 C 33 47.789062 32.945312 47.800781 32.886719 47.8125 L 32.859375 47.816406 " fill-opacity="1" fill-rule="nonzero"/></g><g clip-path="url(#838c7653eb)"><path fill="#2437eb" d="M 32.859375 42.867188 C 32.796875 42.867188 32.734375 42.886719 32.683594 42.929688 C 32.621094 42.980469 32.582031 43.0625 32.582031 43.144531 L 32.582031 47.675781 C 32.582031 47.761719 32.621094 47.839844 32.683594 47.890625 C 32.734375 47.933594 32.796875 47.953125 32.859375 47.953125 C 32.878906 47.953125 32.898438 47.953125 32.914062 47.949219 C 32.972656 47.9375 33.03125 47.925781 33.089844 47.910156 C 33.210938 47.878906 33.296875 47.769531 33.296875 47.640625 L 33.296875 43.179688 C 33.296875 43.050781 33.210938 42.941406 33.089844 42.910156 C 33.023438 42.894531 32.96875 42.882812 32.914062 42.871094 C 32.894531 42.867188 32.878906 42.867188 32.859375 42.867188 Z M 32.859375 43.144531 C 32.914062 43.152344 32.96875 43.167969 33.019531 43.179688 L 33.019531 47.640625 C 32.96875 47.652344 32.914062 47.664062 32.859375 47.675781 L 32.859375 43.144531 " fill-opacity="1" fill-rule="nonzero"/></g><g clip-path="url(#7ee6429e2e)"><path fill="#ffffff" d="M 33.664062 47.523438 C 33.640625 47.523438 33.617188 47.515625 33.597656 47.503906 C 33.554688 47.480469 33.527344 47.433594 33.527344 47.382812 L 33.527344 43.4375 C 33.527344 43.386719 33.554688 43.339844 33.597656 43.316406 C 33.617188 43.304688 33.640625 43.296875 33.664062 43.296875 C 33.6875 43.296875 33.714844 43.304688 33.734375 43.316406 C 33.792969 43.351562 33.851562 43.390625 33.910156 43.433594 C 33.945312 43.457031 33.964844 43.5 33.964844 43.542969 L 33.964844 47.277344 C 33.964844 47.320312 33.945312 47.359375 33.910156 47.386719 C 33.855469 47.425781 33.796875 47.464844 33.734375 47.503906 C 33.714844 47.515625 33.6875 47.523438 33.664062 47.523438 " fill-opacity="1" fill-rule="nonzero"/></g><g clip-path="url(#a78c755018)"><path fill="#2437eb" d="M 33.664062 43.160156 C 33.617188 43.160156 33.570312 43.171875 33.527344 43.195312 C 33.441406 43.246094 33.386719 43.335938 33.386719 43.4375 L 33.386719 47.382812 C 33.386719 47.484375 33.441406 47.574219 33.527344 47.625 C 33.570312 47.648438 33.617188 47.660156 33.664062 47.660156 C 33.714844 47.660156 33.761719 47.648438 33.804688 47.621094 C 33.871094 47.582031 33.933594 47.542969 33.992188 47.496094 C 34.0625 47.445312 34.101562 47.363281 34.101562 47.277344 L 34.101562 43.542969 C 34.101562 43.457031 34.0625 43.375 33.992188 43.320312 C 33.929688 43.277344 33.867188 43.234375 33.804688 43.199219 C 33.761719 43.171875 33.714844 43.160156 33.664062 43.160156 Z M 33.664062 43.4375 C 33.722656 43.46875 33.777344 43.507812 33.824219 43.542969 L 33.824219 47.277344 C 33.777344 47.3125 33.722656 47.351562 33.664062 47.382812 L 33.664062 43.4375 " fill-opacity="1" fill-rule="nonzero"/></g><g clip-path="url(#2dabe31b7d)"><path fill="#ffffff" d="M 29.597656 47.507812 C 29.570312 47.507812 29.546875 47.503906 29.527344 47.492188 C 29.46875 47.457031 29.410156 47.417969 29.351562 47.375 C 29.316406 47.347656 29.296875 47.308594 29.296875 47.265625 L 29.296875 43.53125 C 29.296875 43.488281 29.316406 43.445312 29.351562 43.421875 C 29.40625 43.378906 29.464844 43.339844 29.527344 43.304688 C 29.546875 43.292969 29.570312 43.285156 29.597656 43.285156 C 29.621094 43.285156 29.644531 43.292969 29.664062 43.304688 C 29.707031 43.328125 29.734375 43.375 29.734375 43.425781 L 29.734375 47.371094 C 29.734375 47.421875 29.707031 47.46875 29.664062 47.492188 C 29.644531 47.503906 29.621094 47.507812 29.597656 47.507812 " fill-opacity="1" fill-rule="nonzero"/><path fill="#2437eb" d="M 29.597656 43.148438 C 29.546875 43.148438 29.5 43.160156 29.457031 43.1875 C 29.390625 43.222656 29.328125 43.265625 29.269531 43.308594 C 29.199219 43.359375 29.15625 43.445312 29.15625 43.53125 L 29.15625 47.265625 C 29.15625 47.351562 29.199219 47.433594 29.269531 47.488281 C 29.332031 47.53125 29.394531 47.574219 29.457031 47.609375 C 29.5 47.636719 29.546875 47.648438 29.597656 47.648438 C 29.644531 47.648438 29.691406 47.636719 29.734375 47.613281 C 29.820312 47.5625 29.875 47.472656 29.875 47.371094 L 29.875 43.425781 C 29.875 43.324219 29.820312 43.234375 29.734375 43.183594 C 29.691406 43.160156 29.644531 43.148438 29.597656 43.148438 Z M 29.597656 43.425781 L 29.597656 47.371094 C 29.539062 47.335938 29.484375 47.300781 29.433594 47.265625 L 29.433594 43.53125 C 29.484375 43.496094 29.539062 43.457031 29.597656 43.425781 " fill-opacity="1" fill-rule="nonzero"/></g><path fill="#ffffff" d="M 19.914062 44.816406 C 12.9375 44.816406 6.707031 44.25 3.644531 43.34375 C 3.589844 43.328125 3.554688 43.28125 3.546875 43.230469 C 3.535156 43.160156 2.621094 36.425781 6.359375 33.167969 C 7.574219 32.113281 8.101562 31.355469 8.152344 31.28125 C 8.324219 30.933594 11.261719 25.105469 12.691406 24.230469 C 12.710938 24.214844 12.738281 24.207031 12.765625 24.207031 L 26.820312 24.207031 C 26.84375 24.207031 26.871094 24.214844 26.890625 24.226562 C 28.59375 25.242188 31.324219 31.046875 31.4375 31.292969 C 31.601562 31.597656 32.46875 32.515625 33.101562 33.1875 C 33.28125 33.378906 33.453125 33.5625 33.597656 33.71875 C 37.039062 37.433594 36.289062 43.171875 36.28125 43.226562 C 36.273438 43.28125 36.234375 43.328125 36.183594 43.34375 C 33.121094 44.25 26.886719 44.816406 19.914062 44.816406 " fill-opacity="1" fill-rule="nonzero"/><path fill="#2437eb" d="M 26.820312 24.070312 L 12.765625 24.070312 C 12.710938 24.070312 12.660156 24.082031 12.617188 24.109375 C 11.167969 25.003906 8.246094 30.785156 8.03125 31.210938 C 7.964844 31.308594 7.441406 32.046875 6.269531 33.0625 C 4.691406 34.4375 3.699219 36.636719 3.394531 39.429688 C 3.164062 41.515625 3.398438 43.179688 3.40625 43.25 C 3.421875 43.355469 3.5 43.445312 3.601562 43.476562 C 6.722656 44.402344 12.820312 44.953125 19.914062 44.953125 C 27.003906 44.953125 33.101562 44.402344 36.222656 43.476562 C 36.328125 43.445312 36.402344 43.355469 36.417969 43.246094 C 36.425781 43.1875 36.617188 41.769531 36.382812 39.867188 C 36.167969 38.105469 35.523438 35.59375 33.699219 33.621094 C 33.554688 33.46875 33.382812 33.285156 33.199219 33.089844 C 32.578125 32.429688 31.726562 31.527344 31.558594 31.226562 C 31.402344 30.886719 28.683594 25.136719 26.960938 24.109375 C 26.917969 24.082031 26.871094 24.070312 26.820312 24.070312 Z M 26.820312 24.347656 C 28.503906 25.351562 31.3125 31.351562 31.3125 31.351562 C 31.535156 31.765625 32.820312 33.078125 33.496094 33.8125 C 36.933594 37.523438 36.144531 43.207031 36.144531 43.207031 C 32.847656 44.1875 26.378906 44.675781 19.914062 44.675781 C 13.445312 44.675781 6.980469 44.1875 3.683594 43.207031 C 3.683594 43.207031 2.722656 36.519531 6.453125 33.273438 C 7.757812 32.136719 8.269531 31.351562 8.269531 31.351562 C 8.269531 31.351562 11.339844 25.222656 12.765625 24.347656 L 26.820312 24.347656 " fill-opacity="1" fill-rule="nonzero"/><path fill="#ffffff" d="M 19.957031 44.816406 C 19.941406 44.816406 19.917969 44.816406 19.890625 44.8125 C 19.824219 44.8125 19.722656 44.808594 19.5625 44.808594 C 19.503906 44.808594 19.457031 44.773438 19.433594 44.722656 C 17.855469 41.019531 15.25 37.144531 12.464844 34.363281 C 11.328125 33.222656 9.9375 32.269531 8.21875 31.453125 C 8.15625 31.425781 8.125 31.359375 8.140625 31.292969 C 8.25 30.871094 10.785156 25.328125 12.695312 24.226562 C 13.878906 23.542969 17.484375 23.46875 18.980469 23.46875 C 22.429688 23.46875 25.824219 23.792969 26.871094 24.21875 C 28.300781 24.796875 31.277344 30.644531 31.4375 31.273438 C 31.449219 31.328125 31.429688 31.386719 31.382812 31.417969 C 30.148438 32.3125 28.933594 33.359375 27.675781 34.617188 C 24.234375 38.058594 21.804688 41.457031 20.449219 44.71875 C 20.429688 44.769531 20.378906 44.804688 20.324219 44.804688 C 20.179688 44.808594 20.082031 44.808594 20.015625 44.808594 C 20 44.8125 19.980469 44.816406 19.957031 44.816406 " fill-opacity="1" fill-rule="nonzero"/><path fill="#2437eb" d="M 18.980469 23.332031 C 17.109375 23.332031 13.792969 23.433594 12.625 24.105469 C 10.683594 25.226562 8.113281 30.832031 8.007812 31.261719 C 7.976562 31.386719 8.039062 31.519531 8.15625 31.578125 C 9.863281 32.390625 11.238281 33.332031 12.367188 34.460938 C 15.140625 37.230469 17.734375 41.089844 19.308594 44.777344 C 19.351562 44.878906 19.449219 44.945312 19.558594 44.945312 C 19.722656 44.949219 19.828125 44.949219 19.894531 44.949219 C 19.914062 44.953125 19.933594 44.953125 19.957031 44.953125 C 19.984375 44.953125 20.007812 44.953125 20.03125 44.949219 C 20.09375 44.945312 20.183594 44.945312 20.328125 44.945312 C 20.4375 44.941406 20.535156 44.875 20.578125 44.773438 C 21.925781 41.527344 24.347656 38.144531 27.773438 34.714844 C 29.027344 33.460938 30.234375 32.417969 31.464844 31.53125 C 31.554688 31.464844 31.597656 31.347656 31.570312 31.238281 C 31.480469 30.878906 30.648438 29.207031 29.757812 27.675781 C 28.519531 25.558594 27.570312 24.351562 26.925781 24.089844 C 25.714844 23.597656 21.925781 23.332031 18.980469 23.332031 Z M 19.914062 44.675781 C 20.019531 44.675781 19.996094 44.675781 19.957031 44.675781 C 19.921875 44.675781 19.867188 44.675781 19.914062 44.675781 M 18.980469 23.609375 C 22.261719 23.609375 25.757812 23.914062 26.820312 24.347656 C 28.183594 24.898438 31.152344 30.722656 31.300781 31.308594 C 29.964844 32.273438 28.75 33.34375 27.578125 34.519531 C 24.65625 37.4375 21.882812 40.902344 20.324219 44.667969 C 20.0625 44.671875 19.949219 44.671875 19.914062 44.675781 C 19.847656 44.671875 19.738281 44.671875 19.5625 44.667969 C 18.003906 41.015625 15.410156 37.109375 12.5625 34.265625 C 11.277344 32.976562 9.792969 32.050781 8.277344 31.328125 C 8.382812 30.898438 10.910156 25.414062 12.765625 24.347656 C 13.675781 23.820312 16.253906 23.609375 18.980469 23.609375 " fill-opacity="1" fill-rule="nonzero"/><path fill="#ffffff" d="M 17.199219 39.371094 C 17.164062 39.371094 17.125 39.355469 17.101562 39.328125 C 17.074219 39.296875 17.058594 39.261719 17.0625 39.222656 L 17.542969 31.507812 L 16.660156 25.058594 C 16.660156 25.039062 16.660156 25.019531 16.664062 25 L 17.066406 23.601562 C 17.085938 23.546875 17.136719 23.503906 17.195312 23.503906 C 17.757812 23.480469 18.355469 23.46875 18.976562 23.46875 C 20.207031 23.46875 21.488281 23.511719 22.683594 23.59375 C 22.742188 23.597656 22.789062 23.636719 22.808594 23.691406 L 23.214844 24.996094 C 23.21875 25.015625 23.222656 25.039062 23.21875 25.058594 L 22.332031 31.507812 L 22.8125 39.222656 C 22.816406 39.261719 22.800781 39.296875 22.777344 39.328125 C 22.75 39.355469 22.714844 39.371094 22.675781 39.371094 L 17.199219 39.371094 " fill-opacity="1" fill-rule="nonzero"/><path fill="#2437eb" d="M 18.976562 23.332031 C 18.355469 23.332031 17.753906 23.34375 17.191406 23.363281 C 17.070312 23.367188 16.96875 23.449219 16.933594 23.566406 L 16.53125 24.960938 C 16.519531 25 16.519531 25.039062 16.523438 25.078125 L 17.40625 31.511719 L 16.925781 39.214844 C 16.917969 39.289062 16.945312 39.363281 17 39.421875 C 17.050781 39.476562 17.125 39.507812 17.199219 39.507812 L 22.675781 39.507812 C 22.753906 39.507812 22.824219 39.476562 22.878906 39.421875 C 22.929688 39.363281 22.957031 39.289062 22.953125 39.214844 L 22.472656 31.511719 L 23.355469 25.078125 C 23.363281 25.035156 23.359375 24.996094 23.347656 24.957031 L 22.941406 23.652344 C 22.90625 23.542969 22.808594 23.464844 22.695312 23.457031 C 21.496094 23.375 20.210938 23.332031 18.976562 23.332031 Z M 18.976562 23.609375 C 20.226562 23.609375 21.507812 23.652344 22.675781 23.734375 L 23.082031 25.039062 L 22.191406 31.503906 L 22.675781 39.230469 L 17.199219 39.230469 L 17.683594 31.503906 L 16.796875 25.039062 L 17.199219 23.640625 C 17.773438 23.621094 18.371094 23.609375 18.976562 23.609375 " fill-opacity="1" fill-rule="nonzero"/><path fill="#2437eb" d="M 15.042969 42.738281 C 14.964844 42.738281 14.90625 42.675781 14.90625 42.597656 L 14.90625 38.589844 C 14.90625 38.511719 14.964844 38.449219 15.042969 38.449219 L 25.058594 38.449219 C 25.136719 38.449219 25.199219 38.511719 25.199219 38.589844 L 25.199219 42.597656 C 25.199219 42.675781 25.136719 42.738281 25.058594 42.738281 L 15.042969 42.738281 " fill-opacity="1" fill-rule="nonzero"/><path fill="#2437eb" d="M 25.058594 38.3125 L 15.042969 38.3125 C 14.890625 38.3125 14.765625 38.4375 14.765625 38.589844 L 14.765625 42.597656 C 14.765625 42.753906 14.890625 42.875 15.042969 42.875 L 25.058594 42.875 C 25.214844 42.875 25.335938 42.753906 25.335938 42.597656 L 25.335938 38.589844 C 25.335938 38.4375 25.214844 38.3125 25.058594 38.3125 Z M 25.058594 38.589844 L 25.058594 42.597656 L 15.042969 42.597656 L 15.042969 38.589844 L 25.058594 38.589844 " fill-opacity="1" fill-rule="nonzero"/><path fill="#ffffff" d="M 15.292969 39.234375 C 15.214844 39.234375 15.152344 39.171875 15.152344 39.09375 L 15.152344 38.757812 C 15.152344 38.679688 15.214844 38.617188 15.292969 38.617188 L 24.808594 38.617188 C 24.886719 38.617188 24.949219 38.679688 24.949219 38.757812 L 24.949219 39.09375 C 24.949219 39.171875 24.886719 39.234375 24.808594 39.234375 L 15.292969 39.234375 " fill-opacity="1" fill-rule="nonzero"/><path fill="#2437eb" d="M 24.808594 38.480469 L 15.292969 38.480469 C 15.140625 38.480469 15.015625 38.601562 15.015625 38.757812 L 15.015625 39.09375 C 15.015625 39.246094 15.140625 39.371094 15.292969 39.371094 L 24.808594 39.371094 C 24.960938 39.371094 25.085938 39.246094 25.085938 39.09375 L 25.085938 38.757812 C 25.085938 38.601562 24.960938 38.480469 24.808594 38.480469 Z M 24.808594 38.757812 L 24.808594 39.09375 L 15.292969 39.09375 L 15.292969 38.757812 L 24.808594 38.757812 " fill-opacity="1" fill-rule="nonzero"/><path fill="#ffffff" d="M 15.292969 39.738281 C 15.214844 39.738281 15.152344 39.679688 15.152344 39.601562 L 15.152344 39.261719 C 15.152344 39.1875 15.214844 39.125 15.292969 39.125 L 24.808594 39.125 C 24.886719 39.125 24.949219 39.1875 24.949219 39.261719 L 24.949219 39.601562 C 24.949219 39.679688 24.886719 39.738281 24.808594 39.738281 L 15.292969 39.738281 " fill-opacity="1" fill-rule="nonzero"/><path fill="#2437eb" d="M 24.808594 38.984375 L 15.292969 38.984375 C 15.140625 38.984375 15.015625 39.109375 15.015625 39.261719 L 15.015625 39.601562 C 15.015625 39.753906 15.140625 39.878906 15.292969 39.878906 L 24.808594 39.878906 C 24.960938 39.878906 25.085938 39.753906 25.085938 39.601562 L 25.085938 39.261719 C 25.085938 39.109375 24.960938 38.984375 24.808594 38.984375 Z M 24.808594 39.261719 L 24.808594 39.601562 L 15.292969 39.601562 L 15.292969 39.261719 L 24.808594 39.261719 " fill-opacity="1" fill-rule="nonzero"/><path fill="#ffffff" d="M 15.292969 40.246094 C 15.214844 40.246094 15.152344 40.183594 15.152344 40.109375 L 15.152344 39.769531 C 15.152344 39.695312 15.214844 39.632812 15.292969 39.632812 L 24.808594 39.632812 C 24.886719 39.632812 24.949219 39.695312 24.949219 39.769531 L 24.949219 40.109375 C 24.949219 40.183594 24.886719 40.246094 24.808594 40.246094 L 15.292969 40.246094 " fill-opacity="1" fill-rule="nonzero"/><path fill="#2437eb" d="M 24.808594 39.492188 L 15.292969 39.492188 C 15.140625 39.492188 15.015625 39.617188 15.015625 39.769531 L 15.015625 40.109375 C 15.015625 40.261719 15.140625 40.386719 15.292969 40.386719 L 24.808594 40.386719 C 24.960938 40.386719 25.085938 40.261719 25.085938 40.109375 L 25.085938 39.769531 C 25.085938 39.617188 24.960938 39.492188 24.808594 39.492188 Z M 24.808594 39.769531 L 24.808594 40.109375 L 15.292969 40.109375 L 15.292969 39.769531 L 24.808594 39.769531 " fill-opacity="1" fill-rule="nonzero"/><path fill="#ffffff" d="M 15.292969 40.753906 C 15.214844 40.753906 15.152344 40.691406 15.152344 40.617188 L 15.152344 40.277344 C 15.152344 40.203125 15.214844 40.140625 15.292969 40.140625 L 24.808594 40.140625 C 24.886719 40.140625 24.949219 40.203125 24.949219 40.277344 L 24.949219 40.617188 C 24.949219 40.691406 24.886719 40.753906 24.808594 40.753906 L 15.292969 40.753906 " fill-opacity="1" fill-rule="nonzero"/><path fill="#2437eb" d="M 24.808594 40 L 15.292969 40 C 15.140625 40 15.015625 40.125 15.015625 40.277344 L 15.015625 40.617188 C 15.015625 40.769531 15.140625 40.894531 15.292969 40.894531 L 24.808594 40.894531 C 24.960938 40.894531 25.085938 40.769531 25.085938 40.617188 L 25.085938 40.277344 C 25.085938 40.125 24.960938 40 24.808594 40 Z M 24.808594 40.277344 L 24.808594 40.617188 L 15.292969 40.617188 L 15.292969 40.277344 L 24.808594 40.277344 " fill-opacity="1" fill-rule="nonzero"/><path fill="#ffffff" d="M 15.292969 41.261719 C 15.214844 41.261719 15.152344 41.199219 15.152344 41.121094 L 15.152344 40.785156 C 15.152344 40.707031 15.214844 40.648438 15.292969 40.648438 L 24.808594 40.648438 C 24.886719 40.648438 24.949219 40.707031 24.949219 40.785156 L 24.949219 41.121094 C 24.949219 41.199219 24.886719 41.261719 24.808594 41.261719 L 15.292969 41.261719 " fill-opacity="1" fill-rule="nonzero"/><path fill="#2437eb" d="M 24.808594 40.507812 L 15.292969 40.507812 C 15.140625 40.507812 15.015625 40.632812 15.015625 40.785156 L 15.015625 41.121094 C 15.015625 41.277344 15.140625 41.398438 15.292969 41.398438 L 24.808594 41.398438 C 24.960938 41.398438 25.085938 41.277344 25.085938 41.121094 L 25.085938 40.785156 C 25.085938 40.632812 24.960938 40.507812 24.808594 40.507812 Z M 24.808594 40.785156 L 24.808594 41.121094 L 15.292969 41.121094 L 15.292969 40.785156 L 24.808594 40.785156 " fill-opacity="1" fill-rule="nonzero"/><path fill="#ffffff" d="M 14.832031 31.640625 L 9.453125 31.253906 C 9.414062 31.25 9.375 31.230469 9.351562 31.195312 C 9.328125 31.164062 9.320312 31.121094 9.328125 31.082031 C 9.5625 30.183594 11.03125 26.273438 13.429688 24.917969 C 13.449219 24.90625 13.472656 24.902344 13.496094 24.902344 L 26.085938 24.902344 C 26.109375 24.902344 26.132812 24.90625 26.15625 24.917969 C 28.554688 26.273438 30.019531 30.183594 30.253906 31.082031 C 30.265625 31.121094 30.257812 31.164062 30.230469 31.195312 C 30.207031 31.230469 30.167969 31.25 30.128906 31.253906 L 24.109375 31.640625 L 14.832031 31.640625 " fill-opacity="1" fill-rule="nonzero"/><path fill="#2437eb" d="M 26.085938 24.761719 L 13.496094 24.761719 C 13.449219 24.761719 13.402344 24.773438 13.359375 24.796875 C 10.921875 26.175781 9.433594 30.136719 9.195312 31.046875 C 9.175781 31.125 9.191406 31.210938 9.238281 31.277344 C 9.285156 31.34375 9.363281 31.386719 9.445312 31.390625 L 14.8125 31.777344 L 14.832031 31.78125 L 24.109375 31.78125 L 24.125 31.777344 L 30.136719 31.390625 C 30.21875 31.386719 30.296875 31.34375 30.34375 31.277344 C 30.394531 31.210938 30.410156 31.125 30.386719 31.046875 C 30.152344 30.136719 28.664062 26.175781 26.222656 24.796875 C 26.179688 24.773438 26.132812 24.761719 26.085938 24.761719 Z M 26.085938 25.039062 C 28.425781 26.359375 29.886719 30.21875 30.121094 31.117188 L 24.109375 31.503906 L 14.832031 31.503906 L 9.464844 31.117188 C 9.699219 30.21875 11.160156 26.359375 13.496094 25.039062 L 26.085938 25.039062 " fill-opacity="1" fill-rule="nonzero"/><path fill="#2437eb" d="M 14.914062 31.0625 L 9.605469 30.703125 C 9.566406 30.699219 9.527344 30.679688 9.503906 30.644531 C 9.480469 30.609375 9.472656 30.566406 9.484375 30.527344 C 9.65625 29.90625 11.121094 26.230469 13.429688 24.917969 C 13.449219 24.90625 13.472656 24.902344 13.496094 24.902344 L 26.085938 24.902344 C 26.113281 24.902344 26.136719 24.90625 26.160156 24.921875 C 28.515625 26.355469 29.886719 29.761719 30.101562 30.53125 C 30.113281 30.570312 30.105469 30.613281 30.082031 30.648438 C 30.058594 30.679688 30.019531 30.703125 29.976562 30.707031 L 24.070312 31.0625 L 14.914062 31.0625 " fill-opacity="1" fill-rule="nonzero"/><path fill="#2437eb" d="M 26.085938 24.761719 L 13.496094 24.761719 C 13.449219 24.761719 13.402344 24.773438 13.359375 24.796875 C 11.191406 26.03125 9.640625 29.449219 9.347656 30.488281 C 9.328125 30.570312 9.34375 30.65625 9.390625 30.722656 C 9.4375 30.792969 9.515625 30.835938 9.597656 30.839844 L 14.894531 31.199219 L 24.089844 31.199219 L 29.984375 30.84375 C 30.066406 30.839844 30.144531 30.796875 30.195312 30.726562 C 30.242188 30.660156 30.257812 30.574219 30.234375 30.492188 C 30.003906 29.664062 28.648438 26.273438 26.230469 24.800781 C 26.1875 24.777344 26.136719 24.761719 26.085938 24.761719 Z M 26.085938 25.039062 C 28.382812 26.4375 29.734375 29.734375 29.96875 30.566406 L 24.070312 30.921875 L 14.914062 30.921875 L 9.617188 30.566406 C 9.847656 29.730469 11.332031 26.269531 13.496094 25.039062 L 26.085938 25.039062 " fill-opacity="1" fill-rule="nonzero"/><path fill="#ffffff" d="M 19.914062 44.523438 C 12.9375 44.523438 6.707031 43.960938 3.644531 43.050781 C 3.597656 43.039062 3.558594 43 3.546875 42.953125 C 3.539062 42.921875 3.339844 42.136719 3.433594 40.945312 C 3.4375 40.902344 3.457031 40.867188 3.492188 40.84375 C 3.515625 40.828125 3.542969 40.816406 3.570312 40.816406 C 3.585938 40.816406 3.597656 40.820312 3.609375 40.824219 C 5.683594 41.425781 9.453125 41.886719 14.226562 42.117188 C 14.277344 42.054688 14.359375 41.84375 14.410156 41.714844 C 14.542969 41.375 14.640625 41.128906 14.832031 41.128906 C 16.8125 41.214844 18.382812 41.253906 19.941406 41.253906 C 21.558594 41.253906 23.195312 41.210938 25.246094 41.117188 C 25.464844 41.117188 25.597656 41.382812 25.75 41.6875 C 25.816406 41.828125 25.933594 42.058594 25.996094 42.097656 C 30.492188 41.863281 34.105469 41.40625 36.164062 40.804688 C 36.179688 40.800781 36.191406 40.800781 36.203125 40.800781 C 36.230469 40.800781 36.257812 40.808594 36.28125 40.824219 C 36.316406 40.847656 36.339844 40.886719 36.34375 40.925781 C 36.4375 42.113281 36.285156 42.910156 36.28125 42.945312 C 36.269531 42.996094 36.230469 43.039062 36.183594 43.050781 C 33.121094 43.960938 26.886719 44.523438 19.914062 44.523438 " fill-opacity="1" fill-rule="nonzero"/><path fill="#2437eb" d="M 36.203125 40.660156 C 36.179688 40.660156 36.152344 40.664062 36.125 40.671875 C 34.085938 41.265625 30.511719 41.722656 26.054688 41.953125 C 26 41.882812 25.921875 41.726562 25.871094 41.625 C 25.707031 41.292969 25.550781 40.980469 25.257812 40.980469 L 25.238281 40.980469 C 23.191406 41.074219 21.558594 41.113281 19.941406 41.113281 C 18.386719 41.113281 16.816406 41.078125 14.84375 40.992188 L 14.832031 40.992188 C 14.542969 40.992188 14.429688 41.289062 14.28125 41.664062 C 14.246094 41.753906 14.191406 41.894531 14.152344 41.972656 C 9.425781 41.742188 5.699219 41.289062 3.648438 40.691406 C 3.625 40.683594 3.597656 40.679688 3.570312 40.679688 C 3.515625 40.679688 3.460938 40.695312 3.414062 40.730469 C 3.34375 40.777344 3.300781 40.851562 3.296875 40.933594 C 3.199219 42.148438 3.40625 42.957031 3.414062 42.988281 C 3.4375 43.082031 3.511719 43.15625 3.601562 43.183594 C 6.722656 44.109375 12.820312 44.664062 19.914062 44.664062 C 27.003906 44.664062 33.101562 44.109375 36.222656 43.183594 C 36.320312 43.15625 36.394531 43.074219 36.414062 42.972656 C 36.421875 42.9375 36.574219 42.121094 36.480469 40.917969 C 36.472656 40.832031 36.429688 40.757812 36.363281 40.710938 C 36.316406 40.675781 36.261719 40.660156 36.203125 40.660156 Z M 36.203125 40.9375 C 36.296875 42.117188 36.144531 42.917969 36.144531 42.917969 C 32.847656 43.898438 26.378906 44.386719 19.914062 44.386719 C 13.445312 44.386719 6.980469 43.898438 3.683594 42.917969 C 3.683594 42.917969 3.476562 42.136719 3.570312 40.957031 C 5.824219 41.613281 9.863281 42.046875 14.25 42.257812 L 14.253906 42.257812 C 14.445312 42.257812 14.636719 41.269531 14.832031 41.269531 C 16.734375 41.351562 18.34375 41.390625 19.941406 41.390625 C 21.613281 41.390625 23.273438 41.347656 25.253906 41.257812 L 25.257812 41.257812 C 25.5 41.257812 25.746094 42.234375 25.988281 42.234375 L 25.992188 42.234375 C 30.207031 42.019531 34.023438 41.574219 36.203125 40.9375 " fill-opacity="1" fill-rule="nonzero"/><path fill="#2437eb" d="M 19.914062 45.546875 C 12.9375 45.546875 6.707031 44.984375 3.644531 44.074219 C 3.589844 44.058594 3.550781 44.015625 3.546875 43.960938 C 3.535156 43.898438 3.339844 42.417969 3.433594 41.234375 C 3.4375 41.195312 3.457031 41.15625 3.492188 41.132812 C 3.515625 41.117188 3.542969 41.109375 3.570312 41.109375 C 3.585938 41.109375 3.597656 41.109375 3.609375 41.113281 C 6.675781 42.003906 12.925781 42.558594 19.921875 42.558594 C 26.898438 42.558594 33.128906 42.007812 36.183594 41.117188 C 36.199219 41.113281 36.210938 41.113281 36.222656 41.113281 C 36.25 41.113281 36.277344 41.121094 36.300781 41.136719 C 36.332031 41.15625 36.355469 41.191406 36.359375 41.230469 C 36.527344 42.433594 36.289062 43.902344 36.28125 43.964844 C 36.269531 44.019531 36.234375 44.0625 36.183594 44.074219 C 33.121094 44.984375 26.886719 45.546875 19.914062 45.546875 " fill-opacity="1" fill-rule="nonzero"/><path fill="#2437eb" d="M 3.570312 40.96875 C 3.515625 40.96875 3.460938 40.984375 3.414062 41.019531 C 3.34375 41.066406 3.300781 41.140625 3.296875 41.226562 C 3.199219 42.421875 3.398438 43.917969 3.40625 43.980469 C 3.421875 44.089844 3.5 44.179688 3.601562 44.210938 C 6.722656 45.132812 12.820312 45.6875 19.914062 45.6875 C 27.003906 45.6875 33.101562 45.132812 36.222656 44.210938 C 36.324219 44.179688 36.398438 44.09375 36.417969 43.988281 C 36.425781 43.925781 36.667969 42.433594 36.5 41.210938 C 36.488281 41.132812 36.441406 41.0625 36.375 41.019531 C 36.328125 40.988281 36.277344 40.972656 36.222656 40.972656 C 36.199219 40.972656 36.171875 40.976562 36.144531 40.984375 C 33.101562 41.871094 26.886719 42.421875 19.921875 42.421875 C 12.9375 42.421875 6.703125 41.867188 3.648438 40.980469 C 3.625 40.972656 3.597656 40.96875 3.570312 40.96875 Z M 3.570312 41.246094 C 6.894531 42.214844 13.410156 42.699219 19.921875 42.699219 C 26.414062 42.699219 32.910156 42.214844 36.222656 41.25 C 36.390625 42.445312 36.144531 43.941406 36.144531 43.941406 C 32.847656 44.921875 26.378906 45.410156 19.914062 45.410156 C 13.445312 45.410156 6.980469 44.921875 3.683594 43.941406 C 3.683594 43.941406 3.476562 42.425781 3.570312 41.246094 " fill-opacity="1" fill-rule="nonzero"/><path fill="#ffffff" d="M 29.023438 40.964844 C 28.386719 40.964844 27.878906 40.925781 27.511719 40.847656 C 27.46875 40.839844 27.433594 40.8125 27.414062 40.773438 C 27.394531 40.734375 27.394531 40.691406 27.414062 40.652344 C 27.429688 40.617188 29.140625 37.25 32.328125 36.222656 C 32.34375 36.21875 32.355469 36.214844 32.371094 36.214844 L 32.378906 36.214844 C 32.390625 36.214844 32.714844 36.238281 32.972656 36.605469 C 33.304688 37.070312 33.546875 38.144531 32.816406 40.597656 C 32.800781 40.652344 32.753906 40.691406 32.703125 40.695312 C 32.679688 40.699219 30.675781 40.964844 29.023438 40.964844 " fill-opacity="1" fill-rule="nonzero"/><path fill="#2437eb" d="M 32.371094 36.078125 C 32.34375 36.078125 32.3125 36.082031 32.285156 36.089844 C 29.042969 37.132812 27.359375 40.449219 27.289062 40.589844 C 27.253906 40.664062 27.25 40.757812 27.289062 40.832031 C 27.328125 40.910156 27.398438 40.964844 27.484375 40.984375 C 27.859375 41.0625 28.378906 41.101562 29.023438 41.101562 C 30.683594 41.101562 32.699219 40.835938 32.71875 40.835938 C 32.828125 40.820312 32.917969 40.742188 32.949219 40.636719 C 33.546875 38.625 33.59375 37.242188 33.089844 36.523438 C 32.796875 36.109375 32.425781 36.078125 32.386719 36.078125 Z M 32.371094 36.355469 C 32.371094 36.355469 33.90625 36.4375 32.683594 40.558594 C 32.683594 40.558594 30.683594 40.824219 29.023438 40.824219 C 28.457031 40.824219 27.933594 40.792969 27.539062 40.710938 C 27.539062 40.710938 29.199219 37.375 32.371094 36.355469 " fill-opacity="1" fill-rule="nonzero"/><path fill="#ffffff" d="M 31.535156 40.824219 C 31.496094 40.824219 31.460938 40.808594 31.433594 40.78125 C 31.40625 40.75 31.390625 40.707031 31.398438 40.664062 C 31.621094 39.292969 31.753906 37.894531 31.789062 36.511719 C 31.789062 36.457031 31.824219 36.40625 31.875 36.386719 C 32.023438 36.328125 32.175781 36.273438 32.328125 36.222656 C 32.34375 36.21875 32.355469 36.214844 32.371094 36.214844 L 32.378906 36.214844 C 32.390625 36.214844 32.714844 36.238281 32.972656 36.605469 C 33.304688 37.070312 33.546875 38.144531 32.816406 40.597656 C 32.800781 40.652344 32.753906 40.691406 32.703125 40.695312 C 32.695312 40.699219 32.21875 40.761719 31.546875 40.824219 L 31.535156 40.824219 " fill-opacity="1" fill-rule="nonzero"/><path fill="#2437eb" d="M 32.371094 36.078125 C 32.34375 36.078125 32.3125 36.082031 32.285156 36.089844 C 32.128906 36.140625 31.972656 36.195312 31.824219 36.257812 C 31.722656 36.300781 31.652344 36.398438 31.652344 36.507812 C 31.613281 37.886719 31.484375 39.277344 31.261719 40.640625 C 31.246094 40.726562 31.273438 40.8125 31.332031 40.875 C 31.386719 40.933594 31.460938 40.964844 31.535156 40.964844 L 31.5625 40.960938 C 32.234375 40.898438 32.714844 40.835938 32.71875 40.835938 C 32.828125 40.820312 32.917969 40.742188 32.949219 40.636719 C 33.546875 38.625 33.59375 37.242188 33.089844 36.523438 C 32.796875 36.109375 32.425781 36.078125 32.386719 36.078125 Z M 32.371094 36.355469 C 32.371094 36.355469 33.90625 36.4375 32.683594 40.558594 C 32.683594 40.558594 32.210938 40.621094 31.535156 40.6875 C 31.757812 39.3125 31.890625 37.917969 31.929688 36.515625 C 32.074219 36.457031 32.21875 36.402344 32.371094 36.355469 " fill-opacity="1" fill-rule="nonzero"/><path fill="#ffffff" d="M 31.535156 40.824219 C 31.496094 40.824219 31.460938 40.808594 31.433594 40.78125 C 31.40625 40.75 31.390625 40.707031 31.398438 40.664062 C 31.453125 40.339844 31.46875 40.1875 31.5 39.9375 L 31.527344 39.707031 C 31.53125 39.648438 31.578125 39.601562 31.632812 39.585938 L 32.945312 39.296875 L 32.972656 39.292969 C 33.007812 39.292969 33.042969 39.308594 33.070312 39.335938 C 33.105469 39.367188 33.117188 39.414062 33.109375 39.460938 C 33.035156 39.8125 32.933594 40.195312 32.816406 40.597656 C 32.800781 40.652344 32.753906 40.691406 32.703125 40.695312 C 32.695312 40.699219 32.21875 40.761719 31.546875 40.824219 L 31.535156 40.824219 " fill-opacity="1" fill-rule="nonzero"/><path fill="#2437eb" d="M 32.972656 39.15625 L 32.960938 39.15625 C 32.945312 39.15625 32.925781 39.160156 32.90625 39.164062 L 31.605469 39.453125 C 31.488281 39.476562 31.402344 39.574219 31.386719 39.6875 C 31.378906 39.777344 31.367188 39.855469 31.359375 39.921875 C 31.332031 40.179688 31.3125 40.320312 31.261719 40.640625 C 31.246094 40.726562 31.273438 40.8125 31.332031 40.875 C 31.386719 40.933594 31.460938 40.964844 31.535156 40.964844 L 31.5625 40.960938 C 32.234375 40.898438 32.714844 40.835938 32.71875 40.835938 C 32.828125 40.820312 32.917969 40.742188 32.949219 40.636719 C 33.066406 40.238281 33.167969 39.855469 33.242188 39.503906 C 33.246094 39.480469 33.25 39.457031 33.25 39.433594 C 33.25 39.28125 33.128906 39.15625 32.976562 39.15625 Z M 32.972656 39.433594 C 32.902344 39.769531 32.808594 40.144531 32.683594 40.558594 C 32.683594 40.558594 32.210938 40.621094 31.535156 40.6875 C 31.601562 40.269531 31.613281 40.140625 31.664062 39.722656 L 32.972656 39.433594 M 32.972656 39.433594 L 32.972656 39.433594 " fill-opacity="1" fill-rule="nonzero"/><path fill="#ffffff" d="M 10.691406 40.964844 C 9.039062 40.964844 7.03125 40.699219 7.011719 40.695312 C 6.957031 40.691406 6.914062 40.652344 6.898438 40.597656 C 6.167969 38.144531 6.410156 37.074219 6.738281 36.605469 C 7 36.238281 7.320312 36.214844 7.335938 36.214844 L 7.34375 36.214844 C 7.359375 36.214844 7.371094 36.21875 7.386719 36.222656 C 10.574219 37.25 12.28125 40.617188 12.300781 40.652344 C 12.320312 40.691406 12.320312 40.734375 12.300781 40.773438 C 12.28125 40.8125 12.246094 40.839844 12.203125 40.847656 C 11.835938 40.925781 11.324219 40.964844 10.691406 40.964844 " fill-opacity="1" fill-rule="nonzero"/><path fill="#2437eb" d="M 7.34375 36.078125 L 7.328125 36.078125 C 7.289062 36.078125 6.917969 36.109375 6.625 36.523438 C 6.121094 37.242188 6.167969 38.625 6.765625 40.636719 C 6.796875 40.742188 6.886719 40.820312 6.996094 40.835938 C 7.015625 40.835938 9.03125 41.101562 10.691406 41.101562 C 11.335938 41.101562 11.851562 41.0625 12.230469 40.984375 C 12.316406 40.964844 12.386719 40.910156 12.425781 40.832031 C 12.460938 40.757812 12.460938 40.664062 12.421875 40.589844 C 12.355469 40.449219 10.671875 37.132812 7.429688 36.089844 C 7.402344 36.082031 7.371094 36.078125 7.34375 36.078125 Z M 7.34375 36.355469 C 10.515625 37.375 12.175781 40.710938 12.175781 40.710938 C 11.78125 40.792969 11.253906 40.824219 10.691406 40.824219 C 9.03125 40.824219 7.03125 40.558594 7.03125 40.558594 C 5.804688 36.4375 7.34375 36.355469 7.34375 36.355469 " fill-opacity="1" fill-rule="nonzero"/><path fill="#ffffff" d="M 8.164062 40.824219 C 7.496094 40.761719 7.015625 40.699219 7.011719 40.695312 C 6.957031 40.691406 6.914062 40.652344 6.898438 40.597656 C 6.167969 38.144531 6.410156 37.074219 6.738281 36.605469 C 7 36.238281 7.320312 36.214844 7.335938 36.214844 L 7.34375 36.214844 C 7.359375 36.214844 7.371094 36.21875 7.386719 36.222656 C 7.539062 36.273438 7.691406 36.328125 7.839844 36.386719 C 7.890625 36.40625 7.921875 36.457031 7.925781 36.511719 C 7.960938 37.898438 8.09375 39.292969 8.316406 40.664062 C 8.324219 40.707031 8.308594 40.75 8.28125 40.78125 C 8.253906 40.808594 8.21875 40.824219 8.179688 40.824219 L 8.164062 40.824219 " fill-opacity="1" fill-rule="nonzero"/><path fill="#2437eb" d="M 7.34375 36.078125 L 7.328125 36.078125 C 7.289062 36.078125 6.917969 36.109375 6.625 36.523438 C 6.121094 37.242188 6.167969 38.625 6.765625 40.636719 C 6.796875 40.742188 6.886719 40.820312 6.996094 40.835938 C 7 40.835938 7.480469 40.898438 8.152344 40.960938 L 8.179688 40.964844 C 8.253906 40.964844 8.328125 40.933594 8.382812 40.875 C 8.441406 40.8125 8.464844 40.726562 8.453125 40.640625 C 8.230469 39.277344 8.097656 37.886719 8.0625 36.507812 C 8.058594 36.398438 7.992188 36.300781 7.890625 36.257812 C 7.742188 36.199219 7.585938 36.140625 7.429688 36.089844 C 7.402344 36.082031 7.371094 36.078125 7.34375 36.078125 Z M 7.34375 36.355469 C 7.496094 36.402344 7.640625 36.457031 7.785156 36.515625 C 7.824219 37.917969 7.957031 39.3125 8.179688 40.6875 C 7.503906 40.621094 7.03125 40.558594 7.03125 40.558594 C 5.804688 36.4375 7.34375 36.355469 7.34375 36.355469 " fill-opacity="1" fill-rule="nonzero"/><path fill="#ffffff" d="M 8.164062 40.824219 C 7.496094 40.761719 7.015625 40.699219 7.011719 40.695312 C 6.957031 40.691406 6.914062 40.652344 6.898438 40.597656 C 6.777344 40.195312 6.679688 39.8125 6.605469 39.460938 C 6.59375 39.414062 6.609375 39.367188 6.644531 39.335938 C 6.667969 39.308594 6.703125 39.292969 6.742188 39.292969 L 6.769531 39.296875 L 8.082031 39.585938 C 8.136719 39.601562 8.179688 39.648438 8.1875 39.707031 L 8.214844 39.941406 C 8.246094 40.1875 8.261719 40.339844 8.316406 40.664062 C 8.324219 40.707031 8.308594 40.75 8.28125 40.78125 C 8.253906 40.808594 8.21875 40.824219 8.179688 40.824219 L 8.164062 40.824219 " fill-opacity="1" fill-rule="nonzero"/><path fill="#2437eb" d="M 6.742188 39.15625 C 6.667969 39.15625 6.597656 39.183594 6.546875 39.234375 C 6.480469 39.300781 6.449219 39.398438 6.46875 39.488281 C 6.542969 39.84375 6.644531 40.230469 6.765625 40.636719 C 6.796875 40.742188 6.886719 40.820312 6.996094 40.835938 C 7 40.835938 7.480469 40.898438 8.152344 40.960938 L 8.179688 40.964844 C 8.253906 40.964844 8.328125 40.933594 8.382812 40.875 C 8.441406 40.8125 8.464844 40.726562 8.453125 40.640625 C 8.398438 40.320312 8.382812 40.179688 8.355469 39.925781 C 8.34375 39.855469 8.335938 39.777344 8.324219 39.6875 C 8.3125 39.574219 8.226562 39.476562 8.109375 39.453125 L 6.800781 39.160156 C 6.78125 39.15625 6.761719 39.15625 6.742188 39.15625 Z M 6.742188 39.433594 L 8.050781 39.722656 C 8.101562 40.140625 8.113281 40.269531 8.179688 40.6875 C 7.503906 40.621094 7.03125 40.558594 7.03125 40.558594 C 6.90625 40.144531 6.8125 39.769531 6.742188 39.433594 " fill-opacity="1" fill-rule="nonzero"/><path fill="#ffffff" d="M 35.804688 40.574219 C 35.65625 40.574219 35.53125 40.429688 35.503906 40.222656 C 35.484375 40.09375 35.511719 39.96875 35.570312 39.890625 C 35.613281 39.835938 35.667969 39.804688 35.730469 39.792969 L 36.023438 39.753906 L 36.054688 39.753906 C 36.199219 39.753906 36.328125 39.902344 36.355469 40.105469 C 36.386719 40.328125 36.289062 40.511719 36.128906 40.53125 L 35.835938 40.570312 L 35.804688 40.574219 " fill-opacity="1" fill-rule="nonzero"/><path fill="#2437eb" d="M 36.054688 39.613281 C 36.039062 39.613281 36.023438 39.613281 36.003906 39.617188 L 35.710938 39.65625 C 35.613281 39.671875 35.523438 39.722656 35.460938 39.804688 C 35.378906 39.917969 35.34375 40.074219 35.363281 40.238281 C 35.402344 40.519531 35.585938 40.710938 35.804688 40.710938 C 35.820312 40.710938 35.835938 40.710938 35.851562 40.710938 L 36.148438 40.667969 C 36.386719 40.636719 36.535156 40.386719 36.492188 40.085938 C 36.457031 39.808594 36.273438 39.613281 36.054688 39.613281 Z M 36.054688 39.890625 C 36.128906 39.890625 36.199219 39.992188 36.21875 40.125 C 36.238281 40.261719 36.1875 40.382812 36.109375 40.394531 L 35.816406 40.433594 L 35.804688 40.433594 C 35.730469 40.433594 35.65625 40.335938 35.640625 40.203125 C 35.621094 40.0625 35.667969 39.941406 35.75 39.933594 L 36.042969 39.890625 L 36.054688 39.890625 " fill-opacity="1" fill-rule="nonzero"/><path fill="#ffffff" d="M 3.960938 40.570312 L 3.664062 40.53125 C 3.503906 40.511719 3.410156 40.328125 3.4375 40.105469 C 3.46875 39.898438 3.589844 39.753906 3.742188 39.753906 L 3.769531 39.753906 L 4.066406 39.792969 C 4.125 39.804688 4.183594 39.835938 4.222656 39.890625 C 4.285156 39.96875 4.308594 40.09375 4.292969 40.222656 C 4.265625 40.429688 4.140625 40.574219 3.988281 40.574219 L 3.960938 40.570312 " fill-opacity="1" fill-rule="nonzero"/><path fill="#2437eb" d="M 3.742188 39.613281 C 3.519531 39.613281 3.339844 39.808594 3.300781 40.085938 C 3.261719 40.386719 3.410156 40.636719 3.644531 40.667969 L 3.941406 40.710938 C 3.957031 40.710938 3.972656 40.710938 3.988281 40.710938 C 4.210938 40.710938 4.390625 40.519531 4.429688 40.238281 C 4.453125 40.074219 4.417969 39.917969 4.332031 39.804688 C 4.269531 39.722656 4.183594 39.671875 4.085938 39.65625 L 3.789062 39.617188 C 3.773438 39.613281 3.757812 39.613281 3.742188 39.613281 Z M 3.742188 39.890625 L 3.753906 39.890625 L 4.046875 39.933594 C 4.125 39.941406 4.175781 40.0625 4.15625 40.203125 C 4.136719 40.335938 4.0625 40.433594 3.988281 40.433594 L 3.976562 40.433594 L 3.683594 40.394531 C 3.605469 40.382812 3.558594 40.261719 3.574219 40.125 C 3.59375 39.992188 3.667969 39.890625 3.742188 39.890625 " fill-opacity="1" fill-rule="nonzero"/><path fill="#ffffff" d="M 20.050781 9.335938 C 18.386719 9.335938 17.03125 10.6875 17.03125 12.351562 C 17.03125 14.015625 18.386719 15.371094 20.050781 15.371094 C 21.714844 15.371094 23.070312 14.015625 23.070312 12.351562 C 23.070312 10.6875 21.714844 9.335938 20.050781 9.335938 Z M 20.011719 23.335938 C 19.964844 23.335938 19.917969 23.308594 19.894531 23.265625 L 15.492188 15.472656 C 14.863281 14.558594 14.527344 13.476562 14.527344 12.351562 C 14.527344 9.308594 17.003906 6.828125 20.050781 6.828125 C 23.097656 6.828125 25.574219 9.308594 25.574219 12.351562 C 25.574219 13.203125 25.386719 14.015625 25.015625 14.777344 C 25.011719 14.789062 25.007812 14.804688 25 14.816406 L 24.953125 14.898438 C 24.878906 15.039062 24.796875 15.179688 24.714844 15.3125 L 20.132812 23.265625 C 20.109375 23.308594 20.0625 23.335938 20.015625 23.335938 L 20.011719 23.335938 " fill-opacity="1" fill-rule="nonzero"/><path fill="#2437eb" d="M 20.050781 15.230469 C 18.464844 15.230469 17.171875 13.941406 17.171875 12.351562 C 17.171875 10.765625 18.464844 9.472656 20.050781 9.472656 C 21.640625 9.472656 22.929688 10.765625 22.929688 12.351562 C 22.929688 13.941406 21.640625 15.230469 20.050781 15.230469 Z M 20.050781 6.691406 C 16.929688 6.691406 14.390625 9.230469 14.390625 12.351562 C 14.390625 13.5 14.730469 14.605469 15.378906 15.550781 L 19.773438 23.332031 C 19.820312 23.417969 19.914062 23.472656 20.011719 23.472656 L 20.015625 23.472656 C 20.113281 23.472656 20.203125 23.421875 20.253906 23.335938 L 24.832031 15.382812 C 24.917969 15.25 25 15.109375 25.074219 14.960938 L 25.121094 14.886719 C 25.132812 14.867188 25.140625 14.84375 25.144531 14.820312 C 25.523438 14.046875 25.714844 13.21875 25.714844 12.351562 C 25.714844 9.230469 23.171875 6.691406 20.050781 6.691406 Z M 20.050781 15.507812 C 21.792969 15.507812 23.207031 14.097656 23.207031 12.351562 C 23.207031 10.609375 21.792969 9.195312 20.050781 9.195312 C 18.308594 9.195312 16.894531 10.609375 16.894531 12.351562 C 16.894531 14.097656 18.308594 15.507812 20.050781 15.507812 M 20.050781 6.96875 C 23.023438 6.96875 25.4375 9.378906 25.4375 12.351562 C 25.4375 13.214844 25.234375 14.027344 24.875 14.746094 L 24.878906 14.746094 L 24.832031 14.828125 C 24.761719 14.96875 24.679688 15.105469 24.597656 15.238281 L 20.015625 23.195312 L 15.613281 15.402344 C 15.015625 14.535156 14.667969 13.484375 14.667969 12.351562 C 14.667969 9.378906 17.078125 6.96875 20.050781 6.96875 " fill-opacity="1" fill-rule="nonzero"/></svg>