<svg xmlns="http://www.w3.org/2000/svg" xmlns:xlink="http://www.w3.org/1999/xlink" width="67" zoomAndPan="magnify" viewBox="0 0 50.25 50.249998" height="67" preserveAspectRatio="xMidYMid meet" version="1.0"><defs><clipPath id="ed9023a420"><path d="M 0.96875 3.347656 L 48.261719 3.347656 L 48.261719 46.207031 L 0.96875 46.207031 Z M 0.96875 3.347656 " clip-rule="nonzero"/></clipPath></defs><g clip-path="url(#ed9023a420)"><path fill="#2437eb" d="M 5.726562 3.347656 C 3.125 3.347656 0.96875 5.503906 0.96875 8.105469 L 0.96875 41.402344 C 0.96875 44.003906 3.125 46.160156 5.726562 46.160156 L 43.78125 46.160156 C 46.382812 46.160156 48.539062 44.003906 48.539062 41.402344 L 48.539062 8.105469 C 48.539062 5.503906 46.382812 3.347656 43.78125 3.347656 Z M 19.996094 8.105469 L 43.78125 8.105469 L 43.78125 41.402344 L 19.996094 41.402344 Z M 27.132812 12.859375 C 26.816406 12.859375 26.511719 12.921875 26.222656 13.042969 C 25.929688 13.164062 25.671875 13.335938 25.449219 13.558594 C 25.226562 13.78125 25.054688 14.039062 24.933594 14.328125 C 24.8125 14.621094 24.753906 14.925781 24.753906 15.238281 C 24.753906 15.554688 24.8125 15.859375 24.933594 16.148438 C 25.054688 16.441406 25.226562 16.699219 25.449219 16.921875 C 25.671875 17.144531 25.929688 17.316406 26.222656 17.4375 C 26.511719 17.558594 26.816406 17.617188 27.132812 17.617188 C 27.449219 17.617188 27.75 17.558594 28.042969 17.4375 C 28.332031 17.316406 28.589844 17.144531 28.8125 16.921875 C 29.035156 16.699219 29.207031 16.441406 29.328125 16.148438 C 29.449219 15.859375 29.511719 15.554688 29.511719 15.238281 C 29.511719 14.925781 29.449219 14.621094 29.328125 14.328125 C 29.207031 14.039062 29.035156 13.78125 28.8125 13.558594 C 28.589844 13.335938 28.332031 13.164062 28.042969 13.042969 C 27.75 12.921875 27.449219 12.859375 27.132812 12.859375 Z M 36.644531 12.859375 C 36.332031 12.859375 36.027344 12.921875 35.734375 13.042969 C 35.445312 13.164062 35.1875 13.335938 34.964844 13.558594 C 34.742188 13.78125 34.570312 14.039062 34.449219 14.328125 C 34.328125 14.621094 34.269531 14.925781 34.269531 15.238281 C 34.269531 15.554688 34.328125 15.859375 34.449219 16.148438 C 34.570312 16.441406 34.742188 16.699219 34.964844 16.921875 C 35.1875 17.144531 35.445312 17.316406 35.734375 17.4375 C 36.027344 17.558594 36.332031 17.617188 36.644531 17.617188 C 36.960938 17.617188 37.265625 17.558594 37.554688 17.4375 C 37.847656 17.316406 38.105469 17.144531 38.328125 16.921875 C 38.550781 16.699219 38.722656 16.441406 38.84375 16.148438 C 38.964844 15.859375 39.023438 15.554688 39.023438 15.238281 C 39.023438 14.925781 38.964844 14.621094 38.84375 14.328125 C 38.722656 14.039062 38.550781 13.78125 38.328125 13.558594 C 38.105469 13.335938 37.847656 13.164062 37.554688 13.042969 C 37.265625 12.921875 36.960938 12.859375 36.644531 12.859375 Z M 8.101562 17.617188 L 12.859375 17.617188 C 14.171875 17.617188 15.238281 18.683594 15.238281 19.996094 L 15.238281 24.753906 C 15.238281 26.066406 14.171875 27.132812 12.859375 27.132812 L 12.859375 31.890625 C 12.859375 33.203125 11.796875 34.269531 10.480469 34.269531 C 9.167969 34.269531 8.101562 33.203125 8.101562 31.890625 L 8.101562 27.132812 C 6.789062 27.132812 5.726562 26.066406 5.726562 24.753906 L 5.726562 19.996094 C 5.726562 18.683594 6.789062 17.617188 8.101562 17.617188 Z M 27.132812 22.375 C 26.816406 22.375 26.511719 22.433594 26.222656 22.554688 C 25.929688 22.675781 25.671875 22.847656 25.449219 23.070312 C 25.226562 23.292969 25.054688 23.550781 24.933594 23.84375 C 24.8125 24.136719 24.753906 24.4375 24.753906 24.753906 C 24.753906 25.070312 24.8125 25.371094 24.933594 25.664062 C 25.054688 25.957031 25.226562 26.210938 25.449219 26.433594 C 25.671875 26.660156 25.929688 26.832031 26.222656 26.949219 C 26.511719 27.070312 26.816406 27.132812 27.132812 27.132812 C 27.449219 27.132812 27.75 27.070312 28.042969 26.949219 C 28.332031 26.832031 28.589844 26.660156 28.8125 26.433594 C 29.035156 26.210938 29.207031 25.957031 29.328125 25.664062 C 29.449219 25.371094 29.511719 25.070312 29.511719 24.753906 C 29.511719 24.4375 29.449219 24.136719 29.328125 23.84375 C 29.207031 23.550781 29.035156 23.292969 28.8125 23.070312 C 28.589844 22.847656 28.332031 22.675781 28.042969 22.554688 C 27.75 22.433594 27.449219 22.375 27.132812 22.375 Z M 36.644531 22.375 C 36.332031 22.375 36.027344 22.433594 35.734375 22.554688 C 35.445312 22.675781 35.1875 22.847656 34.964844 23.070312 C 34.742188 23.292969 34.570312 23.550781 34.449219 23.84375 C 34.328125 24.136719 34.269531 24.4375 34.269531 24.753906 C 34.269531 25.070312 34.328125 25.371094 34.449219 25.664062 C 34.570312 25.957031 34.742188 26.210938 34.964844 26.433594 C 35.1875 26.660156 35.445312 26.832031 35.734375 26.949219 C 36.027344 27.070312 36.332031 27.132812 36.644531 27.132812 C 36.960938 27.132812 37.265625 27.070312 37.554688 26.949219 C 37.847656 26.832031 38.105469 26.660156 38.328125 26.433594 C 38.550781 26.210938 38.722656 25.957031 38.84375 25.664062 C 38.964844 25.371094 39.023438 25.070312 39.023438 24.753906 C 39.023438 24.4375 38.964844 24.136719 38.84375 23.84375 C 38.722656 23.550781 38.550781 23.292969 38.328125 23.070312 C 38.105469 22.847656 37.847656 22.675781 37.554688 22.554688 C 37.265625 22.433594 36.960938 22.375 36.644531 22.375 Z M 31.890625 31.890625 C 31.574219 31.890625 31.269531 31.949219 30.980469 32.070312 C 30.6875 32.191406 30.429688 32.363281 30.207031 32.585938 C 29.984375 32.808594 29.8125 33.066406 29.691406 33.359375 C 29.570312 33.648438 29.511719 33.953125 29.511719 34.269531 C 29.511719 34.582031 29.570312 34.886719 29.691406 35.179688 C 29.8125 35.46875 29.984375 35.726562 30.207031 35.949219 C 30.429688 36.171875 30.6875 36.34375 30.980469 36.464844 C 31.269531 36.585938 31.574219 36.644531 31.890625 36.644531 C 32.203125 36.644531 32.507812 36.585938 32.800781 36.464844 C 33.089844 36.34375 33.347656 36.171875 33.570312 35.949219 C 33.792969 35.726562 33.964844 35.46875 34.085938 35.179688 C 34.207031 34.886719 34.269531 34.582031 34.269531 34.269531 C 34.269531 33.953125 34.207031 33.648438 34.085938 33.359375 C 33.964844 33.066406 33.792969 32.808594 33.570312 32.585938 C 33.347656 32.363281 33.089844 32.191406 32.800781 32.070312 C 32.507812 31.949219 32.203125 31.890625 31.890625 31.890625 Z M 31.890625 31.890625 " fill-opacity="1" fill-rule="nonzero"/></g></svg>