<svg xmlns="http://www.w3.org/2000/svg" xmlns:xlink="http://www.w3.org/1999/xlink" width="67" zoomAndPan="magnify" viewBox="0 0 50.25 50.249998" height="67" preserveAspectRatio="xMidYMid meet" version="1.0"><defs><clipPath id="7242e8b76e"><path d="M 14 22 L 45.644531 22 L 45.644531 32 L 14 32 Z M 14 22 " clip-rule="nonzero"/></clipPath><clipPath id="7452a2ca33"><path d="M 3.523438 1 L 32 1 L 32 48.257812 L 3.523438 48.257812 Z M 3.523438 1 " clip-rule="nonzero"/></clipPath></defs><path fill="#2437eb" d="M 27.078125 6.550781 L 7.9375 6.550781 L 7.9375 17.632812 L 27.078125 17.632812 Z M 11.148438 16.6875 L 10.429688 16.6875 C 9.964844 16.6875 9.585938 16.308594 9.585938 15.84375 C 9.585938 15.375 9.964844 14.996094 10.429688 14.996094 L 11.148438 14.996094 C 11.613281 14.996094 11.992188 15.375 11.992188 15.84375 C 11.992188 16.308594 11.613281 16.6875 11.148438 16.6875 Z M 15.628906 16.6875 L 14.910156 16.6875 C 14.445312 16.6875 14.066406 16.308594 14.066406 15.84375 C 14.066406 15.375 14.445312 14.996094 14.910156 14.996094 L 15.628906 14.996094 C 16.09375 14.996094 16.472656 15.375 16.472656 15.84375 C 16.472656 16.308594 16.09375 16.6875 15.628906 16.6875 Z M 20.109375 16.6875 L 19.390625 16.6875 C 18.925781 16.6875 18.546875 16.308594 18.546875 15.84375 C 18.546875 15.375 18.925781 14.996094 19.390625 14.996094 L 20.109375 14.996094 C 20.574219 14.996094 20.953125 15.375 20.953125 15.84375 C 20.953125 16.308594 20.574219 16.6875 20.109375 16.6875 Z M 24.589844 16.6875 L 23.875 16.6875 C 23.40625 16.6875 23.027344 16.308594 23.027344 15.84375 C 23.027344 15.375 23.40625 14.996094 23.875 14.996094 L 24.589844 14.996094 C 25.054688 14.996094 25.433594 15.375 25.433594 15.84375 C 25.433594 16.308594 25.054688 16.6875 24.589844 16.6875 Z M 24.589844 16.6875 " fill-opacity="1" fill-rule="nonzero"/><g clip-path="url(#7242e8b76e)"><path fill="#2437eb" d="M 45.988281 26.765625 C 45.988281 25.59375 45.035156 24.644531 43.867188 24.644531 L 23.007812 24.644531 C 22.984375 24.644531 22.960938 24.628906 22.9375 24.628906 C 22.878906 24.625 22.820312 24.613281 22.765625 24.59375 C 22.714844 24.578125 22.667969 24.5625 22.621094 24.539062 C 22.574219 24.511719 22.53125 24.480469 22.488281 24.449219 C 22.441406 24.410156 22.402344 24.375 22.367188 24.328125 C 22.351562 24.308594 22.328125 24.296875 22.3125 24.277344 C 21.496094 23.09375 20.152344 22.386719 18.714844 22.386719 C 16.292969 22.386719 14.324219 24.351562 14.324219 26.765625 C 14.324219 29.179688 16.292969 31.144531 18.714844 31.144531 C 20.152344 31.144531 21.5 30.4375 22.3125 29.253906 C 22.328125 29.234375 22.347656 29.222656 22.363281 29.203125 C 22.402344 29.160156 22.445312 29.121094 22.492188 29.082031 C 22.53125 29.050781 22.574219 29.019531 22.617188 28.996094 C 22.664062 28.972656 22.714844 28.953125 22.765625 28.9375 C 22.820312 28.921875 22.875 28.910156 22.933594 28.902344 C 22.960938 28.902344 22.980469 28.890625 23.007812 28.890625 L 43.863281 28.890625 C 45.035156 28.890625 45.988281 27.9375 45.988281 26.765625 Z M 19.988281 30.136719 C 19.640625 30.1875 19.316406 30.214844 19.003906 30.214844 C 18.0625 30.214844 17.28125 29.980469 16.679688 29.511719 C 15.757812 28.796875 15.632812 27.820312 15.621094 27.710938 C 15.570312 27.246094 15.910156 26.828125 16.375 26.78125 C 16.835938 26.730469 17.246094 27.0625 17.300781 27.519531 C 17.335938 27.738281 17.613281 28.777344 19.738281 28.464844 C 20.203125 28.402344 20.632812 28.714844 20.699219 29.175781 C 20.769531 29.640625 20.449219 30.070312 19.988281 30.136719 Z M 19.988281 30.136719 " fill-opacity="1" fill-rule="nonzero"/></g><g clip-path="url(#7452a2ca33)"><path fill="#2437eb" d="M 3.511719 3.730469 L 3.511719 45.773438 C 3.511719 47.238281 4.699219 48.433594 6.160156 48.433594 L 28.847656 48.433594 C 30.3125 48.433594 31.507812 47.238281 31.507812 45.773438 L 31.507812 30.582031 L 23.417969 30.582031 C 22.273438 31.996094 20.554688 32.835938 18.714844 32.835938 C 15.359375 32.835938 12.632812 30.113281 12.632812 26.765625 C 12.632812 23.417969 15.359375 20.695312 18.714844 20.695312 C 20.554688 20.695312 22.273438 21.535156 23.417969 22.953125 L 31.507812 22.953125 L 31.507812 3.730469 C 31.507812 2.261719 30.3125 1.070312 28.847656 1.070312 L 6.160156 1.070312 C 4.699219 1.070312 3.511719 2.261719 3.511719 3.730469 Z M 24.660156 34.613281 L 25.96875 34.613281 C 26.433594 34.613281 26.8125 34.992188 26.8125 35.457031 C 26.8125 35.925781 26.433594 36.304688 25.96875 36.304688 L 24.660156 36.304688 C 24.195312 36.304688 23.816406 35.925781 23.816406 35.457031 C 23.816406 34.992188 24.195312 34.613281 24.660156 34.613281 Z M 24.660156 39.523438 L 25.96875 39.523438 C 26.433594 39.523438 26.8125 39.902344 26.8125 40.371094 C 26.8125 40.839844 26.433594 41.214844 25.96875 41.214844 L 24.660156 41.214844 C 24.195312 41.214844 23.816406 40.839844 23.816406 40.371094 C 23.816406 39.902344 24.195312 39.523438 24.660156 39.523438 Z M 24.660156 44.4375 L 25.96875 44.4375 C 26.433594 44.4375 26.8125 44.8125 26.8125 45.28125 C 26.8125 45.75 26.433594 46.128906 25.96875 46.128906 L 24.660156 46.128906 C 24.195312 46.128906 23.816406 45.75 23.816406 45.28125 C 23.816406 44.8125 24.195312 44.4375 24.660156 44.4375 Z M 16.855469 34.613281 L 18.164062 34.613281 C 18.628906 34.613281 19.007812 34.992188 19.007812 35.457031 C 19.007812 35.925781 18.628906 36.304688 18.164062 36.304688 L 16.855469 36.304688 C 16.390625 36.304688 16.011719 35.925781 16.011719 35.457031 C 16.011719 34.992188 16.390625 34.613281 16.855469 34.613281 Z M 16.855469 39.523438 L 18.164062 39.523438 C 18.628906 39.523438 19.007812 39.902344 19.007812 40.371094 C 19.007812 40.839844 18.628906 41.214844 18.164062 41.214844 L 16.855469 41.214844 C 16.390625 41.214844 16.011719 40.839844 16.011719 40.371094 C 16.011719 39.902344 16.390625 39.523438 16.855469 39.523438 Z M 16.855469 44.4375 L 18.164062 44.4375 C 18.628906 44.4375 19.007812 44.8125 19.007812 45.28125 C 19.007812 45.75 18.628906 46.128906 18.164062 46.128906 L 16.855469 46.128906 C 16.390625 46.128906 16.011719 45.75 16.011719 45.28125 C 16.011719 44.8125 16.390625 44.4375 16.855469 44.4375 Z M 10.359375 46.128906 L 9.050781 46.128906 C 8.585938 46.128906 8.207031 45.75 8.207031 45.28125 C 8.207031 44.8125 8.585938 44.4375 9.050781 44.4375 L 10.359375 44.4375 C 10.824219 44.4375 11.203125 44.8125 11.203125 45.28125 C 11.203125 45.75 10.824219 46.128906 10.359375 46.128906 Z M 10.359375 41.214844 L 9.050781 41.214844 C 8.585938 41.214844 8.207031 40.839844 8.207031 40.371094 C 8.207031 39.902344 8.585938 39.523438 9.050781 39.523438 L 10.359375 39.523438 C 10.824219 39.523438 11.203125 39.902344 11.203125 40.371094 C 11.203125 40.839844 10.824219 41.214844 10.359375 41.214844 Z M 10.359375 36.304688 L 9.050781 36.304688 C 8.585938 36.304688 8.207031 35.925781 8.207031 35.457031 C 8.207031 34.992188 8.585938 34.613281 9.050781 34.613281 L 10.359375 34.613281 C 10.824219 34.613281 11.203125 34.992188 11.203125 35.457031 C 11.203125 35.925781 10.824219 36.304688 10.359375 36.304688 Z M 6.246094 5.707031 C 6.246094 5.238281 6.625 4.859375 7.09375 4.859375 L 27.921875 4.859375 C 28.390625 4.859375 28.769531 5.238281 28.769531 5.707031 L 28.769531 18.480469 C 28.769531 18.945312 28.390625 19.324219 27.921875 19.324219 L 7.09375 19.324219 C 6.625 19.324219 6.246094 18.945312 6.246094 18.480469 Z M 6.246094 5.707031 " fill-opacity="1" fill-rule="nonzero"/></g></svg>