<svg xmlns="http://www.w3.org/2000/svg" xmlns:xlink="http://www.w3.org/1999/xlink" width="67" zoomAndPan="magnify" viewBox="0 0 50.25 50.249998" height="67" preserveAspectRatio="xMidYMid meet" version="1.0"><defs><clipPath id="2e830382ec"><path d="M 1 6.410156 L 48.261719 6.410156 L 48.261719 20 L 1 20 Z M 1 6.410156 " clip-rule="nonzero"/></clipPath><clipPath id="498aca69e5"><path d="M 20 33 L 30 33 L 30 43.359375 L 20 43.359375 Z M 20 33 " clip-rule="nonzero"/></clipPath></defs><g clip-path="url(#2e830382ec)"><path fill="#ff2953" d="M 24.753906 6.410156 C 22.648438 6.402344 20.558594 6.605469 18.492188 7.011719 C 16.425781 7.421875 14.417969 8.027344 12.46875 8.835938 C 10.523438 9.640625 8.675781 10.632812 6.925781 11.804688 C 5.171875 12.976562 3.554688 14.3125 2.070312 15.804688 C 1.855469 16.019531 1.6875 16.269531 1.570312 16.550781 C 1.457031 16.832031 1.398438 17.125 1.398438 17.425781 C 1.398438 17.730469 1.457031 18.023438 1.570312 18.304688 C 1.6875 18.585938 1.855469 18.832031 2.070312 19.046875 C 2.285156 19.265625 2.53125 19.429688 2.8125 19.546875 C 3.09375 19.664062 3.386719 19.71875 3.691406 19.71875 C 3.996094 19.71875 4.289062 19.664062 4.566406 19.546875 C 4.847656 19.429688 5.097656 19.265625 5.3125 19.046875 C 5.949219 18.414062 6.617188 17.808594 7.3125 17.238281 C 8.007812 16.667969 8.730469 16.132812 9.480469 15.632812 C 10.230469 15.132812 11 14.671875 11.792969 14.246094 C 12.589844 13.820312 13.402344 13.4375 14.234375 13.09375 C 15.066406 12.75 15.914062 12.445312 16.773438 12.1875 C 17.636719 11.925781 18.507812 11.707031 19.390625 11.53125 C 20.273438 11.355469 21.164062 11.222656 22.058594 11.136719 C 22.957031 11.046875 23.855469 11.003906 24.753906 11.003906 C 25.65625 11.003906 26.554688 11.046875 27.449219 11.136719 C 28.34375 11.222656 29.234375 11.355469 30.117188 11.53125 C 31 11.707031 31.871094 11.925781 32.734375 12.1875 C 33.597656 12.445312 34.441406 12.75 35.273438 13.09375 C 36.105469 13.4375 36.917969 13.820312 37.714844 14.246094 C 38.507812 14.671875 39.28125 15.132812 40.027344 15.632812 C 40.777344 16.132812 41.5 16.667969 42.195312 17.238281 C 42.890625 17.808594 43.558594 18.414062 44.195312 19.046875 C 44.410156 19.265625 44.660156 19.429688 44.941406 19.546875 C 45.222656 19.664062 45.515625 19.71875 45.816406 19.71875 C 46.121094 19.71875 46.414062 19.664062 46.695312 19.546875 C 46.976562 19.429688 47.222656 19.265625 47.4375 19.046875 C 47.65625 18.832031 47.820312 18.585938 47.9375 18.304688 C 48.054688 18.023438 48.109375 17.730469 48.109375 17.425781 C 48.109375 17.125 48.054688 16.832031 47.9375 16.550781 C 47.820312 16.269531 47.65625 16.019531 47.4375 15.804688 C 45.953125 14.3125 44.335938 12.976562 42.585938 11.804688 C 40.832031 10.632812 38.984375 9.640625 37.039062 8.835938 C 35.089844 8.027344 33.082031 7.421875 31.015625 7.011719 C 28.949219 6.605469 26.863281 6.402344 24.753906 6.410156 Z M 24.753906 6.410156 " fill-opacity="1" fill-rule="nonzero"/></g><path fill="#ff2953" d="M 24.753906 15.582031 C 23.25 15.574219 21.761719 15.714844 20.285156 16.003906 C 18.808594 16.292969 17.378906 16.722656 15.988281 17.292969 C 14.597656 17.867188 13.277344 18.570312 12.027344 19.402344 C 10.773438 20.238281 9.617188 21.1875 8.554688 22.25 C 8.355469 22.46875 8.203125 22.714844 8.101562 22.992188 C 7.996094 23.265625 7.949219 23.550781 7.953125 23.847656 C 7.960938 24.140625 8.023438 24.425781 8.136719 24.695312 C 8.253906 24.96875 8.414062 25.207031 8.625 25.417969 C 8.832031 25.625 9.070312 25.789062 9.34375 25.90625 C 9.613281 26.019531 9.898438 26.082031 10.191406 26.089844 C 10.488281 26.097656 10.773438 26.046875 11.046875 25.945312 C 11.324219 25.84375 11.570312 25.691406 11.789062 25.492188 C 12.214844 25.070312 12.660156 24.667969 13.125 24.285156 C 13.585938 23.90625 14.070312 23.546875 14.570312 23.214844 C 15.066406 22.882812 15.582031 22.574219 16.113281 22.289062 C 16.640625 22.007812 17.183594 21.75 17.738281 21.519531 C 18.292969 21.292969 18.859375 21.089844 19.433594 20.914062 C 20.007812 20.742188 20.589844 20.59375 21.179688 20.480469 C 21.765625 20.363281 22.359375 20.273438 22.957031 20.214844 C 23.554688 20.15625 24.152344 20.125 24.753906 20.125 C 25.355469 20.125 25.953125 20.15625 26.550781 20.214844 C 27.148438 20.273438 27.742188 20.363281 28.332031 20.480469 C 28.917969 20.59375 29.5 20.742188 30.074219 20.914062 C 30.652344 21.089844 31.214844 21.292969 31.769531 21.519531 C 32.324219 21.75 32.867188 22.007812 33.394531 22.289062 C 33.925781 22.574219 34.441406 22.882812 34.941406 23.214844 C 35.4375 23.546875 35.921875 23.90625 36.386719 24.285156 C 36.847656 24.667969 37.292969 25.070312 37.71875 25.492188 C 37.933594 25.707031 38.179688 25.871094 38.460938 25.988281 C 38.742188 26.101562 39.03125 26.160156 39.335938 26.160156 C 39.640625 26.160156 39.929688 26.101562 40.210938 25.988281 C 40.492188 25.871094 40.738281 25.707031 40.953125 25.492188 C 41.167969 25.277344 41.335938 25.03125 41.453125 24.75 C 41.570312 24.46875 41.628906 24.175781 41.628906 23.871094 C 41.628906 23.566406 41.570312 23.273438 41.453125 22.992188 C 41.335938 22.710938 41.167969 22.464844 40.953125 22.25 C 39.890625 21.1875 38.734375 20.238281 37.484375 19.402344 C 36.230469 18.570312 34.910156 17.867188 33.519531 17.292969 C 32.132812 16.722656 30.699219 16.292969 29.222656 16.003906 C 27.746094 15.714844 26.257812 15.574219 24.753906 15.582031 Z M 24.753906 15.582031 " fill-opacity="1" fill-rule="nonzero"/><path fill="#ff2953" d="M 15.035156 28.769531 C 14.800781 28.980469 14.621094 29.230469 14.492188 29.515625 C 14.363281 29.800781 14.296875 30.097656 14.289062 30.410156 C 14.28125 30.726562 14.335938 31.027344 14.453125 31.316406 C 14.570312 31.609375 14.738281 31.863281 14.960938 32.085938 C 15.183594 32.304688 15.441406 32.472656 15.730469 32.589844 C 16.019531 32.707031 16.324219 32.761719 16.636719 32.753906 C 16.949219 32.746094 17.25 32.675781 17.53125 32.546875 C 17.816406 32.417969 18.066406 32.234375 18.277344 32.003906 C 18.703125 31.578125 19.164062 31.199219 19.664062 30.867188 C 20.164062 30.53125 20.695312 30.25 21.25 30.023438 C 21.804688 29.792969 22.378906 29.617188 22.96875 29.5 C 23.558594 29.382812 24.152344 29.324219 24.753906 29.324219 C 25.355469 29.324219 25.953125 29.382812 26.542969 29.5 C 27.128906 29.617188 27.703125 29.792969 28.257812 30.023438 C 28.816406 30.25 29.34375 30.53125 29.84375 30.867188 C 30.34375 31.199219 30.804688 31.578125 31.230469 32.003906 C 31.441406 32.234375 31.691406 32.417969 31.976562 32.546875 C 32.261719 32.675781 32.558594 32.746094 32.871094 32.753906 C 33.183594 32.761719 33.488281 32.707031 33.777344 32.589844 C 34.070312 32.472656 34.324219 32.304688 34.546875 32.085938 C 34.769531 31.863281 34.9375 31.609375 35.054688 31.316406 C 35.171875 31.027344 35.226562 30.726562 35.21875 30.410156 C 35.214844 30.097656 35.144531 29.800781 35.015625 29.515625 C 34.886719 29.230469 34.707031 28.980469 34.476562 28.769531 C 33.835938 28.132812 33.140625 27.5625 32.390625 27.0625 C 31.640625 26.5625 30.847656 26.140625 30.015625 25.792969 C 29.179688 25.449219 28.320312 25.191406 27.433594 25.015625 C 26.550781 24.839844 25.65625 24.75 24.753906 24.75 C 23.851562 24.75 22.957031 24.839844 22.074219 25.015625 C 21.1875 25.191406 20.328125 25.449219 19.496094 25.792969 C 18.660156 26.140625 17.867188 26.5625 17.117188 27.0625 C 16.367188 27.5625 15.671875 28.132812 15.035156 28.769531 Z M 15.035156 28.769531 " fill-opacity="1" fill-rule="nonzero"/><g clip-path="url(#498aca69e5)"><path fill="#ff2953" d="M 29.355469 38.492188 C 29.355469 38.792969 29.328125 39.09375 29.269531 39.386719 C 29.207031 39.683594 29.121094 39.972656 29.007812 40.25 C 28.890625 40.53125 28.75 40.796875 28.582031 41.046875 C 28.414062 41.296875 28.222656 41.53125 28.007812 41.746094 C 27.792969 41.957031 27.5625 42.148438 27.3125 42.316406 C 27.058594 42.484375 26.792969 42.625 26.515625 42.742188 C 26.234375 42.859375 25.949219 42.945312 25.652344 43.003906 C 25.355469 43.0625 25.054688 43.09375 24.753906 43.09375 C 24.453125 43.09375 24.152344 43.0625 23.855469 43.003906 C 23.558594 42.945312 23.273438 42.859375 22.992188 42.742188 C 22.714844 42.625 22.449219 42.484375 22.199219 42.316406 C 21.945312 42.148438 21.714844 41.957031 21.5 41.746094 C 21.285156 41.53125 21.09375 41.296875 20.929688 41.046875 C 20.761719 40.796875 20.617188 40.53125 20.503906 40.25 C 20.386719 39.972656 20.300781 39.683594 20.242188 39.386719 C 20.183594 39.09375 20.152344 38.792969 20.152344 38.492188 C 20.152344 38.1875 20.183594 37.890625 20.242188 37.59375 C 20.300781 37.296875 20.386719 37.007812 20.503906 36.730469 C 20.617188 36.449219 20.761719 36.183594 20.929688 35.933594 C 21.09375 35.683594 21.285156 35.449219 21.5 35.238281 C 21.714844 35.023438 21.945312 34.832031 22.199219 34.664062 C 22.449219 34.496094 22.714844 34.355469 22.992188 34.238281 C 23.273438 34.125 23.558594 34.035156 23.855469 33.976562 C 24.152344 33.917969 24.453125 33.890625 24.753906 33.890625 C 25.054688 33.890625 25.355469 33.917969 25.652344 33.976562 C 25.949219 34.035156 26.234375 34.125 26.515625 34.238281 C 26.792969 34.355469 27.058594 34.496094 27.3125 34.664062 C 27.5625 34.832031 27.792969 35.023438 28.007812 35.238281 C 28.222656 35.449219 28.414062 35.683594 28.582031 35.933594 C 28.75 36.183594 28.890625 36.449219 29.007812 36.730469 C 29.121094 37.007812 29.207031 37.296875 29.269531 37.59375 C 29.328125 37.890625 29.355469 38.1875 29.355469 38.492188 Z M 29.355469 38.492188 " fill-opacity="1" fill-rule="nonzero"/></g></svg>